<mxfile host="app.diagrams.net" modified="2022-03-28T05:04:39.571Z" agent="5.0 (Macintosh; Intel Mac OS X 10_15_7) AppleWebKit/537.36 (KHTML, like Gecko) Chrome/99.0.4844.83 Safari/537.36" etag="ifP61a_rQZhlNAnYyCSV" version="17.2.4" type="github">
  <diagram id="8vuhSDfRcBZXSiyRPVUG" name="Page-1">
    <mxGraphModel dx="1426" dy="711" grid="1" gridSize="10" guides="1" tooltips="1" connect="1" arrows="1" fold="1" page="1" pageScale="1" pageWidth="827" pageHeight="1169" math="0" shadow="0">
      <root>
        <mxCell id="0" />
        <mxCell id="1" parent="0" />
        <mxCell id="5DiekUgnv8NCwvmtXaS6-1" value="" style="shape=image;verticalLabelPosition=bottom;labelBackgroundColor=default;verticalAlign=top;aspect=fixed;imageAspect=0;image=data:image/png,/9j/4AAQSkZJRgABAQAASABIAAD/4QBMRXhpZgAATU0AKgAAAAgAAYdpAAQAAAABAAAAGgAAAAAAA6ABAAMAAAABAAEAAKACAAQAAAABAAADd6ADAAQAAAABAAACpgAAAAD/wAARCAKmA3cDASIAAhEBAxEB/8QAHwAAAQUBAQEBAQEAAAAAAAAAAAECAwQFBgcICQoL/8QAtRAAAgEDAwIEAwUFBAQAAAF9AQIDAAQRBRIhMUEGE1FhByJxFDKBkaEII0KxwRVS0fAkM2JyggkKFhcYGRolJicoKSo0NTY3ODk6Q0RFRkdISUpTVFVWV1hZWmNkZWZnaGlqc3R1dnd4eXqDhIWGh4iJipKTlJWWl5iZmqKjpKWmp6ipqrKztLW2t7i5usLDxMXGx8jJytLT1NXW19jZ2uHi4+Tl5ufo6erx8vP09fb3+Pn6/8QAHwEAAwEBAQEBAQEBAQAAAAAAAAECAwQFBgcICQoL/8QAtREAAgECBAQDBAcFBAQAAQJ3AAECAxEEBSExBhJBUQdhcRMiMoEIFEKRobHBCSMzUvAVYnLRChYkNOEl8RcYGRomJygpKjU2Nzg5OkNERUZHSElKU1RVVldYWVpjZGVmZ2hpanN0dXZ3eHl6goOEhYaHiImKkpOUlZaXmJmaoqOkpaanqKmqsrO0tba3uLm6wsPExcbHyMnK0tPU1dbX2Nna4uPk5ebn6Onq8vP09fb3+Pn6/9sAQwACAgICAgIDAgIDBQMDAwUGBQUFBQYIBgYGBgYICggICAgICAoKCgoKCgoKDAwMDAwMDg4ODg4PDw8PDw8PDw8P/9sAQwECAgIEBAQHBAQHEAsJCxAQEBAQEBAQEBAQEBAQEBAQEBAQEBAQEBAQEBAQEBAQEBAQEBAQEBAQEBAQEBAQEBAQ/90ABAA4/9oADAMBAAIRAxEAPwD9/KKKKACiiigAooooAKKKKACiiigAooryL4w/G/wD8C9F07XvH8t2lvq17Hp9qllZz308tzKrMkaw26PISQpxhaAPXaK+O5P23fhDjy10bxkjuCFz4P1s849PsvOK8O+BP7aniCx0zX9L+PeleIdSurTVbkaVqOn+ENbja8052LQtNbrYhIWQHYAGYkD5ufmYA/TWivkfTf22PgrqPiLRPDE1v4j0u88Q3sWn2Tal4c1SwgkuZjhI/OuLdIwTz1PQV7L8WvjZ8LvgV4ft/FXxY16Lw9pV1cLax3EscsitMylgmIUcjIUnJGPegD1Oivze+Lf/AAUQ/Zt1H4b+ILT4R/GXStI8YPaSHTLm50+7uIUuAMqGRoNvzY25IIUnJBxiqnwX/wCCnf7NniT4Y+H9Y+LfjOw8M+L5rZRqVisVzKiTrwzI0UTrtfG4LnK5weRQB+llFeK/B79on4L/AB+i1Of4P+J4fEkejtGt20MU8YiaYMUB86NM5Cnpn37VyGveO/jD4R/aU0LwtfaQda+GfjHT3itrqxtHabSNUtMu5vXXcPJuEOFc7VVlA6kkgH0zRXi//C23/wCGgP8AhR39ljZ/wjv9vfb/ADuc/avs/k+Ts/4Fv3+23vXmnwC+Jvjbxp8W/jz4Z8T6j9t0zwX4gtLLSYfJhj+zW8ljHM6bo0Vny7E5kLMOgOOKAPrOivGfgH8Wn+Nvw1s/iDJpY0c3V1e232YTeeF+x3Mlvu37I87tm7G3jOMnrXs1ABRRRQAUUUUAFFFFABRRRQAUUUUAFFFFABRRRQAUUUUAFFFFABRRRQAUUUUAFFFFABRRRQAUUUUAFFFFABRRRQAUUUUAFFFFABRRRQAUUUUAFFFFABRRRQAUUUUAFFFFABRRRQAUUUUAFFFFABRRRQAUUUUAFFFFABRRRQAUUUUAFFFFABRXyN8Zv2hPiT4J+M3hn4J/C7wDaeMtY8RaReaxvvNY/smOGKzlSJ1z9luAxO8EdK8juv24fGPh34V/Gbxv43+HNvpmvfB2+tLG50u31k3UN090kb5W6+yJs2rIP+WbZoA/RWivhG0+Of7b99aQ3tt+zbpzQ3CLIh/4Ta0GVcZBwbT0Ndd8AP2i/iV8Tvil41+EvxR+HUHgPWvBllp97KsGspqyyrqJk8sbo4IlXCxk8M3XHFAH2BRXxh+2/wDtX6P+yz8JLzV7ORLrxnrEUsOiWIG9zKF+e5kTn9zAPncngnC968t+GH7aXxAX4eeHT4s+CXxM8U6w9jA91qlpoFlHbXkrIC0sKx3gURtn5cAZGDQB+kNFfm/46/4KReG/hlb2N18Qfgr8RvD8eqTra2n2zSrOI3E7dI4lN7l3PooJr9F7S4+2WcN2EaLz41fZIMOu4Zww7EdxQBZor5m+BPjv4wal4v8AH3w2+Mujlb7wzqHm6ZrVravBpupaXeZktwjHcongH7uRN5bgMepNX/BXxqvviJ4S+J2p2enDR7nwPqmr6PC4lFx5r6fEGWfDRqF3E/cIYDHU0AfRVFfCXw8/aQ8X6J+wh4d/aP8AG0Y8VeIf7HgvbwEx2IupZZxET+5i8uPg5+WPHHSvuOxuftllb3e3Z58aPjOcbgDjNAFqiiigAooooAKKKKACiiigAooooA//0P38ooooAKKKKACiiigAooooAKKKKACvl39q3/hUWi+DdA+JPxj1W+0zTvAetWmsWS2AV5rvUItyW9sIzHI0nms20Ku0k4+ZRk19RV83fHey/anv7vSbb9nt/Bi2DhjqDeKob6SWKRGDRPbfZH2sR1w6DBAO7ngA/Kj41ap+1H4m+MfgL9o/4yX5+DPw9i85NAkk0oeIE8PzT4SKbWbVpIUhmuFPExLiLhCFOTXuXxZ+Jfxv+FWi2F2f2stM8Ua3ryK2i6Lofgiwv9R1VpB+7+zxQ37HY3/PVsIB3J4PiE/xa8W/GKHVNJ+MPxf+IGs+HWluNPvNO8B+B5LGzZ4HaK4hGpKlxLKm4FWHHFUdO8Afsj+AdQtfE3wC0z4w/C3xLaQmH7fpehanci5B6/aYbyGZHBIBKpsXjpQB+hXwh+DXxo+K/wAMPBetftg6yzeMtA1+HxJZ2+mR21qLbyE2wW10EiZHPzM0gTBBO0PxWT+3v9l+zfBb7ds+z/8ACwdG8zzMbNv7zO7PGPXNeK/AHXf2tvjDPqd38P8A9oFda03w1qaWOqW3ibwRDo2oQllWRowkbbi6xsCCwXLHnjivR/2+PD+jfEbxH8APgj4ghGp2nirxhG97Ax2mazsbWR587NpAO4ZKkYGaAPuL/i1f/UF/8lqP+LV/9QX/AMlq+Y/+HcP7E/8A0Syx/wDAm9/+SKP+HcP7E/8A0Syx/wDAm9/+SKAPP/2YLLRNS/ac/aq060jhm0u61HRItkBCxPG+mBWVSnAByRkV88T/AAc/YW/4Zn8WftDWnwJtDceFbrULCTRpdTvEke8sLw2fkmcOwUyNgg+WcZHBr9D/AIB/sp/Cn9mvWPF2o/CmG50+y8XzW00unvIJLW0NrGY1W3yvmANks3mO53HggcV8J/ErwN400my8dfBzUtNlsNG+IPxd0WXSJnXEV3YXfkX175fJyFaCRWOAM0AX/Hmkfs+6Vrek6L/wpX4t2c/hPS4dJtZ/B9nrIsFtHP2nyYby0nj+0RrJIfmbuMYGMV5B4Yvv2S73VvEQ8F/DX47T6pFdiLW/7PGvtcJeLGMLe+VelhMI9uBL823HbFfUXxT8a/tKa58Wvi7pPwt+J9r4O8PfDTRLHUobOTQLXVTdNNbSyugnkkjaMZixk78Z6cYr5u+Efhn9qnwjf/DWz8KfGy0sZP2g21HxNfyyeFbWd7S8NrHcuMvc/vgQQgx5QUDIXtQB96fsZ6v4T03wJJ8K/BnhDx14c03wyXmS48baTJp0tyb2aSVlilcL5zIxO7jIBUsSTk/ZdfJf7IvjX4meLvDfjbTfit4hj8Uax4U8U6joq38VlFp6yw2gjCt5ERIXJJOCzHnqa+tKACiiigAooooAKKKKACiiigAooooAKKKKACiiigAooooAKKKKACiiigAooooAKKKKACiiigAooooAKKKKACiiigAooooAKKKKACiiigAooooAKKKKACiiigAooooAKKKKACiiigAooooAKKKKACiiigAooooAKKKKACiiigAooooAKKKKAPzL/aKf4vx/tz/DNvgjDoU/iT/hDNa+XxFLdRWP2f7VD5h3WiSSb+m0bcdcmvjbx+3jt/2ff212+JsemxeKDr2kfbl0h5pLASeRbY8hrhUlK7cfeUHOe1fafx8tPinf/t2fDmL4OX+j6f4gg8E6zI8mt2893ai3N5ArAx280Em8krtO7HXIPb4x+IsXjOD4BftsxfEK5sLzxEuvaR9sl0yGW3s3k8i1wYY5pJZFXbjhnJzn6UAe+fFP9sj4Q+M9L8LD4Q/tY23wqm0u0EN/F/wjR1tLtiqbSRdRL5ZjIYZUkNu56CvZP2INf+A9zqHjrVPCPxhf4u+P9b8nUvEWs3Fo9gFhhXyYAkBRIoYU5wiue/QDjOt/E/hr9mX9pFtd8dzwaV4G+MWgWU6X04CW1trmi2+2SORzwGntsFemSmOTiuz/AGO9En+JN/8AEf8Aae8R6d5Fv8VbtLfR7aeMKw8O2CmG1LqR0uMvKQezCgDyaw8Qfsf/AAS8WeMPil+0V8ZdE+IvjvxH9os5JJWivXsdJdmCafa6dafaHiQocSYXMhznivnr4feP/wBqDwfretad+wT4H1zxP8KJIJp7Ow8bWa6faWEzfMP7HmuLqC4mt2J+WJwAp4HUkfUtx+zv+0h8L/Hep3f7Mnw++COgeG0kH9m3Oo6fqketeVtGftM1qmC2/dja2MY75r5o+B11+3l8Rv2hPiz8XfAbfDK61nT2s/Cmo3V1/bX9kStp4MhGnmLMrFGfbK0hxu4UY5IBlfBr4xfAvwR8SIPir+3lqfim1+MsZaOzbxXoNxbaVpgJ5XSYbRbiEIO07bSfvAKSSfu342/G79lz40/s5+N/ESGw+L3hfwpBFqWpaXZXjxMFhfcrSMmHQrguARyF6V4f8dPid/wUL+EPw6vPHHxS034Qav4ct57S3uLW3h1ueaX7XOkCqkdy8cTHc44Zh+PSvuvUvg14Di+Eni3wb4N8K6X4dTxbpt0t3BpdlDaRzXNxbmPe6wqoZskDJyfegD4V8X/s7fsW/Dbxn8I4fCvwVttXuvHtzNcW81vf3qzWcNjaG+FxHH5j+c2VVVTKZLD5ux898S6h+zpc6h4j8W6l8H/jvo8etXFzqWp/ZbHXtPsmkmG6eV4obqOFVIHzHAGBzxXqPwN0/wAaaz8X/gXpnxDspdJ1n4a/DW5uNStbnCyQ317LFYxluTglIXI5714j4p8VftdfEj4F6V4pvvjLbWui/EnxHJ4Qk01PDNoZbW2u7uayMoulmRnKomcBEJzjcOtAHM2ej/sp+MfhxaaT4F+Gnx5PhW+giaxk0211m808wBg6GGKS4mtJIyRx+7Ze455r9nfhT42t/iD4G0/xLa6DrXhuKTfCtl4gsX07UUEDGPdJbv8AMobbuU/xKQRwa/LDRLX9r34dWfxP+HHhr44WNvpXwL0Wxe1UeEbM/bITYtOkXNwTFtEezcTITndjtX6lfBrxFq3i/wCEngzxVr8wuNS1jR7G7uZAqoHmngR3YKoCjLEnAAA7UAelUUUUAFFFFABRRRQAUUUUAFFFFAH/0f38ooooAKKKKACiiigAooooAKKKKACiiigD8rf2Xrj9r74V/DzVPCuifBey1CxPiHXLuGfVvEB0e6kjur2SVWNq9jMQhDAq287hzx0r6O/4Wf8Atp/9EK0D/wALQf8Aysr7EooA+Ev2MfD3xR03xT8cPEfxV8Jv4R1DxP4sF9Dbea1zbvH9jijLW9yY4hPHuUjeEAz2qxoXw5+I3xD/AG1tX+Lnj/R30jwl8NdM/sfwusjK/wBvuNQVZLq+XbkBQuIx3B4IyDj7looAKKKKAKOqWs99pt3Y2ty9lNcQyRpPGAXiZ1IDqDxlScjPcV8ES/8ABPHwJ4xnt7z47/EXxt8U3t381LbVtakgsIpSpQvDb2giMRKsV+V+hI6V+gtFAH59eCPgPfeHviF8cvA3g7Q30HwxqnhbRtE0GWcTfYiIbKeDYkzh2dYiyhyCzD3NXNS+CnxT8AaV8DvFOiaba+Kr34OaLe2t/ptpdGGe/mmso7ZVsnmjVG+ZSf3pi4x36ffNFAHyJ+x34W+IeheEvGmv/Erw3J4R1Lxf4q1TWotMmnhuZoLe5KCMSPAzJuO08A19d0UUAFFFFABRRRQAUUUUAFFFFABRRRQAUUUUAFFFFABRRRQAUUUUAFFFFABRRRQAUUUUAFFFFABRRRQAUUUUAFFFFABRRRQAUUUUAFFFFABRRRQAUUUUAFFFFABRRRQAUUUUAFFFFABRRRQAUUUUAFFFFABRRRQAUUUUAFFFFABRRRQAUUUUAfCup+H/AIu6F+0Z8Rv2gJPB0/iGz0LQ9O0Dw3pdrcwRz6hHLL9ovJ0eUhEIYhdrkcL19flT4gfB345eLP2b/wBprxNqngO90jX/AIraxZXml+Hkkiv9QWG1W3hy/wBlZ0yxRmwDwoya/ZWigD8wPHX7OXxx/bG2+Cfj0kfw5+Ffh3aljp2mzRXeratdwx7I7yad4ysEKk5WIIHPIbs1erfAWf8Aa4+FvjCy+B/xW0Cz8b+DLS3ddN8aWE0dnIltbqBFDfWRHMxGFBTAPXLfMw+6aKAPzj8Z+Lv2xv2kdW1H4cfDPwjc/BLwSk8lpqHinXWjbWJ4kYpIunWcLMELAfJMXKsp3K6mvcn8J6j+yX8A7Hwx+zn8PZPH91pEka/2YdQjsLq8adv9Iu5bqWORWlLHe+V56DGAK+qqKAPyw+Jkn7V37XMfhv4Ua78FpPhd4TTWdP1TW9X1LWbS9b7Pp8yziC3gt8OzyMow2CBgZAHNfoD8WvAOu/EfwXL4T8N+MNS8C3M0sTHUtJ2C7WJD88aNIGC7xxuwSOor06igD4S8N/8ABPT4F6X4ntfH/jjUfEvxJ8V2EkE8Gp+JdbubudJLVzLB8sJhjZY3JZEZWUE9K4L4Z/AL4ieKP2bfh54UuLVdA1Xw343OvXUGqrNbyG0ttTnnIRRGzb3RgUDAKc8sBX6VUUAfnB8bvAXxt8G6v8a9f8DeB28fQ/F+ytdMs4dPvobe4sDBYSW7TXS3QjTyy7ceW7N6gdvtf4OeHNV8H/CXwZ4U12NYtR0fR7G0uUVg4WaGBEdQw4OGBGRwa9IooAKKKKACiiigAooooAKKKKACiiigD//S/fyiiigAooooAKKK+av2ivjvqnwRHhd9L0VdbOuXckUkRdlkKRBPli2hvnYuAMgjjoc8AH0rRXwkf2oPjtqPy6R8EtRtmPyg3Uk+N3r81tDx/nNR/wDC5P2xtS50j4YadbBuV+1S4wB1zuuoufTp+NAH3jRXwZ/wnv7c16d3/CH6DYbeMeZG27Pf/j9k6fhSf8JJ+3NH/pf9maDLv4+z5j+T3z5o9P7569PQA+9KK+DR8Vf21rDi/wDh1o90v3Q0Mq5JHc4vW6/QU/8A4aI/aWtMSX3weeZOhEMkm7PrwH4/D8aAPu+ivhL/AIai+Olt++vPgjqMsQ6rFJPv56YxbOf/AB2kP7UPx11E7dJ+COo2xPyg3Mk+Nx6H5raLj/OaAPu6ivg4/GX9sXUsnR/hhp1sG+79qlxgDrnddQ9e3T8aB8ZP2x9LO7W/hjpt0vXFpLzg8D7t1Nznr7fnQB940V8JL+1h8W9M+XxF8FNWUDrLA05TnoObVh1z/H+FB/ap+M2r8eGvgrqYU8LLcvMEOeO9tGODnPzn8KAPu2ivgw/FX9tLWsjSfh7pOmRNzvuZBvUdRw12vYYPyH8KQ69+3Pefvfseg2OONmYzn/a+/J9OvbpQB96UV8EeV+3RIDP/AG7oUe75vK8uL5e+3PkH6feP1qQeNv249F5l8M6FriL94q6K2Opxi5h57fdP0NAH3nRXwf8A8L+/aktv9Gu/hGklx/fikfy+OvRnHcfxev4R/wDCzv22tWwLDwFo2nRn+OaRdwI56NeZwf8Ac/GgD70or4JL/tz3/wC+/tPQtN/6Z7I29+vlSfTr/jR9k/bo/wChk0L/AL9xf/I1AH3tRXwSF/bntP339s6Fe9vL2Rjr3z5KdPrUN38RP23vD1nPeXnhbQdRgtY2aSTegwkYyz4F3ETkDOAPwoA+/KK8B/Zw+LHiP4y+AJfGHiPTrfTpRey28QtmYpJHGqHcQxZlO5iME84z3r36gAooooAKKKKACiiigAooooAKKKKACiiigAooooAKKKKACiiigAooooAKKKKACiiigAooooAKKKKACiiigAooooAKKKKACiiigAooooAKKKKACiiigAooooAKKKKACiiigAooooAKKKKACiiigAor4L+KHxQ+Puo/H3UvhP8ACfUrHT4tPsYboC6hRgwZEZyXZJDnMgAAAGBSC4/bns/3X27Qr/PO/bGMf7P3I/r079aAPvWivgseIv25tP8A339naDqf/TPMa9OevmxdenX8utSD42ftd6Txrvwssrsr1+xyk578bLiftx35/KgD7wor4S/4aa+P3/RFb3/v5N/8Yo/4aa+P3/RFb3/v5N/8YoA+7aK+Ev8AhqL46W3768+COoyxDqsUk+/npjFs5/8AHaUftgePrf5NU+C2uWsp5C7pjlfX5rND19qAPuyivhA/tNfHvxAdvhD4N3durfckv3lCt7/NFAMcj+I9+fSA+Jf25fEnzR6ZofhdG5GTG5A6jOZLk54x079B2APvaivgoXH7c9n+6+3aFf5537Yxj/Z+5H9enfrS/wBuftz2n777LoN728v92Ovf76dPrQB96UV8Gf8ACaftzQ/vf+EZ0GfZz5e+Mbsdv+Ppev1H1pf+Fp/tvW/766+HOiSRL95Y5l3nPHGNQY/oaAPvKivg8ftAftQ6d/yF/hEtz5f3/ssj856bdrS9MjOM9+nZ5/al+OBxaL8D9UF0vLOXuPKI68f6KBnGP4z/AEAB920V8Hn49/tT6h/yCfhLHb7vmH2mR+F9DueL5unp9KafiP8Atw33yw+BNCsY5PmV2lQso6gEG+bnsfk/KgD7yor4LOvftz3n7z7FoNjt425jOff/AFkn8x9KQa5+3PpOZDa6DrXfYfLTr82PvwdPu9fx70AfetFfB4+OP7Wuj/8AIwfCq1vNv3vsMpOQOTjZNP1HTrz69Kd/w0n+0Pc/ubP4MXMUp6NLJLs465zGg/WgD7uor8/da/aN/ad0rSbvWrr4X21hZ6dE09xNcSOVWJBknHmITj2yfavq/wCCnj3Ufif8L9C8datZx2F3qiTNJDESUBimeIFd2ThggYAk4zigD1OiiigAooooA//T/fyiiigAooooAK+Ff21/3E3wyv4+J4NdXY3XGTG3Tp1UflX3VXwx+3EscGh+AtUkY7bXXowQB1DIWJ/DZ+tAH1R53vR53vWP5/vR5/vQBsed70ed71j+f70ef70AbHne9Hne9Y/n+9Hn+9AGx53vR53vWP5/vR5/vQBsed70ed71j+f70ef70AbHne9Hne9Y/n+9Hn+9AGx53vR53vWP5/vR5/vQBsed70ed71j+f70ef70AbHne9Hne9Y/n+9Hn+9AGx53vR53vWP5/vR5/vQBsed71FP5dxDJby8pKpRh04YYNZnn+9Hn+9AHzn+wbcyQfDbxH4cuDmbStcmBHTCvDEMY/3kbr/SvuOvg/9jsm18f/ABp0WLi2staQxjpjdNeIeBx0QdB/SvvCgAooooAKKKKACiiigAooooAKKKKACiiigAooooAKKKKACiiigAooooAKKKKACiiigAooooAKKKKACiiigAooooAKKKKACiiigAooooAKKKKACiiigAooooAKKKKACiiigAooooAKKKKACiiigD4B8MOJf24PiPdQ/NEmjwRs3owisBj81P5V9f8Ane9fGvg19n7YfxPP/TnD/wCg21fWXne9AGx53vR53vWP53vR53vQBsed70ed71j+d70ed70AbHne9Hne9Y/ne9Hne9AGx53vR53vWP53vR53vQBsed70ed71j+d70ed70AbHne9Hne9Y/ne9Hne9AGx53vR53vWP53vR53vQBsed70ed71j+d70ed70AbHne9Hne9Y/ne9Hne9AGx53vR53vWP53vR53vQB5d+0TqRsvgl4vlDEb7IxcAH/XMseOf96u2/Zpshp/wH8FQBdu7T0lwDn/AFzNJn8d2favG/2pJJX+BHihYc7ttoTjrtF3CW/DGc+1fQnwPaF/gx4EMGNv9h6aDjpuFsgb8d2c+9AHqVFFFABRRRQB/9T9/KKKKACiiigAr4W/bw/5Ejwh/wBh2L/0TJX3TXwr+3j/AMiP4R/7DsX/AKJkoA99873o873rH8/3o8/3oA2PO96PO96x/P8Aejz/AHoA2PO96PO96x/P96PP96ANjzvejzvesfz/AHo8/wB6ANjzvejzvesfz/ejz/egDY873o873rH8/wB6PP8AegDY873o873rH8/3o8/3oA2PO96PO96x/P8Aejz/AHoA2PO96PO96x/P96PP96ANjzvejzvesfz/AHo8/wB6ANjzvejzvesfz/ejz/egDw/9kt/s3xh+Ntk3zNNqcUwYdAPPuzj/AMfH5V9618Dfsmg3Xxl+M97HzHHfwxHPXd59yP8A2Q1980AFFFFABRRRQAUUUUAFFFFABRRRQAUUUUAFFFFABRRRQAUUUUAFFFFABRRRQAUUUUAFFFFABRRRQAUUUUAFFFFABRRRQAUUUUAFFFFABRRRQAUUUUAFFFFABRRRQAUUUUAFFFFABRRRQAUUUUAfnlGTY/tveNmk5+3aLBsx2xDZden9w9M9vw+oPO96+XPFRFp+2xdND8v2rRE8zvuxGuOvT7i9PT619F+d70AbHne9Hne9Y/ne9Hne9AGx53vR53vWP53vR53vQBsed70ed71j+d70ed70AbHne9Hne9Y/ne9Hne9AGx53vR53vWP53vR53vQBsed70ed71j+d70ed70AbHne9Hne9Y/ne9Hne9AGx53vR53vWP53vR53vQBsed70ed71j+d70ed70AbHne9Hne9Y/ne9Hne9AHnXx7hF/8HfFkBwcWTycnH+qIk7f7teqfsyXp1D4C+C5ySdtiIucA/uXaPt2+Xj2rzT4qSB/hh4vVuf+JRf/AJ/Z3rqf2PCT+zl4Rzz/AMf/AP6XXFAH0xRRRQAUUUUAf//V/fyiiigAooooAK+GP2/FEXwp0DUE/wBdb69AF9Oba4Y8fVRX3PXwn+3rMLvwH4T8NKQJNS1yNl9f3cMkf85RQB6j53vR53vWP5/vR5/vQBsed70ed71j+f70ef70AbHne9Hne9Y/n+9I1wQpI5wOlAHyF+1F+1zP8HtW0r4V/CzRl8ZfFHxIVWy0wbmit1f7styI2ViGwSEDJ8oLs6qMnx/4afGv9uuX46aZ4f8Ajr4ItfDvhubSNQnkTS7YT2RkhXfHLLdpPd7HDAIE85AQ/KElTXK/sHaRYfEH4qfGH9oLxQFuPFUmuz6XCHO42lsgB+TPI3Ltjz6R4GORX6DeKPH3hFIPEHhiPW7GTXdP02e7m04XUX2uOHyyRI8O4yKh4+YrigDwP9g/43ePvjr8GLzxn8Rb1L7U11e7t0dIY4dsChHSPbEqKdm4gNtyR1JPNfTHxP8Aih4U+EXgXV/iH40uvsuk6PF5khGC8jE7UijBI3SSMQqjPJNfBv8AwS+t/sn7MwuOR9q1i9fkjHyhE4/LvXP/APBTO9kvPC/wz8JajObbw9rniWGPUpN21fLUADcewCszZ9qAOZ0z4sf8FFP2mrOTx98FrTS/hr4NCTy6b9tW3ln1JAQEUtdRXLM/B2SCKCE5OWbAI95/Zm/aq+Kfiz4nat+z7+0b4Vg8L+PtLtFvYXtCTBdwBVLcCSZNwDBt8crI3zAKhQg/a+lwWGm6ZaadpaJFZWsSRQImNixooCBccYAAxivzB8Kava/FX/gpVrPirws4udI8BaE2n311G37r7Su6MpuXAJDyMvOf9W3oBQB7N8cf2wPiDZfEqf4EfsweCv8AhPPHNiFfULi4yNM08H5jHKwkhG4rwWeaJFYqoLsSo7b9n74i/tna94puNJ/aJ+GWk+HdGeFnh1LTL+E+XInSJ7dby8eTzM8MCgXBznIrwnxD+xzN4y+JWr/HP9nj433vg5fE0/2m7GmAX1rcXMLncPMt7mBHiDg7opFkAbcCcHaOT8N/Gj9rH4D/ALQvg34V/tFeJdJ8caR4/Yw20tjBHBLaEOUWT91bWxyWK7lZXXH3WBByAcaNQ/bG/af+OvxK+Ffhb4sP4O8IeC9Y8uWa2hFpdRQM8ixJbyWccU0xUJ8ySXKAggknpX1D8A/gL+1l8IPii0ni34x/8J58O5Y2aaLU2uJ9Rlm8vCbFuPP8hVc5Oy6wwGShJ4/PH4d/C79pL40/F74yT/Bfx2ngTSl8VSx6rKt3cW93IY55lQxPbRGRgqbjsMsasSATxkfpf+z5+zt8V/g54qvtf8cfG3W/iNY3VqbddP1FJvJjkLqwmBnu7ohgAQNoXOeSeBQB9ted70ed71j+f70ef70AbHne9Hne9Y/n+9Hn+9AGx53vR53vWP5/vR5/vQB55+xgBP4u+MGpP/rbnWI92OnEt03H4sa+9q+D/wBhdfM0nx/eIMxTa0Qr9mwpP8mH5194UAFFFFABRRRQAUUUUAFFFFABRRRQAUUUUAFFFFABRRRQAUUUUAFFFFABRRRQAUUUUAFFFFABRRRQAUUUUAFFFFABRRRQAUUUUAFFFFABRRRQAUUUUAFFFFABRRRQAUUUUAFFFFABRRRQAUUUUAfnT45bb+2m5/6gif8Aouve/O96+e/iFN9t/bPcA7/7N0VAcDGzdHnnpn/W+/X249t873oA1/O96PO96yPO96PO96ANfzvejzvesjzvejzvegDX873r82PiX+2f8XPFnxRv/hJ+xx4NsvHeoeHAzavqN8+LFGB2mKJ/tFqgKtxvaX5yGVEO0tX0l+1L401jwL+z1488UeHyV1Cz0yYQuCQY2l/d7xjnKhtw+leYfsF/Dzwx8Pf2avCt9oSo134ntk1W/uBgtJPOMhWI7RLiMDtg9yaAPmTUv2oP2wvCfwB+MnjD4paX/wAIv4q0DVNOttKcWEaW1st3IkUqWxkE0VyiAh1Znm+/98rtx+ofwt8S6l4q+GnhXxLrLrJf6rpdnc3DKoVWllhV3IUcDJJOBwO1fB//AAUE8d+EfFn7I3iibwnrdjrkC6np9pJJZXUVwkc8dyjtGxiZgHULypOR3r7P+EEJ074UeDbE5HkaPYJyQTxAnccUAeb/ALU/7Uuhfs2eErS7+xNrvirXpDb6PpUbYe4lGAXfaC3loWUHaCWYhRgnI+PU1n/gq7PCnxSS20JIHlVh4OMdoreT5eNxLHzQmfmKG/EwbjaB8tWPFP2TxV/wU78P6b4vcfZPDnh/7TpEUhGxrko7ZUHq2WdgPVAe1fpf4i8TaR4U0HUfE2vXSWem6VBJc3E0jBUjiiUszEn0AoA8D/Za/ahs/wBoH4Zah4u1/Th4a1rw1PJaa3aMW8u3lhXe0imQKyoy5JVslCCpLY3H5lu/2yv2n/jLr2oyfsf/AAstte8JaPK9u+r643kx3rhsBrYvdWcYUYJKh5HwVLiMnbXH/sKW2har8NPjN8SPHc8Wi+EPH2uXarNdzJbRfZ5S6ud7lY1+abYDgfMMY6Ctnw/+xH8fvg3aXc/7Onx8u7G2TzTp2kanaebpwSdwzeZmS4g34581LPJPQLk0AfUfhv4lftISfAPxt4m+MfhOz8B+MtDsLyWzks7mC+gnMcDSJMsKy3AjCMAux5X3EE4AOK+Dfgt8Of21P2ufBth8V/FXx8vvB+k3Mc0VjHpSS208jQzNG/n29ibCHBK5STfKxGBgCt3w/wDtGfGa78C/H/4GfHW6s9c8U+BdBv511SwCwrcIYyHRhHHEmF3rtYRIcZDAkZryf9m39mT9rH4lfDTwrrGm/GefwH4Fks5m0+30m5uxcxhpmOJbaA2kTFmLEu07sBgYxwAD9Pv2WfAX7Rvw28PapoPx/wDHFr40EciLpUsTST3EcCht5uLiaKKSRmJHDmQjH38YFfVPne9fOvwB+GPjT4Q+DJ/DHjn4hah8R72S6e4S/wBSVllijdVAhUyTTyFQQW+aQ8nAAHFe5+d70Aa/ne9Hne9ZHne9Hne9AGv53vR53vWR53vR53vQBzvxPmz8NfFoz10i/wD/AEneu7/Y7/5Ny8I/9v8A/wCl9xXlnxPukj+G/ioyHAOl3q/i0LqP1NesfsgwyQfs6eEElG1it63rw97Oynj1BFAH0pRRRQAUUUUAf//W/fyivzQ/Zv8A2b/gX4x+BfgvxN4m8F6ff6pf6fG887xkPI4JXc20gZwBk456nmvbf+GSf2bv+if6b/3w/wD8VX5VjfFrA0K06MqU7xbXTo7dzujgJtJ3PsKivj3/AIZJ/Zu/6J/pv/fD/wDxVH/DJP7N3/RP9N/74f8A+Krm/wCIyYD/AJ9T/wDJf8yv7On3R9hV+fn7YU51L4pfCTw4p+WO7mu5F9V82DHp2jboe/Tpn0H/AIZJ/Zu/6J/pv/fD/wDxVH/DJP7N3/RP9N/74f8A+Ko/4jJgP+fU/wDyX/MP7On3RB53vR53vU//AAyT+zd/0T/Tf++H/wDiqP8Ahkn9m7/on+m/98P/APFUf8RkwH/Pqf8A5L/mH9nT7og873o873qf/hkn9m7/AKJ/pv8A3w//AMVR/wAMk/s3f9E/03/vh/8A4qj/AIjJgP8An1P/AMl/zD+zp90Qed70ed71P/wyT+zd/wBE/wBN/wC+H/8AiqP+GSf2bv8Aon+m/wDfD/8AxVH/ABGTAf8APqf/AJL/AJh/Z0+6Pzw+I/7C1xq/xE1b4ifBX4n6t8K7nxGxl1S301ZTHcTlixdTBc2rKCxLFWLjcSRtziuz+DH7Fngf4PaR4jvhrF14j8b+KLO6tbvXr5QZFN2G8xooizbd7EM5eR3Yjl8HFfbn/DJP7N3/AET/AE3/AL4f/wCKo/4ZJ/Zu/wCif6b/AN8P/wDFUf8AEZMB/wA+p/8Akv8AmH9nT7o/Hvwb+yL+3X4J8IRfCrwx8WdG8P8Ag77SXb+z3mjvY0kl3ySRzLZRz7zydguVB+7uCnNfVHh79jrT7r4QeIPhR8ZvHOsfEVvEF2t7/aN5I6T2c0ShY3tfOkuSjjHzFmYP0K4yD9uf8Mk/s3f9E/03/vh//iqP+GSf2bv+if6b/wB8P/8AFUf8RkwH/Pqf/kv+Yf2dPuj8nF/Yy/a50Ij4f+Evj5cR+ALjyVklllu01C2jiDBYreFWcLGFIBRLqFHH3lGAK+0/gL+zd8P/AIAfDy48BeHQ9++qKx1O/nCpcXjupU52Y2IoJEaAnaOpZiWP0h/wyT+zd/0T/Tf++H/+Ko/4ZJ/Zu/6J/pv/AHw//wAVR/xGTAf8+p/+S/5h/Z0+6Pylh/Y4/al+DU+paL+zB8XINP8ACurmRnsdXDK1ruJ2iE+Rdrv2n5po1hckDIOAR7D8D/2I7D4efEFPi78U/G2ofEvxjaqos7q/EirbEJt3HzZp5JXUZCMzhVB+5nBH3z/wyT+zd/0T/Tf++H/+Ko/4ZJ/Zu/6J/pv/AHw//wAVR/xGTAf8+p/+S/5h/Z0+6Py+1r9l39q/4f8AxO8Z+Kf2Z/iDonh/Q/Gl4dRuINQgUzLO7MxTD2V2pVSxIZWUtnleMn6F/Z98K/tfeHfEOpXX7RPjvRvE+kSWwW0t9Ot0SRLjcCXZ0s7TA25GCXznoMZP15/wyT+zd/0T/Tf++H/+Ko/4ZJ/Zu/6J/pv/AHw//wAVR/xGTAf8+p/+S/5h/Z0+6IPO96PO96n/AOGSf2bv+if6b/3w/wD8VR/wyT+zd/0T/Tf++H/+Ko/4jJgP+fU//Jf8w/s6fdEHne9Hne9T/wDDJP7N3/RP9N/74f8A+Ko/4ZJ/Zu/6J/pv/fD/APxVH/EZMB/z6n/5L/mH9nT7og873o873qX/AIZM/ZrDiP8A4QHTNxGcbWzj/vquSn+Bf7GNrdvYXWieGobqJzG8T3MayK4OCpUy5BB4x1q4eMGCl8NGb+S/zF/Z8+6J/wBghTL8OPE9+v8Aqp9dlC+vEELHj6MK+6q+Jbj9mv8AZPtJmt7rwlocMqfeR3CsO/IL5FTWX7MX7K+pSNFp3g3Rbp1GSsTbyB6kK54pf8RgwNr+xn9y/wAw/s+fdH2pRXx7/wAMk/s3f9E/03/vh/8A4quU034A/sh6v4q1fwPp3hHSZte0GO3mvbPZIssMV0GMLkMQCr7TgqSMjB5oj4w4FptUZ6b6L/MP7Pn3R920V8e/8Mk/s3f9E/03/vh//iqaP2TP2a2JVfAOmEr1AVuPr81T/wARkwH/AD6n/wCS/wCY/wCzp90fYlFfHv8AwyT+zd/0T/Tf++H/APiqP+GSf2bv+if6b/3w/wD8VR/xGTAf8+p/+S/5h/Z0+6PsKivj3/hkn9m7/on+m/8AfD//ABVcZpPwk+G/wt/ac+GX/CvfD9toX9p6X4k+0/ZwR5vkpZ+XuyT93e2Pqa9jIPEvCZhi4YOlTkpSvq7W0TfR+RlVwcoR5mz71ooor9GOQKKKKACiiigAooooAKKKKACiiigAooooAKKKKACiiigAooooAKKKKACiiigAooooAKKKKACiiigAooooAKKKKACiiigAooooAKKKKACiiigAor5J/a00DRfFNr8LPDviKzi1DTNQ8a2cNxbzLujkjbT7/II/keoPI5qn/wAMk/s3f9E/03/vh/8A4qvh+KeO8NlNaFGvCTclfS3drq12OmhhZVFdH2FRXx7/AMMk/s3f9E/03/vh/wD4qj/hkn9m7/on+m/98P8A/FV8z/xGTAf8+p/+S/5m/wDZ0+6PD9Yn+3ftleObjO+Kz023iQ9NreTaAjsTzv8A84r2nz/ep/8Ahkn9m7/on+m/98P/APFUf8Mk/s3f9E/03/vh/wD4qj/iMmA/59T/APJf8w/s6fdEHn+9Hn+9T/8ADJP7N3/RP9N/74f/AOKo/wCGSf2bv+if6b/3w/8A8VR/xGTAf8+p/wDkv+Yf2dPuiDz/AHo8/wB6n/4ZJ/Zu/wCif6b/AN8P/wDFUf8ADJP7N3/RP9N/74f/AOKo/wCIyYD/AJ9T/wDJf8w/s6fdHP8AiLRdG8WaDqHhjxDbJfaZqsEltcwScrJFKpV1P1Br80bj/gnR4ns7e+8J+EPjpr+i+A7ySQf2CI5pIfs8xzLE+y8ihffk5YwYOfmU85/U7/hkn9m7/on+m/8AfD//ABVH/DJP7N3/AET/AE3/AL4f/wCKo/4jJgP+fU//ACX/ADD+zp90fn98Sf2I/Dr/ALM938BvgvPFpNzLe2+oPd6mxdr2eE8tcyxRkgleBsj2rgALgmvKov2YP27vGj2WjfEX47waBoum27RQN4eM6Sk4VVjkit4dNEi7QfmklYjsvzEj9Vv+GSf2bv8Aon+m/wDfD/8AxVH/AAyT+zd/0T/Tf++H/wDiqP8AiMmA/wCfU/8AyX/MP7On3R8OfE79izw58SPA/g7S38X6rYeNfA9skFh4o3mW9cqQxM43ozgNzHtkV4zjD43Bvn5P2I/2mPiOYvCHx9+NlxqfgfTmCxW1lNPPc30SzeYPtXnrGgkGAyySm6KH5R8oBr9ZP+GSf2bv+if6b/3w/wD8VR/wyT+zd/0T/Tf++H/+Ko/4jJgP+fU//Jf8w/s6fdHzn8Qv2cfh745+BUnwCs420LQYoYks2tRlreWBt8chBI8w7xlwx+fJyQTkfGtn+yt+3BaWlv8ADKD49JaeAbOTEN7B56aykKglANqLLt3YXyvt+xU4GQAtfqt/wyT+zd/0T/Tf++H/APiqP+GSf2bv+if6b/3w/wD8VR/xGTAf8+p/+S/5h/Z0+6Pir4TfsXfD74WfDTxZ4KGoT63rXjiymtNW1m5QeZKJVYfJDuYKgZt+0uzM33nPGPnPwf8As7/8FDfhh4ftvAvw5+K3hqz8N6UZI7KOW3QyCJnZgW8zTJmDHOSDI+CcBiBmv1h/4ZJ/Zu/6J/pv/fD/APxVH/DJP7N3/RP9N/74f/4qj/iMmA/59T/8l/zD+zp90eIfAnSfjb4f8EGx+PviOx8TeJjcyuLnT4lihW3ONiHbDbhiOST5S9cZPWvaPP8Aep/+GSf2bv8Aon+m/wDfD/8AxVH/AAyT+zd/0T/Tf++H/wDiqP8AiMmA/wCfU/8AyX/MP7On3RB5/vR5/vU//DJP7N3/AET/AE3/AL4f/wCKo/4ZJ/Zu/wCif6b/AN8P/wDFUf8AEZMB/wA+p/8Akv8AmH9nT7og8/3o8/3qf/hkn9m7/on+m/8AfD//ABVH/DJP7N3/AET/AE3/AL4f/wCKo/4jJgP+fU//ACX/ADD+zp90eX/GG8MPww8SMpGWs3Tn/b+X+tfTX7MNstp8A/BcSggNZeZz1zJI7n8OePavNf8Ahkn9m7/on+m/98P/APFUf8Mk/s3f9E/03/vh/wD4qj/iMmA/59T/APJf8w/s6fdH2FRXx7/wyT+zd/0T/Tf++H/+Ko/4ZJ/Zu/6J/pv/AHw//wAVR/xGTAf8+p/+S/5h/Z0+6PsKivzA+PfwN+Enwzh8E694C8L2miahPrzW0k1urB2hbS79yhyTwWRT+ArzKv0LhzPqWZ4VYqjFpNta2vp6M4q1Nwlys//X/Tr9kn/k274f/wDYNT/0Nq+gL6+tNMsrjUtQmW3tbWN5ZZHOFSNBuZmPYADJr5//AGSf+Tbvh/8A9g1P/Q2r17x43hxfBOvnxg7R6EbC5F+yK7MtqY2EpAjDOcJk/KCfQV/F2eR5syrr+/L/ANKZ9HS+Beh8sJ+3T8Lh5GtXnhfxdZeCrqRI4fFlxokseguJX2JIJy3miJmxiRoQnOc4r2z4tfHnwF8HNP0qfxCbzVNR8QSGHStL0i2e/wBR1CQLvIt4I+WAXksSFA6t0r4D1Pw98Zfg18A5vHvws+J3h/4tfBXT9LF1Boni7TkAbSYwGWGO+hwZX2gKgnjADYBGeK9QsfFOlaj+198I/GevWY0Ww8U/D+dNDinwscN7LLFNLaxnCqJfJIAAAJUcAdK9+vkeFcvaUleC59m7vlV0mpRTjL+bRq2xkqstmfR3wp/aU8EfFPXNQ8IPpWs+DPFOl263k+j+JLE6de/ZGOBcINzxyRZ4LJI2D1xXml7+3P8ACyKS81LRfDXizxD4S02WSK78T6ZoktzokBhbbKxnDCR0jOdzxROowea0v2hPF/hTUrzxP8KfDWlNqHxMu/BusXNteW1vFJJY2vllBFJcZ82Izuw8tACHIJ7ZrT/Zn8XfDUfsl+Dtc0+7tLbw1pWgQxXpZlSK2a3h23STAn5GVw28Nznr1rg+pYaNH6zKjK0mko32unre19be7fz3L5nfluY/7RXxFa98B/DHxd8N/EMo03xD4t8Pql3p9w8aXdldSncjNGV3RyLwyNwehHavX5vjf4Uf4uRfBbQ7S913X4rf7VqMlikT2ukwt/qzfSvKmxpf4I0Dueu0DmvyvttG8X3v7DXwusvDd8dButW+IFvLoNzND5gtLO51KdrKQROAGVYyGVSACMDpX1X+ynFP8BfiZ4u/Zj8eyi913U55fEmk6/KipceIbW4P78zsPv3Fs+VYZOEIxwK9LHZJRp4aaT5pU3NJbNpNLmflHsteuyZEKjbXnY9l8d/tZ+BvCHjG/wDAXh3w34m+IOtaLs/tWLwvpbaimmmQZVbmUvHGrlefLVmkx/DXP/FX9pzR5/2X/E3xm+DyalrU0Ntc20X2GzDXmm3qIwZru3udhiFswzMHBKjkK2Rn5H/Zh8DftDa3dfE7R/B3xpsvBGraf4w1h9U0efw1bapdLJNNviuHnluo5GjljKmPK4CjAPFdd4c8J2Xh34GftPahH8ToPiXqmqrfvq89ppB0m2tdRisTHKiBZZYpGZQpcxNgHrya1nkuCo1VBPmlFwv8Tvdq9/cUUne6tJ6aa3uL2smvvPtX9mv4j6l8UPhDoPiHWND1rRL2O1t4Jv7cgWCe7dYULXUe2STfFKWyrkgnnIFe815f8FZon+DngaVHVkfRNN2sCCDm3TGDXqFfE5i4+3qcisrvT5nTDZBXBfEv4m+CvhD4PvPHXj/URpukWWxWfa0kkkkh2xxRRoC8kjsQFRQSTXe18NftoTw6XrfwP8R6+4i8K6T44s5NVlkOLeIPBLHbPNnjaJmXBPAYg1tlGDjXxEaU9nfbd2Tdl5u1l5iqSsrnd+B/2ufA3i3xfpfgnxB4X8U+AdQ8QFl0hvE+ktp0GpOi7ylvJvkXzNvIjk2Pj+HOKd44/a38CeFPF+peBfDXhrxN8QtY0Iquqx+F9KbUU05nG4LcSl44w+OfLRnf/ZzxXf8AxV+IHw08K6r4H0nxnpqa5qfiTWIbbRLeOCG6mS72M32qMSsCixICWlTlQfevnz9hC7sbLwf8QPCupyJH4v0rxjrr61C5H2kPPcs8EsmeSrwldjdMDA6V7EMJhnRli3Rdlb3ebR3bV72vZWt/ie/Qz5nfluexzftRfClvgZrX7QejXFzq/hvw/FLJeQW8IS/hkgYJLbvb3DRbJkY4ZHZfXOME+cXv7dPwk097LVbrQvFCeDL6SKJfFn9jS/8ACPq8xCrm63bihY7fNWNoiejkc18ZePbrT9a+E37bHijwkwk8K393DHbzRYNtPfW9tDHeyQsPlb95hWI6sDzX2H+0zp9lB+wP4vsIIVjt7fwcgjRRhVEcCFcY9CBXpPJcHTnThOMnzzUd7OKcYPtq4uVu2mq7R7STu+3/AAT1D4p/tP8Aw0+EHjLQPA/ipNQn1DxPYXN9p32C2+2faTbvGgt4o4mM0k8pkBjRI2BAYsygVF8Kv2nvBXxR8Y3fw6m0PXvBfiy1tjerpXiTTzp91cWYbYbiDDyJJGCQDh9wzyBzXz7qFpbXX7X/AOzy9zGsrW/gfWJYywztcR2w3D3wSPxrvviPFGv7c/wanC4kfw14oVj6qptCB+BY1xPLMKoRp8r53TlK9+sXPpbZqOv9Xrnle/mdf47/AGs/A3hDxjf+AvDvhvxN8Qda0XZ/asXhfS21FNNMgyq3MpeONXK8+WrNJj+GvTPB3xv+GXjn4dXHxU0XWUj8O2CTtezXStbPZNbD9/HcxyhXikiwQysM+mQQT+bf7MPgb9obW7r4naP4O+NNl4I1bT/GGsPqmjz+GrbVLpZJpt8Vw88t1HI0csZUx5XAUYB4rE8X+CH0j9m79oy9034kp8Ur/UNZs7nxE9hozaXb28lo0Ivo0RJJYpS0KbpfKOOOeTXo1uHMHzrDxqe8nBXXM78zSbd4KK3vG0n21vchVpWvY+x9P/bm+Fl3cWF9qPhvxZovhLVZooLPxTqOiS2+hztO22Ii4LGREkYgK8kSIc9etcn/AMNJ+LU/bQu/ha3hXxVd+G4dJgt4hBYQmzS4musNqbuJQ5tCoCCUgkENhACSfe/H3xO+Dnhj4DR+PPFEVtr3gie0sxBaxRQ3aXqylFt4YIZCI5XLbdqZ6j2rzHw7cwS/tvaiyRG0874f2LpA4Cui/bnO0qCQCuQCBkCuDC08NyVaioNLlktXfVOPktVfXp6Fyb0Vz7PqrfXlvp1lcahduI4LWN5ZGPRUQFmP4AVargfirZ3mofDDxdY6eCbq40i/jiAOCXaBwoGPU18nRgpTjF9Wbs+ff2Tre78f6Tq37SvicebrHxCnkbTgx3Cy0GCRksbaLIG0Oo86TH3nfJzgV8V3Hwy+HnjzXn8NzeF9Mn8V+LPi3qSyasbK3bUYdM0iQXtwFuWTzVQiNY/lb+PAxmv0H/ZCv9O1L9l/4X3elKEtjoFigUADY0cQRlIHQqwIPvXwj4q13wnovwm+I3iI6vaWPjPwj8TL3VNEQzxreNcm8ii8qKMnewuI2eJlA+ZSfTj9Ay2rU+u4iNO6fMoq3TVxj8lpf0OSaXKrmpYTfszwftD/AB4X44eBU8Vaj/wkNj9lmbwpd+IPKg/sm0ynnW9ncrH82TsLA98c5r0j9n2X4Ly/tZa23wR8Lr4V0n/hDoftEC6DcaB5k/29vn8i4t7Zn+XA3hSOMZ4xVT4b+OvjB4d+Onx7j+Hvw0PjO2ufEWnyzzHWLXTDbynR7P8AdbJ1YtxzuBx2ruPhd4m+IHib9sDVr34i+Df+EJvIvBUKR239owal5kX9oMfM8yAKq85G088ZrTGuXs6iu7eyj/y8i18Mfsbr+mEN169v1PlT4u/DfwB8OdR+Ix8W+FtB8Sa5Pd6lqttqGoeMhpl2kd0DPCn9mLJkiMn5VyDIMdM1434ktvgzYfCGLxfp/wANvCcPiGWysC94njvz7hjI0e/NkHDjO5spn93knsa+hv2h/GMurXev+HPD3xM8MeJL26c2epX9zoFjFpehW9wfKX+0dbkuDHHIqsFjiXdO74ARc5HlniO/+G2u+H9b+CWlfHfwBu0XRdOmtNSn0vSbayvZt7hLZL5LxpPMQ24Mx2khZFJB3V9Jl1Wo6VOVRu903Z1dtFstlrtaz32MZpXdv0PoT4GfDbwFrPxm8J+Ifh/4Z0Tws3hs3V5ePpXjBfEMtxFJbtAsb22/KIHkB3gHBwO9fQnxxkPwb+LHgj456O4tdO8QahbeGPE8QwsdzBfHZYXTjvLbz4QN12SFTwBXh37PXxJtT430fRPF3j3R/CPimcRrN4fufDNnpU2oxygFRYajHOYruGQ4aN4C+4AZUHge4ft1PHJ8CY9KWPzrvVfEPh61tEH3jcPqUBQr7rgt7YzXyWMdSWZUqVV3jJcv2n7rbvrLfe6eq2tsbxtyNo+x6KaoIUBjkgcmnV+fnWFeD+Kf+TnPhH/2C/FP/oFhXvFeD+Kf+TnPhH/2C/FP/oFhX3nhl/yO6H/b3/pEjlxv8J/11PrCiiiv6wPBCiiigAooooAKKKKACiiigAooooAKKKKACiiigAooooAKKKKACiiigAooooAKKKKACiiigAooooAKKKKACiiigAooooAKKKKACiiigAooooA+YP2lv+Qh8H/+x6sf/Tff17PXjH7S3/IQ+D//AGPVj/6b7+vZ6/nXxm/36j/g/wDbmevlvwv1PmDx7+1X4Q8G+MNQ8C6D4T8U+PtW0Xy/7UXwzpLX8enGZQ6LcSs8SByh3eWhZ8fw9q7rw98f/hP4k+E8/wAbLTXEtvCVlHNJd3N0jwPatbkrNFNE43pKjDaUxu3cAHIz8s3vw28Ra58XfiF4v/ZN+MUfhzxGL+IeKfD2p6at9p8moxwIkbN5gjngDxBMvEXVsfKe1fPPxC+IWvePP2V/Fa+KfDWkaLc+BfiFp1v4ql8OoRpOoQ215BNeXiAgOyHePO3knKncew+Wo5Bhqypxp3veClq1Jc294tJav4XFvTfc3dVq9/M+ztB/bX+G2q6zpNlrvhjxX4R0jxDPHbaXrmuaNJZaTezT/wCpVJyzMnm/8szMkYbtXY/E39qHwN8OfFp+Hun6Lr3jnxZFAt1caT4Z05tQubW3f7ktwS0cUQb+ENIGPYcit/4w/Er4T+Evh3YeI/G1nD4l0PVrvT4NPs4YIb03txcyoLb7PFIwRyrEOCD8oG4dK8E/ZaurLTfjz+0P4c11lg8V3XiWHUUilIE8uky2cK2rpnlolIdeOFPFcNLB4adKeJ9jJKKenNu+aK3tfS+vna1i3JpqNz2zwr8dfBfxi+G/ivXPAlzd2eo6Hb3VvfWN7BJY6npt2kLMI7iB8PG46qRkHqrHFeLfB79oXSvh9+yX8JPFnxGvdS8T+JfFOnWNvaWkB+3azq99MOViE0imRsfM7u4VRyzCuT0a6std/aw+P+s+EpFn0ex8G2Gn6nLDhoW1eNbhthYcGWOEqGHUdDXyX+zdpHif9n7Q/gl+0v8AErVl8VeD/EmjQ+HpJJrdF/4RSC6YfYXtyOkch/d3MmAzFgScAV7NHJMO6U4+cJKP2m3CUuS9v+H0tqzJ1Xf7/wAz9W/il8f/AAV8IdO0VvFFpqV1rviI7dO0DTbX7fq91IqhpEjggZlPlg/O+/yx/f6Zx/hr+0t4M+JN9qnhxdF13wx4r0i1N7LoGu6ebHU5LYdJII9zxzKT8oMcjYbAOM18jfG7R/iNqf7dPhn/AIRL4gWnw9l1fwfJBo1/daTDq6XEqXW+6tohNNEiSOpR/lYsyjGCOnV6N8OPF2lftUeAL34ufHe08W+MNLsNTksNGtfC6afPNYzIEnMtxb3EqxxhgrDzRhmGF5rz1k2DWGi5S99wc9OdvS+llBxtpZty0d3fSxftJXOk/ZB/aJ8XfF7xJ8QNG8V+GfE9l9m12/e1u9UsYbezs7aLykj052ilbZcxg5ZNpB5YuxzX3lXx5+yJJGzfGBFYFk8fa1uAPIz5WM+lfYSsrAMpyDyCO9eNxEqaxclShyrTT5I1o35dRa4v4kXV1Y/DzxRe2Uz29xb6VfSRSxsUdHSByrKwwQQRkEcg12lcJ8Uv+SZeLv8AsD3/AP6TvXl4VfvY+qLex+f37P37bnhfRf2fvA174t03xf4uGn6Tbr4g8TWumXGpWFlchf3v2y8dvMkdOshjWXb/ABEGvqX4nfEHwLdaj8HNXi8Qa2LTxV4ggXSZNAuY0sr95bOeVE1HcQZbNkBYquW3hDjg15n+yF4u+G9t+wz4O1n7dZx6FpHh7ytVYugjinijIu1m5wGL7sg8nI9RXy34BsNU074PfsfRanFJbrL42aa1ikUo0dnNb6g9su08geUVwOwxX3lfLsPUxVacIODjOcd9/dm+2lrbdmvV8sZtRWv9aH3B4u/a5+HfhPx74h+Fsei6/wCIPF3h8Wz/ANl6Pp/265u47mLzfMgSOTiOMYEjzeUgYgAkmu4+D37QHgL406VrN9oKX2i33hqb7Pq+mazbNYX+nS7d+24ickKCvIZWZSO/Brw/4NWNp/w2h8e9SMS/ahZ+HIhJj5hH9ndioPoTya8x8a6Nrup/EL9rPS/Bqsus6h4T0wW+zO5p2sbhRjrycY4rzpZVhZXoxTUlCnLmb0vLkvpbb3r99OxfPJa+p6B4n/ba+G+seFfE9x4c0zxPF4ejs76C28YLpU0Wgm6SN0Qx3oIdR5gCrN5Yj3Yw/SvXv2Qdc1vxN+zD8M9f8Sahcarql/olrLcXd3K89xNIy8vJJIWZ2PckkmuB8IeMvhYf2GrLXzdWkfhG38H/AGecOVWJClp5UkLqekgkyhQ/Nu4611H7E7Kv7Jfwo3EDOg2YHudtZ5nQowwdSNKm48tRR1d72UvJa91tsEG+ZXfQ+paKKK+ROg+PP2mvE/iTQPid8ALDQtWu9OtdZ8YG2voraeSGO7g+xzN5U6owEibgDtYEZAOM13vh7xp4RtPjL8TrWfWtaW48P2GmXOow6hOjaLZwNFI6yWMYJaNmVSZywGSBivJ/2sP+Ss/s3f8AY7n/ANIZ6xrc+FP+F9/tIr46kaHw43h7RV1GRFdmS0a0uBKwEas5IQk/KpPtX2NLCwnhIXX2Htu/3qXz0ZzuTUn6/odPb/tzfDB5LTU9R8LeLtJ8H6hNFDbeKb3RJYdDl89tkTiYsZVjkONsjwqpyOa5T45/tJeLPAH7TPw88C6R4W8U6zoM1rfXF3HpFjDPFqTvEgiaB2lRpFtdxaYcBcggOQMeKeJdH+NnwM+AVx8QfA3xJ8P/ABj+C+maZHdw6L4r02NZJNKjCtHDDeQf6+XAAQTxj5sDbkYr6A8S65ba9+0j+ztr0dt/Z0eq6Frc8ds2AYvOtIHEeOOVBxwO3Su+OXYSnU9pThzQtUW73jC+qai1JdenbYjnk1Zvses/FH9pzwR8MvElv4Ft9G13xr4untxeNovhvTzqF7BbNwJrgbo4oUJ4XzJFLHoDW34C/aE+H/xF8IeIPFehrfW0/hNZjq+lX1q1nqljJDGZTFNbSldrMoyh3bG7N1x8H+EfCXxs1j9rf47aP4M+K9p8O9Yur3TryO0utBt9XmvtMNqqQTQvNcRMsUZDIyqCA2SeTXZ+C/A95oHxD+N+s+KvjBb/ABF8aHwj9i1eys9BGkx2qxxSvbPLJFNNC0u1mXbw4HXgVz18jwcaXLz3nyxlpzN+9y7+5ypa6Pm39bKlVk2ekW/7f/wn1HwnYePtD8KeMNY8Lz28dxfarY6K1xZaUHUM6XkySFS8OcTCAzCM8MeDX2d4d8Q6L4t0HTvFHhy7S/0vVYI7q1uIzlJYZVDIwzzgg9+a+Pv2XtPso/2CvCFpHCqwz+EJGdQMBmlgkZyfdiSTXb/sTf8AJpfwo/7AFn/6DXnZzgcNCNV0Itck+XV3uve120en9dapyk7X6oo/ta/8gLwH/wBjL/7idRr5cr6j/a1/5AXgP/sZf/cTqNfLlfv/AIT/APInj/il+Z5GYfxD/9D9Ov2Sf+Tbvh//ANg1P/Q2r6HkjjmjaGZQ8bgqysMgg8EEHqDXzx+yT/ybd8P/APsGp/6G1fRVfxXxB/v+I/xy/wDSmfSUfgj6HynD+w/+ynB4nHi2L4d2IvBN9o8nzbk2HnZ3b/sBl+ybs858mvaPiP8ACX4b/F3w2PCXxI8P2uu6UjB44plIMLqMK8MiFXicDgMjKR616JRXNUzTFTlGc6sm47Nt3XproUoRWljyT4U/Aj4SfBCzu7L4X+HINFGoMrXMweW4uZyvC+bcXDyTOF7BnIHavOtd/Yu/Zd8S+K5fGmtfD2wn1K4m+0Tqrzx2k82c+ZNZxyLbSsTyS8TEnrX1BRRDNcVGcqsaslJ7vmd36u+ovZxtaxxHij4b+CfGWm6RpHiHS0nstAvLW/sYY3kgSC4sjmBlELJwnZDlOxUiqvjD4V+A/Huu+G/E3inTPtWreEbo3ml3Uc81vNbTMu1sNA6FkZeGjfcjDqpr0GiueGKqxtyyatfq+u/39e5Tij58+KH7K37P/wAZddj8T/ETwfBqOsIgiN7DNcWNzJGvRJZbSWF5UHZZCwxxivR/Dvwv+HfhLwR/wrbwz4dstN8LmGS3bToYVW3eOUESB1/iLgnczZLdSSa7yitZ5hiJQjSlUbjHZXdl6LoJQV72PmuP9kv4I6b8LtR+EXhjSLjQtBv7oX8f2W/u2ntL5MeVcWss0sjwvGVUoEIQY+7jIr0/4VaD4+8MeCLHQfiV4gh8U63ZGSNtRit/szTwK5ELSpuYGby9vmMu0Fs4Hc+i0EgDJ4Ap18xr1YuFWXNd311d/V669e9l2BQS2CsLxN4Y8O+M9BvfC/izTbfV9I1GMxXNpdRrLDKh7MjAg+vsea83+FHxZb4t3fiTUtE0ryfCmkXz6dYam82W1Oa2Oy5liiCYWBJAY0cuTIVY7QACfPr79tv9k/TL2403UPifo9vdWkjxSxvKwZJIyVZSNvBBBBrWlleL9o4U6cnKNr2TbX3bP8n5ic421Z0vww/ZY+AHwb16TxR8OvB9vpmrPGYlupJri7liibrHA11JKYUPdY9q9sUz4nfsp/s+/GLXV8UfEPwbbajq+xY3u4pbiznmjXokz2ssRmQdNshYY4xivnTwR+3b8I7f4h+NtN8c/FDw5d+EjLb3Ph6+hmEcqxSR4mtJogCxMTruEpxuDY7YH1B8N/2kvgV8X9bl8OfDLxpp/iPUoIWuJILR2d1iUhS5yAAMsBXrYzD5tQqPETdS6S973tmr25vLZroyIum1ZWN+++C3wsv/AIX3PwXbw5bW3gm7tjaSaZabrSEwsdxUG3aN1JPJZWDE8k5Jrc8UfD3wf4z8CXvwz8SWH2zw1qNn9gntPNlj3220Js8yN1lHAxkOG96+b9R+MH7YFvqF1Bp37O9nd2kcrrDM3jSziMsYYhXKGzO0sMHbk46ZNcN8ef2qZfA3w68Ox6r4k0T4dfEi41zQ4tX0JtX07Ubqx0+5vo0ui3mKMxm2Jcy+UuxTuyuM1nRynHVKkIQmm3K6tNSs39pqLbWyu7dgc4pbH123wq8BP4v8P+PW0vOu+FrCbTNNufPm/cWlwFEkfl7/AC33BF+Z1Zhjgjmr2pfD3wfq/jjRfiRqOn+b4j8PW11aWN15sq+TBe7PPXy1cRtv8teWUkY+UjJzzXhv49/AzxnqD6T4P+IvhzXb6OKSdrew1ezuphDEN0khjilZtiDlmxgDrXzdf/tmfCGP9oDSfD9r8VvDJ8DzeHrq4uZRqViYBqSXMaxKbjflXMRYiPdyOccZrmw+Ax1WTSUrxi++2t189dNnqU5xR7P8UP2Vv2f/AIy67H4n+Ing+DUdYRBEb2Ga4sbmSNeiSy2ksLyoOyyFhjjFeo+D/h54G8AeFIfA3gvQrPR9At0aNbK3hVISr/f3Lj5i/wDEWyW7k187678Y/wBqWPWLtfBPwJsvEfh/zCbDU/8AhMbO2F5bHmOcRG1coJFwwG44B61zPwG/aZ+O/wAbL+2vZPgrb6J4VGpXmmX2qDxPBdPay2MjwzEWv2SJ5QJU28MMg5BIrpqYDHzw/v1E6centItLe3u82j30tclShfbX0PSPDf7HH7MvhHxjF478O+AbG01e2lM8B3zvbW8xOfMgtHka2hfJ4aOJSOxrufHHwF+EvxG8Z6B8Q/F+gLeeJPC7q+n30dxcW00Wx/MVWNvJGJUDjOyQMue1fOfxS/aO/aW+FVpHrGs/BrSZdKvNVtNJtZV8VfvJJdQuFtrZnjGnnYGZ1LfMdvPJxT/H/wC0F+1V8NfBOufEDxP8E9GTSfD1nNfXRi8XeZIIYFLvtX+zhuOBwK6FgczqShV9tdv3U/axv5pe9frt5i5oLS34H3RSMqspVhkHgg9xXzp8HPiP8d/HdzZ3/j/4cad4V8O6hYrdwXtrr/8AaUxaQI8SNb/ZIMBlYktvOCMYOcjptI+Le74w6p8G/FOmrpOpfZBqejTrP5sWqWCkJMygohjmgkIEkfzAKysGIJA8KrltWEpQ0biruzT0+Te3Xtu9DVTRx3wG8AeLvg7rPin4aPZm58CteTar4fvlkQ/Zo76QyT6fLGX8wGKUs0TBdhjYLkFcVyvhb9mG2sbbxhrWs6b4fk8bX2vatqvh7WrnTo9Uk0xb1w8DYmWJ9yMNzIjqM9H719g0VtLOa/NKadnK1/O3V+vXoyfZrY+CfCf7Nv7UXgvxD4s8UaJ8a9HW+8aXsWoagZPCW9TPDbx2y7F/tH5R5cS5Hrk10Phn9n/9onTvjFZ/FvxL8XNL1WZbOLTLy2h8Mi18+wjnM5jR/t0gjdmJ+fa2B2r7VorefEWJle/LqrP3IbWtb4eyBUo/02fNOt/Cb4uw31/Z/Dnxd4W8M+F7mczw6XJ4QN0Ud8NI0ksep26SO8m5y3kqeeckZPlVh+zB8btP+IOr/EmH4k+GG1PWrCz06aJvBTG2WGxkmkjZI/7X+VyZ23HJyAvAxz910VnSz3EwTjFrXR+7HX1fLrsDpJnh3gn4ffEy01mDUPir4m0Hxbbacu7T47Pw2dMltLj7vmpNJfXmPkyuFVTg/exxXNeNfAHiz4n/ABx8LXOu2RsvAfw9b+1YWeVC2qazIhjhxGjllhtEZmPmKN0jDaCFzX0tRXPHM6im6ml7NbJWvo7JWV7X6db7j5FsFFFFeeWFeD+Kf+TnPhH/ANgvxT/6BYV7xXg/in/k5z4R/wDYL8U/+gWFfeeGX/I7of8Ab3/pEjlxv8J/11PrCiiiv6wPBCiiigAooooAKKKKACiiigAooooAKKKKACiiigAooooAKKKKACiiigAooooAKKKKACiiigAooooAKKKKACiiigAooooAKKKKACiiigAooooA+YP2lv8AkIfB/wD7Hqx/9N9/Xs9eMftLf8hD4P8A/Y9WP/pvv69nr+dfGb/fqP8Ag/8Abmevlvwv1Pnn4nfspfs+/GLxAviz4g+DoL/WlQRNewT3NjcSRr0SWS0lhaVR0w5YY46V6f4Z+Gnw/wDBvgxPh34Y8PWWneGUieD+z4oEFu0cgw4dCCH3/wARbJbuTXb0V+U1MwxE4RpSqNxWyu7L0XQ71BXvY+bfA37IP7N3w38Wx+OPBnga0sNZt2Z7eVpLieO1Z+ptoJpHhtyf+mSJXR/Fb9m/4JfG26tdQ+JvhW31a/slKQ3iSTWl2kZ5KC4tZIptn+yX29eOTXt9FaPNsU6irOrLmWifM7/fe4vZxtax554M+E/w4+Hfg1/h/wCBvD9rofh+VJEktbVTGJPNXa7O4O9nYcF2YsfWqcXwZ+GcXwpT4If2HHJ4IjsRpo02WSWVfsoGAnmO7SkjsxfcDyDnmvT68a8c/FpvDnxB8KfCzw3pf9ueIvEpkuJYzN5MVhplv/r7ydwrnG4hIkC5kc4yoBIVGrias3yybfxPXqrvmbvutdRtJD/FHwA+EHjbwBpnwx8Y+G4tb8PaNHHHZQ3ss1xPbiJdqNHdSSG4VwoxvEm/HGag+E/7O/wX+BzXk3wv8LW+jXWogLc3bSTXV5Mq9Fe5uXlmZR2UvgeleXftH/tFeHPhjJp+i6J4+8PaH4qsL+wuL3SdYvILZrvS5XCzqGlOYz5ZMiOOSV2967HXP2pfhFpH/CO/2XdX/ir/AISq2urzTv8AhHdNu9bM9vZSJFPKBYxSkIjyKpYjGT1r0Vh8xlQjGLm4Tu7e9Z21u1s+9/J9mReF/Q6XSf2fvhBoPxJ1j4uaN4eSz8U6/DJBf3MdxcLFcpLt3mS28z7OXbaMv5e/35Oee+DvwY174M+INc0fQfEbXfw3u1WbStFulea40q5diZooLlmz9kIwUiYMUJIBCjB+f/An7amm/wDCRfFKbxzpHio6H4d1dEsWTwnqn+g2C6fbTSC8MdrmFxI8j4nw3llW+4VJ938c/Ff4xx2Xh/W/gh8L4/iBo2uWKXrXN1rkOhvB5oDRp5M8ErsWQhieMdMZrfEYPMYP2NZ6SSXvNJaK6Sc7JNJ2301S3JUoPVH0dVDVNMsda0y80bU4/Os7+GS3mTJXfFKpR1ypBGQSMgg+hr5q8LfHb4gaS13qP7S3gzR/g54fjVVttTvfFdldwz3LHiDmK3CMVBYHcc4IxXmP7OX7YXwv1/4fXeo/Fn4ueGU1v+29aijW81TTbKQWMN/NHZ4jVosoYFQo5UlwQ25s5PEsixShKpGN+Vpe6+be70cbrS2uumhftY3sekH9iL9lZ7jR7mT4e2Uh0OC3trdHmuXieO1ULD9oiaUx3LIqgBp1kbA5Ne5eJfhv4K8X3nhq/wDEOmLczeD75dR0orJJCttdJE8KuFiZFYCN2Xa4ZeemQCPnD9qb9qPQvhJ4NuNE8G38t34912wS60SO00661OIQzSrF9tdreKSIxRBi+C2XAwobIzv6R+1l8I9U+HPi3xVpGuzalc+AtLW71UXOmX2lvvaNjGRFeQQk+c6EKEB5OPSuuphc0q0oYiTm020m+Z2vZfJNu2+ruiU4JtHuejfDvwd4f8Y6/wCP9I0/7Pr3ihbZNRufNlfz1tFKQjy2cxptUkfIq575NS6V4B8J6L4v1vx7plj5Ou+I47aK/uPNlbzks1Kwjy2cxrtDHlFUnvmvh/4V/t3/AA00r4T6Lqnxx1vVIfEy2nn6tKPDOrx20EjEsU3x2Qi2xqQpccHGe9eo/tOftO+Bvhh8KteudA8d6PpHjU6bDfaXZ3VzbLeSJOymN1tJzuYMm7GUPQ+lTUyTMVXWHlGV5PlvaVmk0t7axWnoreQKpC1zo7/9jP8AZg1TxddeOL74fWEmq3rvLNhpltnmkBDTG0WQW3mnJPmeVvzznPNb3ir9nD4d698JtJ+EWiJdeG9P8MLC2hXVjczC80q4tgRBNDM7s7MmSCHZg6kq2Qa5XVP2gvEXiTQdO1T9mjQdH+M5X93qrWXiWzsUsJNisiu3l3AZny3y4XAHuK8d1D9q39qHTPiHpHwtvP2eLRfEWuWN1qNrCPGdsUe2s2RJWMgsdqkGRcAnJ7V00cNmlVp+01jqlKpFNct/sykmklfdbeTE3BdPwPtb4d6b420fwXpOl/EXV7fXfEVtCI7u+tYDbRXDqcBxEWbBIxuxgE5IAHA7SvnLxD48/aUttI8P3nhf4T6bfX19aCXVLW68SpbfYLrOPISVLOVbgY58wBB7V4t8Of2kv2ovin4ek8UeE/gpo72MV7e6exm8W+W3n6fcPbTfKdOPHmRtg9xzXnf2NiKqlWTha+vvwSTd+l9Nnby20L9olp/mfX3iz4ceDPHGreG9d8U6d9tvvCN9/aOlyedLH9nuvLaLzNsbqr/IxG1wy85xnmn2Pw78Gad4p1/xpaaao1jxRDb2+pTPJJItxFaqyRIYnYxqFViDtUbs/Nmvjnwl+0v+0/418UeLvCGh/BTR21HwRdwWWoiTxbsRZriBLhPLb+zvnGxxk9jxX0t8XvipffCHwnY+PNU0UXmg208K67JHPiXTbWXCtdKmwiZIXI8wbkITLjONpdfLsZSlHDuWslZJTi9HaSWjdr6NLq9tRKcXqec2X7EP7Kmn+Jk8WWvw7sVvY5/tKRGW4exWbO4Oti0ptAwPIIi4r0/4q/Aj4T/G200yy+JugJq66LN59k6zT2s1vIRgmOa2kikUEAAru2nuDXqtrc297bRXlpIs0E6LJG6HKujDKsCOoIORU9ck82xbnGpKrLmjs+Z3Xo76FKnG1rHiXxT/AGcfgp8ak0//AIWZ4Wg1i40pfLtboSzW15CndEureSOcKe678Hqa2PA/wQ+FHw18G3vgDwJ4atdF0PU1lS7ht94e485SjtNMWM0jlTjezlgOhr1WisnmOIdNUXUfKul3b7th8ivexxfhf4e+D/BngSy+Gfhuw+x+GtOs/sEFp5ssmy22lNnmSO0p4OMly3vVvwT4L8M/DnwlpPgXwbZ/2foeh26Wtnb+ZJL5UMYwq75Wd2x6sxPvXU0VjPEVJXUpN3d3ru+789XqOyPk79rX/kBeA/8AsZf/AHE6jXy5X1H+1r/yAvAf/Yy/+4nUa+XK/qDwn/5E8f8AFL8zwsw/iH//0f06/ZJ/5Nu+H/8A2DU/9DavoqvnX9kn/k274f8A/YNT/wBDavoqv4r4h/3/ABH+OX/pTPpKPwR9AooorxzQKKKKACiiigAooooAK8L/AGnPGF94A/Z5+IvjHS8i80vQ76WEg4Ik8plUg9sE5zXuleZ/GfwGnxQ+EvjD4dtjPiLSruyUngB5omVCT2w2K7MvlCOIpyqfCmr+l9SZ3s7FL4D+EdP8B/BfwR4R0tNlvpukWcY7lnMSs7E9SWYkknkk5NcB4t/ai8NeD/EmoeGLzwR431CbTpTE1xp/hjULy0kI/iinijZJFPqpq1+zj8TLXxN+z3oPifXj9ivPD1g1jrUJBd7S80pfJu42VQWJUxkgAZIIIHIrz3/h4P8Asmf9Dde/+E9rf/yDXsQy6vUxNbmoSqNN35b6O/VpPcz50orWx89/CH9p7w1o3xy+NGvTeCfG1xFrd7pMkcNv4Y1Ca4gENkEIuIlj3QljyocDcvI4r7i+H3xptPi5HrGneF/D/iLw3fWVtvjn8RaHd6bAZJMqmz7QqebtYZZVOcdSMivhH4T/ALZP7PHhn41fGHxbrfiC9ttJ8VXmly6bN/Yerv56W1mIpTsSzZ02vxh1UnqMjmvrXwh+2h+z58R/ENr4L+H/AIguNT8RamJFsrafSNWso5ZY42kCtPcWaRxghTyzfTJwD7Gf5VV5uaOEmrRh72tlaMb3922mz19TOlNfzHiLeNP2vU+K2tfDeT4ieDYLPw1pVvqWqatPoFzDbW0l5IyW9ud+oBS7qjOTvG0YyPmFUf2jfhXPeeCfAsHxTtfDviHx14h8c6DBLqdho0dq1xaR3CytCwlkmlI8qIq+ZSCvGMcVjeGvA/7VOueAPHng/wAbfB7RZNS+JM95Pq+o6h4pRF3XC+VAkUNrZ3TCO1iCLHmTOVJwCay/hF4t8S/Fjxb4R1D4sS2tvof7ONhM2v6pHMtxZXXiQQm2DRTISrLbW26SU4+V3wSCDXoRhKnL21JwtT35OS7dtH7utpT0t6abkN3Vn1PZPE/gz4eeCP2wPhjb+HvD+keHLF/DPii5vHtbSC0SRIjaR/vSiopQLISS2cV4H4t+Mf7Psv7WGkt8K/DEPxTSz8L3lpNp/hPT7bUUW8ku4mRpHG22RQoO6VnwvQnJAr2rRfiH8N/jx+2Lo+q/DvWbHxboPhXwXqtvqdzauLi1jk1S6t9kTOAULMkL5AOcdam8C698HtW/a90HSfgpqGh3mj6F4Kv4JodAltpLa0ka/hxG62pKRsQPunB9qwoN00nXjJyjSd9WkruT97rqmrbFPXbufb/hi5vL3w5pl3qOknQrmW2iaTT2eOQ2jFRmEtETGdn3cqccccV8g/sS3FzafA3xNdWVsb24h8V+LHjgVlRpXXUpyqBmwoLHjJ4Gea+ivHnxu+D/AMLdQtdK+JPjPSfC93exNPBHqV5FamWNDhmTzWXdg8cd6+eP2C7y3u/gLe6/C/8AxLtT8TeJL62nYFUltZtRmeOVS2PkZeQfSvnKNGawFapKFk5QtvZ/Hs+v3mra50jwD9q/4y/GfV/AXhuz8Q/A7WPD0I8W+G5Yp5tX0idZbiHUIpI7cLBcswaYrsViAik5Ygc1037UPxm+OOs/s6fEjSdc+A+s6Dp93oN/FPfzaxo80drG0LBpXjhumkYKOSEUsewzXbeK/iDpn7Ufxi8KfDj4Tv8A214Q+H+sw614l12IbtO+02SsbXT7efO2aZpGDyFNyoq8nJr2f9sf/k1P4s/9i1qf/ohq9+jiqdKphKE8PFS5r2vO6u1b7W7tez6W01MnFtSaZyfwJ+K/xg1jSfBfhvWvgzquh6LJp1rE+szarpUsCRpbApKYYbh5yHwAAEyNwzjBqP8AaqU6D4o+DHxHsmMd7o3jC1sGKnBktNXiktpom9VOVbHqoNfRPwt/5Jl4R/7A9h/6TpXzn8fHb4gfHD4RfCDSv3zaZqTeLdXwCRBZaajJb7iOFM1zIoUHqFbAODjxsJWjPHuUYKKSle19rO+7e607Gsl7u59j0UUV8ubBRRRQAUUUUAFFFFABRRRQAV4J4rdE/ac+EW9gu7TPFIGTjJ2WHFe9182fEjw7onin9or4TaR4hs0vrN9N8UMY5BxuVbAggjBBHYjmvvvDC39uYfm297/0iRx4+/spW/rU+y6K8k/4VPFpvzeD/EusaDt5SJbo3dsv/bK7Eox7Aij7N8adF/1F7pHiaFecTxS6fcN7bozNHn/gIr+uvq8H8E189P8AgfifN+2kvij92v8AwfwPW6K8l/4WXrel/L4t8FarYAdZbNU1KADuSYD5gH1jrY0f4r/DrXJvstlr9slz08i4Y202fTy5gj5/CplgqqV+W68tV96GsTBu1/v0/M9CopFZXUOhBVhkEcgg0tcpuFFFFABRRRQAUUUUAFFFFABRRXM6z418G+HbpbLxBr1hplw6hxHdXUULlCSAwV2BxkHmtaNCpUly04tvyVzKrWhTXNUkkvPQ6aiuQ1Tx94M0bRrTxFf6xbrpd/MkEFzG3mwySSEhQHj3DGQct0GDkiuvBBGRyDVVcNUglKcWk7rVdVuvl17Cp4inNuMJJtWe/R7ff0CivObv4tfDux0e/wDEFzrKCw0u8NhcSrHK+y5BxswqFm/3lBX3r0C2ube8toru0kWaCdFkjdTlWRhlWBHUEcitMRgK9Jc1Wm4q9tU1ro7a9dV96IoY2jVfLTmm99Gnp3/B/cTUVzTeMPDa+Kl8EtfKNbe3+1LbFWyYc43BsbM8fdzuxzjHNdLWNWhOnbni1dXV1uu68vM1p1oTvyNOzs7dH29QooorI0CiiigAooooAKKKKACiiigAooooAKKKKACiiigAooooAKKKKAPmD9pb/kIfB/8A7Hqx/wDTff17PXjH7S3/ACEPg/8A9j1Y/wDpvv69nr+dfGb/AH6j/g/9uZ6+W/C/UKKKK/HT0QooooAK+MvgWV8VftNfHnxrfJm60S70rw1aljnZa21ot04Ufwh5ZyTjrgZ9vs2vjP4fKPhp+1z8RfCOoIILP4n2ll4j0uQnia6sYhZ30I/20VYpMDqpJ7V7OV60sRFbuGnylFv8E36Jmc90edftt/tHeEPhxYN8O9EtjdeKtaNtBqeoW1g182gabeuIftkwRGPmsCRbx/eZhkAgYPz7N8R9S8Bah8LviJ8CfAaN4b8LeBvFMljaardvbSXeiwXOnsL7MEM7rNcbfMWKRVY5YsQ3Ffc37Vem6dD4U8OahDaxJdXnjDwus8qooklWO/jCB2AywUE4BzjJxXgGk+NPgJ4S+LXjnxbqt1p3h34b+EbGfwraqxYpqGq6jcG81aKzhG55trNHGUhVvmLKAAuK+uyarR+pw5KLk1zXV2+a65bWVnf3tFrpfzb56ifNqzlb+P41eELLxLqnxF8G+FPE3hb4+eI9KSWx0/Xr9rjy9QtrWyKRD7BB5qCGAzOfMT5dw57+/wD7Tfib9oP4V6WniL4U+INAt9Kmm07SdL0W70ee6up726kWBEE8d1Gqpzu/1R2KpJOOnyT8LvFd98MfG3hPxF+0paaz4e+FHhkXUPw9vdVsdq2wumMcb6y0ckr286QHyrYypGPKJLkPkD6i+Lcvxv8AF/xj8EeN/hp4H074hfD/AMP2Talplwuv29jbT6ndqYxcOxjnZlghz5XlxspMm7cMYFYujy4mnzRi4pN3duSVrJRTk3HmsknbVa9hRfus7rwr4K+K/i3UHi+OniXwX4+8Maa0gutOttBIeC9RMrl57u5RWjDcgxhsHqAefjLw18Mvh1Z/8E9/H/j+bwjo91qk1n4r1G0u5NOt/OWN7q6eDZJtLKETATBGABjAxV7xp4r+P/ws8beNfDsnhjSNH1749xQQaFpelasdSe21cL9lu7+YPBausS2+JJHVNoZFG4s2B3X7RHjT4KfC39lTW/2UPD/iixk8XwaJb+G7LR0kzfTXNyscSHyQC/zl95OMYPWrw1KvCdKEHfnnB+5a3LH4m+XS15Wv1s+wNrV+po3nxDsfhP8AH7wFfX2h654hST4bQWwj0LSrjVZ1K3MR3vFbK7InH3jxkgVy2m6XZftL/GX4saha6Rrenx6Zb+GNQj0PWbaXRG1K405bmSC3vEuIWmW2eUK2VADY5yMiu5+IPxEuvg5+0/4Wuo/BPiHxlIfAZtGtPDdnFeXEOy8TLukk0IWMbduQTzjit/8AZ1+Ih+IH7RPxh8YX3hnWvBqrpegK9lr9slpeosKXGZGijkmGxhyp3ZPpWcnKnh5YqENfZq0r/wDTxdN/mPd2ff8AQzfjZ8ZdC+M37C/xW1+0t30jVdO0e+0/V9KuPluNN1GFQsttKOOhIKMOHUhh1rm/2yfHHwE8Kfs4an4V8Vapon/Cc3mh2UFlauIZdVlIEezZGA0yqQDgnC9s1R/ad+MH7LWu/Bvx5oPwv8R+HNb8Z/Ex7PT3tdJuILnUNQuZJYoIxLHAWlwiAjLABee5Oe3/AGyb/wCCnhL4L+K9N1i70DTPiJrWiWtpbxzSWsesXkUcqJHHErEXEqA7gAuQOfepy6goVMOvZzinUbUdntT7r4U7621SCbunr0/zPef2e/GMHi7Sby40f4Zal4A0eOO3EFxqdnb6dNqL7SHcWkbGZFXja0qqW3cAYNed+N/+T7fhf/2J/iL/ANKLSvp++8TeH/BXgoeJ/FuoQ6RpOm2sclzdXLiOKFAqgs7HhQCepr4ls/if8O/i3+3F4Cv/AIX+I7HxXaaL4P1wXs+mTpdw27XNxa+UskkRZVZtpwpOeOleFl8ZVK1avCDUOSfdpe692+v+ehrPRJX7H0T8RPin8XfCfiWTR/B/wd1Txppqxxuuo2mqaXaxMzD5k8u7njkBU8E7cHsa+KP2RvjL8Z9K+ElxB4b+B2seI7KbxB4hnF1Bq+kQIJJtTuJJItk9yj7omJRjjaSCVJUg19j/AB9/aM8KfBywj8O2W7xB8QNdQw6H4dsB51/d3DgiNjGvMcKnl5X2qADzniui/Zz+G+q/Cf4MeGvBXiCVJ9ZtoXn1B4/uNe3UjTz7evAkcgHuBWlLEQo5e3VoR95xtdz96yld/EtrpaWV2+2g1eejPg34GfF740ab8ZvjvqGl/BDV9VvNT13TpLy0j1fSI30+RNNhRYpHkuVSQuoDgxllAOCQciv0la2n+IHw4lsvGGiPo8uv6c8V7ptxJHO9ubiMq8LyQs0bFc4JRiuehPWvmv8AZw/5L/8AtJ/9jJpX/ppt6+hPjH8QdM+Fnwv8S+PdVY+VpNlLJGijc8s5XbDEijlnkkKqoHJJ4qc9q+1xUKdGmlK1OzXNfWEbLVtenUKStG7fc8j/AGK9a1DWP2afBseqTPc3OkQz6U0shy8g06eS2Vie5KxjmvqevA/2XvAOq/DP4CeDfCOvqE1eCyE98o6Ld3TNPMvf7ruR+Fe+V42czhLF1pU9nKVvvZpTXuq4UUUV5pYUUUUAfJ37Wv8AyAvAf/Yy/wDuJ1GvlyvqP9rX/kBeA/8AsZf/AHE6jXy5X9TeE/8AyJ4/4pfmeDmH8Q//0v0H+Emk/tOfC34b+H/h7/wrLS9T/sK2Fv8Aaf8AhJUh83BJ3eX9jfb16bj9a9F/4Sn9pz/okel/+FUn/wAgV9YUV8XiPDzJqtSVWpQvKTbfvT3er+0dEcXUSsn+R8n/APCU/tOf9Ej0v/wqk/8AkCj/AISn9pz/AKJHpf8A4VSf/IFfWFFY/wDENMk/6B//ACaf/wAkV9cq/wA35Hyf/wAJT+05/wBEj0v/AMKpP/kCuF8WfG347+C7/T9N1z4TWCTanuEPl+JlcHaQDkix4+8K+6q+Tv2mY9mqeCbzjEdzOrY+8ctAR/I18L4lcLZblWS18wwmHXPDlteU2tZRT+2ujPc4bp/WsbDD1ZPld9rdE32POf8Ahfvxv/6JPY/+FKv/AMg0f8L9+N//AESex/8AClX/AOQa0d1G6v5I/wCIjVv+gWn/AOVP/lh+n/6lYX+aX3r/ACM7/hfvxv8A+iT2P/hSr/8AINH/AAv343/9Ensf/ClX/wCQa0d1G6j/AIiNW/6Baf8A5U/+WB/qVhf5pfev8jO/4X78b/8Aok9j/wCFKv8A8g0f8L9+N/8A0Sex/wDClX/5BrR3UbqP+IjVv+gWn/5U/wDlgf6lYX+aX3r/ACPOtA8efELwt4j17xV4e+DVjY3/AInkjn1Hy/FLCKeeJdgmMP2Ly1lKgBnVQzgDcTgY7T/hfvxv/wCiT2P/AIUq/wDyDWjuo3VdTxLxE3eWGpt/9xP/AJYC4Kwv80vvX+Rnf8L9+N//AESex/8AClX/AOQaP+F+/G//AKJPY/8AhSr/APINaO6jdUf8RGrf9AtP/wAqf/LA/wBSsL/NL71/kZ3/AAv343/9Ensf/ClX/wCQaybP4v8AxT0+1ubGw+C+kW1teySzTxR+IIkSWSckyu6jTwGZySWJ5Y9a6fdRuprxIrLbDU//ACp/8sD/AFKwv80vvX+Ry+k/F34o6DbvaaF8FtI06CQ7mjttfihRj0yVTTwCay/DnxB8b+Dpbmfwj8BtA0OS8x57WOtW9s0uMkbzFpylsEnrmu83Ubqv/iJmI1X1enrv/E1/8qC/1Kwv80vvX+RwPiP4geNfGM1vceLvgL4f1yWzz5D32tW9y0WTk7DLpzFckdq6S1+OPxksrWOxsvhDpsFtCoRIo/EaIiqOAqqLAAAegra3UbqT8S8Q0ovDU7L/AK+f/LB/6lYX+aX3r/I5fRPi78UvDOnppPhz4LaRpVijMywWuvxQRBnJZiETTwuWJJJxyeak1n4x/FfxHpN3oPiH4M6TqemahE0Nza3XiCOeCeJxhkkjfTyrqw4KsCCOtdJuo3Uv+IlV+bm+rU7/APcT/wCWB/qVhf5pfev8jGtfjl8ZbG1hsrL4Radb29uixxRR+I0RERBhVVRYAAADAA4Ark9B8efEPw34l17xlpXwbsl1vxK8TX93L4qaaWRYF2RRqZLNvLiQZ2xptQEk4yST6Luo3U4+JeISaWGp67/xNeuv7wX+pWF/ml96/wAjO/4X78b/APok9j/4Uq//ACDTW+P/AMbkUufhRY4UZ/5GVe3/AG41p7qY4DoyHowI/Oo/4iNV/wCgWn/5U/8Alg/9SsL/ADS+9f5F7wd8XP2gfHWkNregfCbT3tllaEmTxOqHcoBPBsPcV1f/AAlP7Tn/AESPS/8Awqk/+QK3/wBluVpPh3eI2MRalMox6eVC3P4mvpGv7I4I4OyjMcpw2Or4dc84pu0ppX8vePyjO+bD4upQhLSLstv8j5P/AOEp/ac/6JHpf/hVJ/8AIFH/AAlP7Tn/AESPS/8Awqk/+QK+sKK+p/4hpkn/AED/APk0/wD5I8v65V/m/I+T/wDhKf2nP+iR6X/4VSf/ACBR/wAJT+05/wBEj0v/AMKpP/kCvrCij/iGmSf9A/8A5NP/AOSD65V/m/I+T/8AhKf2nP8Aokel/wDhVJ/8gUf8JT+05/0SPS//AAqk/wDkCvrCij/iGmSf9A//AJNP/wCSD65V/m/I+T/+Ep/ac/6JHpf/AIVSf/IFZ3h/w/8AG3xT8bfBnjjxx4Ms/DOleGbPWLd3t9YTUXkfUUg2kr5EBUKYMcbs7hwACa+waK78s4HyrB144nDUeWcb2fNJ7pp6OTWzIniaklaT0CiiivqzAKx9Y8O6B4gh+z69pttqMeMbbiFJQB7bwa2KKqMmndMTSasypYWNnpllb6bp8S29raxrFFGgwqRoNqqB6ADAq3RRSbvqxpBRRRSAKKKKACiiigAooooAyPEB1ZdB1FtAAbUxbSm1DYwZ9h8vO7j72OvHrXwx8NvE/wAD/Dmn3dp8ZdNdPGUkxk1CTW9PkupJJHJZTH8kpVdpGchC3XkYNfY3xF8XX3gXwpdeJ7HSJNaNmUMkETbHEROHkyFfhB8x46dSBzXmFx+018DbrTZBdawZlmhO+1eyuGLhl5iYGPyyT905bb745r9C4Vhi/qdSFLDTqQnJXlSdpJx6NqMvd1vZpJvVPTT4biSeF+tQlUxEITgnpUV4tS6q7jrpa6baWjWp1kfg34ZePPhtc6B4XhtB4f1gPLG1kqoiTMdwkVQBtdGA+UgEY2kADFeBab8YdV8G/CbxH4S164z4w8MSf2VAMnfMJTsglXPJ2rk5xyFXP3q9L/Zv8P6ppXh/XNXubKTSdM1zUZbvTrGUbWhtm+6dn8IYYwPQAjgg1xWp+G9H+Kf7R4urOxjWy8GJEdRucEm5ulOYoiPunYRgnGcKQTjbj2cvhh6eKxWDxcnUoUn7TmbTalG2jfXnvyStu7PoeVjpV54bDYrDRVOtUXs7JNJp31S6ctudX2V11Mf4k+AE8D/sww6C0Y+2+faXF45+8bmaQeYSTzxnaPYV3Hws1vU/hfr8Xwb8aXBktLlRLoF6/wB2WJuTbM2B86E/KPwHBQHX/anmMXwhvApAL3douPX94Dj9K9A8beANL+JfguLRdVzb3SxxzWtygxJa3CqCrr34PBGeR74IxedxrZZBZhrCtVqtvrGVoWkvS7TXWLa3sbf2Q6WYTeB0nSp00l0krzvF+tlZ9Gk+55X8QIhZftIfDzUY0Ae7tbuBzjGQqvjJ74319P18JaLrXjfUPjj4G8J/Eaz2614cF6puk/1d5C8JMc64A67Tk9M9QDlR9214XGmElh44OjNptU907prnnZp9mrHscJYqNeWKqwTSdTZqzT5IXTXdMKKKK+HPsAooooAKKKKACiiigAooooAKKKKACiiigAooooAKKKKACiiigD54/aJ8IeOvFGn+CdS+H2lwazqPhbxJbavJaXF2LJJYYrS6hYCYpJg7pl/hPeuW/wCEp/ac/wCiR6X/AOFUn/yBX1hRXzuc8J5fmE41MZS5mlZayWm/Ro1p15w0iz5P/wCEp/ac/wCiR6X/AOFUn/yBR/wlP7Tn/RI9L/8ACqT/AOQK+sKK8f8A4hpkn/QP/wCTT/8AkjX65V/m/I+BdV/aA+N2jeLz4IvvhRYjVBCJ9q+JVKbCMj5vsPWtD/hd3x3/AOiT2H/hTL/8g1H8TMw/tJbnG3zNMTbnv8pHH5H8q6jzq+yoeCvDsqUJ/V3qk/jn/mfN1eIcTGco3Wj7HN/8Lu+O/wD0Sew/8KZf/kGuL8W+LfiV43utFv8AxH8GbCe88O3i3+nXEfiowz21woKlkkislbDKSroTtdTtYEcV6x51HnVvT8F+H4PmjQaf+Of+ZD4ixPdfccPq3xS+LuvQRW2u/BfSNRht5ormNLnxDFMqTwsHjlUPp5AdGAZWHKnkHNU5PiF8TppLWab4H6G8ljcyXluza9CTDcy7t80ZOn/LI25tzjDHJyeTXonnUedQvBfh9KyoP/wOf/yQf6x4nuvuOPv/AIvfGjVbKfTdU+D2l3lndI0csM3iOOSORGGCro1gQwI6gjBqa3+MvxwtLeK0tPhFpsMEKhI408SIqIijAVVFhgADgAV1XnUedU/8QU4etb2D/wDA5/5j/wBY8T3X3HEz/Fb4w3OpWus3Pwa0mXULJJI7e4fxFG00STY8xUc2G5Q+0bgCM4GelVn+JPxUl1Zdfk+CWivqagAXR1+EzgAYGJP7P3dPeu/86jzqpeC3D62oP/wOf/yQv9Y8T3X3HEH4qfF86uPEB+DOkHVFhNsLv/hIYvtAgLbzF5n2Dds3c7c4zzjNSp8WvjLHd3F/H8HNKW6u1VJpR4ijEkqoMKHb7BlgATgHpXZedR51L/iCvD3/AD4f/gc//kg/1jxPdfceXaf4w8e6TfJqmlfATw9Z3kWdk8OtW8cq564ddOBH50useMfH3iHV7XxBr/wF8PanqljtFvd3OtW81xDsbcvlyvpxdcMcjBGDzXqHnUedWn/EGshvzexlf/HP/wCSD/WLE919xxupfFv4zazYT6Vq/wAHNKvrK6QxzQT+Io5YpEPVXRrAqwPoRWN4b8cfEXwbFJB4Q+BOgaHFNy6WOuQWytj+8ItOUHr3r0vzqPOqF4L8PqPKqDt/jn/8kH+seJ7r7jg2+JvxZfXE8TP8FdHbWI4DbLenxBEblYC24xCX+z94QtztzjPOK2P+F3fHf/ok9h/4Uy//ACDXSedR51J+CvDz3oP/AMDn/mP/AFjxPdfccDpvxK+KujahqWraR8E9Fsb7WpEmvp4Nfhilu5Y0EaPO66eGkZUAUFiSFAA4rF8XeLfiX48m0aXxZ8GrDUE0G8TULWF/FbLALqIERySRLZhJTGTuQSKwVsMAGAI9Y86jzquPgzkClzqi79+efp/N2F/rFie6+45v/hd3x3/6JPYf+FMv/wAg0f8AC7vjv/0Sew/8KZf/AJBrpPOo86sv+IJ8O/8AQO//AAOf+Y/9Y8T3X3HFat+0D8bdF0241W++FFiILZd7lfEqk49h9hrr/DXxK/aL8V6FZeItI+EunNZ38fmRF/FCKxUnHI+wcdK5L4iS58E6wPWA/wAxX1D8C/8AkkXhb/rzX/0I152b+D3D9CgqkMO7t2+Ofb/EdmX55iKtRwk9Ldjyf/hKf2nP+iR6X/4VSf8AyBR/wlP7Tn/RI9L/APCqT/5Ar6wor5r/AIhpkn/QP/5NP/5I9r65V/m/I+AviX4U/aM+KyeHtP1X4e2Gh2ui6kdReWHXo72R/wDQ7m1EYja3twMm4DFt/AXGDmuT/wCFAfFv/oA/+TVt/wDHa/SmivqcpynD4Gj9XwsOWO9rt7+rbOepNzd5M//T/fyiiigAooooAK+Vv2ninkeFEUfvjeSFT6ABM/qRX1TXyR+0pL53iTwVYj+CSeUjOc5eLGR/wE81+U+N1ZQ4YxbfXlX3zifVcFQ5szpfP/0lnF5ozSZozX+cp+/WFzRmkzRmgLC5ozSZozQFhc0ZpM0ZoCwuaM0maM0BYXNGaTNGaAsLmjNJmjNAWFzRmkzRmgLC5ozSZozQFhc0ZpM0ZoCwuaM0maM0BY9W/ZY/5J9qH/YUl/8AREFfS1fNP7LH/JPtQ/7Ckv8A6Igr6Wr/AEu8KP8AknMF/gX5s/njiv8A5GNb1Ciiiv0I+eCiiigAooooAKKKKACiiigAoorzL4i/FDSfh+lnYi1n1jXNULLZabaDdNMwHU9dqA8FsE9cA4OOvA4Gtiaqo0I80n0/rZLq3ojmxmMpYem6taVor+vv7Lqem0V47oPjn4pXmtWdj4k+HEuk2Fy+x7qLVLa78o7SQzRoFO3jk5+gJIB9iq8fl9TDSUKji76+7KMl98W18iMFjoYiLlTTVu8ZRf3SSYUUUVwnYFFFfOHxG+Ok3w4+Kei+FdXt4F8PahbpJPckN50TyO6Bs7tuxcDcNucZIPavUyjJsRjqro4aN5JN28lq7efkedmma0MHTVXEO0W0r+vfy8z6Popkckc0ayxMHRwGVlOQQeQQR1Brx/4PfEXWPH1tr8HiG0hs9R0LUZbN0g3bCq/dOGZjnggnODjIx0rKhl1WpRqYiK92Fr9/edlp6mtbH04VadGT1ne3y1f4HsdFFFcB2BWDH4W8MRay3iOLSLNNWfO68W3jFwcjacyhd/I469OK3qK0p1pwvyNq+j812M50oytzK9tV6hVK10zTbGa5ubK0it5r1/MneONUaVwAu5yACzYAGTk4q7RUqbSaT3KcU2m1sUNS0vTNZtTY6vZw31sWVjFPGsqFlOVO1gRkHkHsav0UUObaUb6Aoq97ahRXivxy8Za94K8OaTfeHZxb3F3qtpbOxRXzFIWLrhwR82MZHI7Gu71zUvF9p4g0Sy0PR477Sbp5BqF006xtbIF+Qqh5ck+gPTHGcj1Fk1X2NOvdJT5rXaXwJN72Wt9Fe7enr5zzWn7WdGzvHlvZX+Lba70trpotTr6KKK8k9MKKK5Txt4v0zwF4YvfFesRTTWlgFLpAqtId7BBtDMo6nuRW2Hw86tSNKmryk0ku7exlXrwpQlUqO0Urt9kjq6Kqafew6lYW2o22fKuoklTcMHa6hhkeuDVus5RcW09zSMk1dBRWJ4jutbsdCvrvw5YrqWqRRMbe3eQRLJJ2BdsAD6kemR1qfRLjVLvR7K51u0Wx1CWFGuIFcSLFKR8yhxwcHuK19g/Z+1urXtur99t7edrdDL2y9p7Ozva+zt9+1/Lc1KKKKwNgooooAKKKKACiiigAooooAKKKKACiiigAooooA+EfjG239ovTj/1Cl/8Aa1afne9Yvxrbb+0Np5/6hS/+1qk873r9Ty6F8NS/wo+GxcrVp+pred70ed71k+d70ed711+zMOc1vO965/xb4hbw14W1jxEsfnNpdncXQQ8BjDGzhfxxirXne9eefFy8W3+FfjCeTJVNIviQOv8AqHqKkLRbKhK7SOK/ZT+NXiH47/BjS/iL4ps7Wx1K6nuoZY7MOsH7iUoCqyO7DIAyCx571V/aT+NnxQ+D2i2F78NvhveePpdQ8+N5LQyuLGRFzG8sEEMsjxnnPzRjjG4EivJf+CecUlp+y34eMgKme61CQAjHBuXA+oOM5r7I125ZNE1F0OGW3lI+uw1xYeE6mGi+azaWp01pRhWkrXSex+cHwm/4KA/GP4hppVtB8C9R1tXuYrK/1TSpbk2cUrMqyNsNpKIwgbcUkn4HVwOa+wP2gf2nfAf7POj2s3iJZtU1zVsrp2kWYDXNy/QE54SPcQC5yecKrHivmL/gmhJu+Amo3b8zXOt3TyN/ebZHzjoPwrd/aL/Zq+L3jT4waF8cvgh4ssNF8R6VafY/L1WLzIYVAkHmwFobld7CQqwMQx1DZ4rioPEfVVUT5m7dFp+Vzpqql7dwasl+P+Rs/DT9sH4t+MPGem+G/F37Pninwxp2oyCI6j5dxPHA7nCtKJrO2RYh1Z/M+UdFNc/8Wv2pP2o/hL8TtZtZfgxL4k8BW0cj2d1p4uGmaNMfv57uAXMMS8MTE8KMBgk4GW8/8U/tNftd/s9ahpl18f8AwfoeqeDBcxWE+saRIyyzs6ZMyjzmKkAMxV7WJWI2rsyDX6J+IJbfXfBmpLA2+DUdPmCkd0mibB4OeQaujGdWLiqjUl3ST+7sTUcYNScE0/Ns/PTw5/wUN+LvjHS01zwj+zprmuabKzKl1Y3V1cwMyHDASRaaykg8EZ4NWfi3+1v+01D4m8CeAfhj4GsNK8R+PdGN4NN1Xe99aXJMuU8yWW1hUoke4CWPrwy5+Wuq/wCCbV85/Zy+wyKUey1e9jYEYOTsbnntnHavDf2rNX+LLftneFoPgjp8ep+L7Dw87Wsc5hWNBMbhXkBmkjTcgyw3tjOOGHB45SrfVo1ZVG+a2yV9e1kdEVT9tKmoLS+7Z6hplp/wU88G63omp6lqug+PLC7YLd2OLOBLVG27mmdYbFyygnHkySDIOVYYB68ftxSeH/2rtY+A3xBsLLS/D8UkNnZagjSGVbyWKORfPZm2GOQvtXCqUONxIJxi/DPwj/wUUOu+H9b+IXj/AEJNG8+GXUtMlt7Z7oQZ/exE2tkqeZtyAY7jaDg7iOK8U8S/BLwl8dv2wPjH4J8RRLDJNo1rPaXSDElteKkASUEdfRgfvLx6YqXtYxi6XMm2tJej9RR5JN89rJfZ9Ufr9q2oz2Ol3l7bR+dNbwySIhON7IpIXPuRivnP9k3496x+0F8Kv+Ez8R2Nvpur217cWdzBahxEpiIKELIzMCVYZBY8g/QfO37On7QXiXQ7u+/Zi/aCA0zx3oMDQafdStmLVbZUPl7JDgM+wDaf+Wi9g4YVP/wThTyPgzr827PneIb04x02qgrup4r2lWnybNO67NW3OWdDkpy5t1az9bn6O+d70ed71k+d70ed7163szg5zW873o873rJ873o873o9mHOc98SJd3gnVB6on/oa19k/Bz/klXhP/sG23/oAr4h+I1wV8GaljnIjH5yqK+5vhNCsHwv8JIpJB0qybn1eFWP86+c4pVsPBef6HsZG71Zen6noNFFFfCH1AUUUUAf/1P38ooooAKKKKACvjz9ogFfH/hSRs7GhkAz0yH7H15H6V9h18kftMR+Vrvgq8GeZbhGJ+6AGhx+PJ/KvyDx3pOXC+Ja6OD/8niv1PruBpWzOmu9/yZwuaM1Huo3V/nZzH7/YkzRmo91G6jmCxJmjNR7qN1HMFiTNGaj3UbqOYLEmaM1Huo3UcwWJM0ZqPdRuo5gsSZozUe6jdRzBYkzRmo91G6jmCxJmjNR7qN1HMFiTNGaj3UbqOYLEmaM1Huo3UcwWPWv2WpNvgzV7P/nlqTt7/NFGOn/Aa+m6+VP2YZdsfiyy4zDeRtj+L5t45H/Af519V1/pN4O1/acNYOX91r7pSX6H878YQ5cyrLzX4pMKKKK/TD5oKKKKACiiigAooooAKKKKACvCfib8LvE2v+J9M+IXgDWItL8RaTCbdFuohJbSxsxyCdrlDhmGQrZ4xtPzV7tXzr4r0b48eGPEmseJfh1e2niLTtT8pl0zUnk3Wzr8p+z5kjQL3P7xc5+6SAT9JwvOpHEOVKrCErNe/blkno4u6as03vp5pngcRxhKgo1KUpxun7nxRtqpKzT0aW2vkUbz4mfFf4feItIt/irpmky6HrMyWq3uktOPInkPyiRZyWIwMkBQMchiQVrkPij8Q7K/+Ieo+G9e8YXfhHw74bhiMg0yUx397eTruVUKBn2ID83ylQfvYyCOrtPAHxX+Jep6Jqnxjk0/TdK0mVbtNK08MzyXCE7fPdmkUAD+5IwI4wCSRa8Y/DPxvo/j68+J/wAMYNIv768gHnWuqREus0a7Fa1lXayM6/KwMiL/AHiQRt+4wVXK6WJiqjgqvJJNwdoc3MrWlJSipcvMuazirq2p8fi6WY1MPJwU3T54u0l7/Lyu90nFtc1vdupPW+hznw68QeNvBvhbxl408Q/2vN4atIhcaVFr8ofUXZVIbeeqIzBcAjHOVzyTyureHfHdx8ItR+LviLxrrdtrV1b/AG6GzsL1rayhjk2+UnlKM8KQTgr6cnLH1208GfFnx3Z31t8VtSsNP0y/sHtv7N0uNmHmTc+ZLJLuIeIgYCMynHBAzu8S+KeifGvwf8IZPCmuajo154dga3s1mhFwNQli80CJWDDyh0UH0A+8TyfRyvEUq2NUaVSkqsqkOa2qcEkuWLcbNtq8rbtrXe3BmNCrSwjdSFR04wny30am3fmaTukto32Sem1/sPwHNd3Pgfw/cX8jzXMun2ryPIxd3dolJZmOSSTySa8D8e+HdG8UftD6Jomtwi6tL3QLqOWMnsWkAIxyCM5B7HBHIr6W0e0FhpFjYLwLaCKMc5+4oHX8K8g1bwT4ivfj5onjmKBf7G0/S5oJJvMXPnOZAE2Z3dHBzjHvnivg8hzCFPF4msp8l4VLa21adkvO+x9pnWClUw1Ck481p079dE1dvy7nMfDnxHqvwy8Rx/Bnx5ceZbsCdA1F+FuIM4Fu56CROgGf9kcbM+HavqWreG9A+NNxot1LZTDXbZFlhZonXfM2/aykEEjg4PSvs34ifDzQfiV4dk0DXFKEHzLe4T/W28wHyuh/mOhHHoR4LofwB8YR/D3xr4W8TaxbXmp+JJ454bpWkYF4cMrTFkDAsw+bAbHXJNfW5Fn2XSUsXXko1JSp88baO1SMnNdNUm5R77aOy+ZznJccuXC0YuUIxqckr6q8JJQfo2lF9t9Vr0/x617XNC+FWlXOjahcWd3c3lhC08UrRylWBLZdSG+bHPPNeb+M9M8d63+0Rf8AhzwjqjaU2paRbLdXiMfMt7NWBkMXIO9mAA2885yOSHeK/CX7SHjfwzD4b1/SdGW00q9tjGYJnW5uFgO0TIzStHswSWDhH9EzgV7lp3gjXLT43ar48kWI6VfaVDbK28+YsyuMrtx0wucn1GOc4eFxeHy3DWVSnKfLV2akrt0+W/fZtJ6aPzJxOGr4/EXcJxhzUt04uyVTm/NJta6ryPnDwp4S+I/iy28awt8Qdaht/Cl1e21lEty4uJZkGVaeXIYphQAvqSV287vp/wCCfiS/8WfC7w/rWqSme8kgMc0jHLO8LtHuY92O3JJ5zWB8NvBniHQPF3xDn1e0FvpmvXwuLN98b+YrBw52oxKjkcMAf1qz8BfCXiPwR4DPh3xNb/Zp4L25aJfMSTMLtlGyhIGeTjOR3x0rzeK80o4rD1YqULxlTcbKK0lB8603tK3NvZ7nocNZdVw9elJxlaUaildyesZrleu143t3R2XjXwU3jSC2t/8AhINW0FbZmbOlXItWkJGMSNsYkDsMgc854xj+D/hkfCGqtqg8WeINaDRtGYNTvhcwfMQdwQxqQwxwQfWtjxr8OPBnxEgtbbxjp39oR2TM8I82WIqzgBuYnQnOBwayvB3wd+G/gDU31jwlo4sbySMwmQzzzHYxBIAldgMkDkDNfL0MzpxwLoe2knr7vs4uO/8APz83/kuh9FWy+csYq3sotae9zyUv/AeW3/k2p6NcTx2tvLdTHEcKs7H0CjJr5T8GeHPFvxpsb74ha14r1rw7a6jNIml2el3Zt4o7aIlFeRQDvZmHJGCcHnBGPqq7tYL60msrld8NwjRuPVXGCPyNfLeiaB+0F8NLSLwJ4Qs9J1zREdhZX9y7RNaRvJuxcRh1ZsAnAjVjznJ+7XdwxUSoVlRqQhWbjZzsly6uVm9L35fNrRX2OPiKDdak6sJSpJSuo3b5tOW6Wtrc3knqw+PGm3+m/D3wZoeqak2q36azYQvdyII2mcBwXZVyB+ZPqSea6/xfretxfHvwPoFnezw2E9nezXECOwimIVtu9AcHaRkE5x2p3jX4b+OPGfhjwfpup6paXWp6NqFte6hOVaFJvKzu8pURuecDIUHrx0HR694C1bVPi14a8fW1xClho9pc280bFhMzTBguwBSpHzc5YY969ajmWGVCFOrUi2o4jZac0laNlZWv9nRW8jzauAxDrTnThJJyoddbRd5Xd3e3XV/M+dfGPxG0/wAReNfEC+I/GOqaBpeh3B07TtN0GYpf31yv+sdggbILDam/C5OAwOd3RWKePLD4B+OJ/HEl+tvLFcnTV1OUPqC2rrhRcOMHcScbWwRyMYwK3NW+G/xK8BeLdd8afCez0bVhrL+e0GoRFbyKWVv3qwzKY/3bH5iHlA7Bc8nW1jwP8Y/Ffg7xZaeMdW0+W71ayEFlp1gjLaRuhD7zLMPM3uQVIJKjOc4wF92pmGB9nh40JwVNOm3d+8uVxulFRvF7uUpN31s7aHi08DjPaV5VoTdRqotF7rupWvJys1soxilbS66nz3caB49sPgzZfGHWPFGo2+paYlodLs4ZTHbQ2wKwAunVmkQ5JBGVOG3A4Hsn7QPhI658NdR8dy65qtu6WNsx0+G626dIxdOXgKnJ+brkcgeld541+H+ta18CG8BWsazatDp9rEiK4VWntth2hmwMEqQCcD1rQ8Z+FfEuu/BK48JW8Ky63NpkEBjMigNMipvG84XOQcHgE9wOa5/9aI1MRh8Tzxi415LSytTbg1/27o9X1u77nR/q5KFCvh+STUqMXrd3qJTT+e2naysHwg8Ejw7oNhrX9v6xqp1Owtm8jULz7RBBuQPiFNq7euO/AxXsVcLpmoaP4A8H6Hp/jDVrTTXt7WC2MlzOkKPLFGAwVpCM9D+FN/4Wp8MP+hv0f/wYW/8A8XXwGZU8VjMROvGLmm3ZpO1ltsj7bL6mGwtCFFyUWktG9fxZznx61jUtC+E3iDU9IuZbO7jijEc0LmORC0qKSrLgg4J6V5l8Zdc8faZ8NPCj6LPqUVtPFC2s3+nxGS8ihSFXZ87lK7juLMWXpgsASD6J4/8A7D+MPgTWvBngfxBpl9qFzHGR5d0kqoFlVsv5O9lBxgHaeareMLP42aDZaRN8N307U49PsUt7mxvAQ0867VEkcmY+gB4aRB1zuJGPpsgqUqEMPTqqCqRqTbVT3Vbkjy3bTtre19L6s+ezunUrSrzpuThKEUnDXXmleyTV9LXtrbY8w+CPhX4XXnio+Pvh54nvNQmt7WVNRtr8FrySS5O/zJXOwfL0JRWUkffJznyr4Y+DvFfj3wLr+o3/AIi1DS/DuiSXktjBZymIz3anzzJKxzuVGC4HXdkqVOS3v/w58BfEe+8c33xR+JEFhpF/e2BsVsrHJP3vvzHdIpOFGMSNxjOMYrqvhJ8PdX8J/C6XwX4i8tbmd71W8tty7J2YKcj1U59s+vFfRZjxNDDuvOFdTnekk3yycUudyUZKKUuW9uZLaVjwsBw9Kv7GM6LhC1VtLmipN8ijdNtxva/LfdXNX4H+INT8T/Cvw/rOszNcXksLJJKxy0hidowzE8liFGT3PNer15D8DPC/iLwZ8NtP8OeJ4hBe2kk42B1kxG0rMnzISOQc4ycfXivXq/MuI/Zf2hiPYNOHPK1trXdreVj9CyH2n1Gh7ZNS5Y3vveyvfzCiiivFPWCiiigAooooAKKKKACiiigAooooA+AvjbKsn7Qdts62+mRhvqRIf/ZhVbzqzfidcC6/aH8RMOVtLWCMEcjPkwkj25Yj8KTzq/Xsspf7NS/wo/PsbP8AfT9WafnUedWZ51HnV3ezObnNPzq8++LGg6r4x+GXinwpoTRrqOrabdWtuZsiPzZY2VdxB6ZNdd51HnVE6CkmmVGrZ3R+U3w50D/gon4N8BaL8IPCPhjRvCWnWL7U1iWayuJ41Z2djKDc3KMpLYOy2ZsYxzzXvWo/Dn9uxvhzYaFY/ErQZPEc93dy6ldzwDZ9nlGIoIT9hcFeWZj5MZUkKp2rz9v+dR51ebSyaMVy88trb7fdY7J5k278q+7/ADPzI+C37NP7a/wYjsfDnhj4geHNP8MC/S6vLVEa5d0Zl87a02n78si4AEqexXrXW+LvhV+1r8Ifi14q+J/wBvbDxdpPjG5W4utH1KQI6y7SAxEskK7YuiNHOrEYVkIUGv0K86jzqI5JTUVGMpK22u3oN5nNy5mlrvpufmsP2aP2nf2gtc0jVf2o/FlpYeF7SY3f/CP6aVLo5b/UOIk8nG0YErS3DqpIByxI/S57aFdNbTLUCGIQmFABwi7doAGegFRedR51dWGy6FK7V23u27tmFfGSqWvol0R87/sq/BbxF8B/Aep+FvE2o22oXN9qlzeobQyGJIpdoQZkVDuIXLDbgHgE9a8d/aL+F/x2sPjp4c/aB+Aej2PiLVLLTn0y5s72dYlVT5hDkPNbqyYcj5ZN27GVI5H3V51HnVE8sg6SpJtJbW30HHHSU3UerZ8S+AviH+35qPjLSLHx98N/DumeHZrhFv7mG5TzIoP4mTbqM53DsBG3PbvXQ/Dj4M+OPDv7XPxI+L+rRJF4d16ztorGRJkYzOUiV1aMHepjMRzuAB3DaTzj6586jzqUMsXu80m7O+tu1uw5Y562ildW0Pnj9pb9m7wv+0J4ZWOV10vxTpYLaZqijDxOORHIV5aJj1HVT8y85Bj/AGSvgx4m+Avwtk8G+L761v8AVJ7+4vJJLOSSSHEoULhpY4mJ+XJyvXua+i/Oo86tP7Op+19ul72xH1yfs/ZX0NPzqPOrM86jzq6/ZmHOafnUedWZ51HnUezDnOe+Icm/wfqCj/pl/wCjVr7++FhB+GXhEg5/4lFh+lulfnz41cv4X1BRz8i/+hCvvf4NOr/CnwoUIYf2dbjg55CAEfga+T4vhahD1/Q97h+X72Xoel0UUV+fn1gUUUUAf//V/fyiiigAooooAK+T/wBp1wbnwbbj78l1OR+BhB/mK+sK+RP2lnL+JPBcDfdR53HrkvF/8SK/JvHGry8L4vz5P/TkT6zgiN80pfP/ANJZwVFM3Ubq/wA5D+huUfRTN1G6gOUfRTN1G6gOUfRTN1G6gOUfRTN1G6gOUfRTN1G6gOUfRTN1G6gOUfRTN1G6gOUfRTN1G6gOUfRTN1G6gOUfRTN1NkkEaNIx4UEn8KBcp6d+zFCXn8Y6j/DcXUKj/gBlb6/x19X182fsu2rR+Ar69cfNdahKQf8AZWOMfzzX0nX+lPg9hPY8NYOH91v/AMCk5fqfznxhV58yrPzt9yS/QKKKK/Sz5oKKKKACiiigAooooAKKKKACiiigAooooAK4b4g+AtM+IuiQ6FqtxPbQw3UN1ugKhiYTnadysMEE9uDg9sHuaK6MJiqlCpGtSdpR1TMMThqdanKlVV4vRoKKKK5zcKKKKACiiigAooooAKKKKACiiigAooooAKKKKACiiigDF1rw34d8SQx2/iLS7XVIoW3ol1Ak6q2MZAcEA47iud/4VX8MP+hQ0f8A8F9v/wDEV3lFdlHMcRTjy06kkuybRy1cDQqS5pwTfmkzndF8H+EvDc0lx4d0Sx0uWZdrva20UDMoOcMUUEjPY10VFFYVq86kuapJt93qbUqMIR5YJJeQVynimfxrbJbzeDrWxvdpb7RDeSyQMw42+U6K4B653LjpzXV0VNOXK72uVON1a55L/wALL1vS/l8WeCtVsAOstmqalAB3JMDeYB9Y62NI+K/w51yb7LZa/bJc9PIuGNtNn08uYI+fwr0KsfV/DugeIIfs+vabbajHjG24hSUD6bwa6faUZfFC3o/0d/zMeSotpX9V/l/ka6srqHQgqwyCOQQaWvJm+DPhG1YyeGZ9Q8NSHknTLyWFP+/TF4vw2Un/AAjvxa0bnRvFVrrUY4EWrWYRsf8AXe1Kc+5jP40ewpv4J/erfldfiHtZr4o/c7/5HrVFeS/8Jr8QtI48S+CJrmNeGn0i6iuwfcQy+TLj6A/0qxa/Gb4fSTrZ6rfvod0xx5OqQS2LA+mZlVPyY0ngav2Vf01/IFiodXb10/M9SoqpZX9jqUC3WnXEd1C3SSJw6n6FSRVuuVq2jOhMKKKKQBRRRQAUUUUAfmv8RAbX4/8Ai6J/vOkLjHo0MLD9CKh8/wB60PjbH9j+P2pyjA+12UDcd8RIvPr9z+Vcz59ftWUrmwtJ/wB1fkfm2Pdq815v8zW8/wB6PP8Aesnz6PPr0PZnJzmt5/vR5/vWT59Hn0ezDnNbz/ejz/esnz6PPo9mHOa3n+9Hn+9ZPn0efR7MOc1vP96PP96yfPo8+j2Yc5ref70ef71k+fR59Hsw5zW8/wB6PP8Aesnz6PPo9mHOa3n+9Hn+9ZPn0efR7MOc1vP96PP96yfPo8+j2Yc5ref70ef71k+fR59Hsw5yl4tuMeHL7vlAPzYCv0A+CcH2f4TeFY927NhE+cY++N2Pwzivzn8Xzn/hHrsZwTsH/j4r9LfhbD9n+GfhOLZsI0mxypGCGMCE5Hrmvi+NNKMF5/ofScN61JPyO8ooor85PsAooooA/9b9/KKKKACiiigAr45/aL/5H3wr/wBcZP8A0Ovsavjn9ov/AJH3wr/1xk/9Dr8a8fP+SYxHrD/0pH2XAX/Izp+j/JnDZNGTTc0Zr/PA/oTlHZNGTTc0ZoDlHZNGTTc0ZoDlHZNGTTc0ZoDlHZNGTTc0ZoDlHZNGTTc0ZoDlHZNGTTc0ZoDlHZNGTTc0ZoDlHZNGTTc0ZoDlHZNGTTc0ZoDlHZNVL99ljcsegjc/oas5qlqZ/wCJdd/9cn/9BNNbg4n0t+zfE0fwts3JyJbi4YfTft/pXvFeH/s6/wDJKdN/663P/o1q9wr/AFA8OopZBgUv+fUP/SUfzFxE74+v/if5hRRRX2Z4wUUUUAFFFFABRRRQAUUUUAFFFFABRRRQAUUUUAFFFFABRRRQAUUUUAFFFFABRRRQAUUUUAFFFFABRRRQAUUUUAFFFFABRRRQAUUUUAFFFFABRRRQAVXurS1voGtr2FLiF/vJIodT9QcirFFNMGjy+9+DXw6uZ2vbLShpF23Pn6bLJYyA+v7hkBP1Bqp/wgvjrSOfDHji6eMciHVreK+U+3mL5UoH/Aj+Net0V1LHVdm7+uv53Od4WHRW9NPyPJf7d+MGj8ar4asNdjHJk0u8MD4/643SgZ9hKaB8ZfDFkdniqy1Lw03rqFlIsWfaaISRY999etUhAIweQaft6b+OH3O353X4B7Ka+GX36/5fmYei+KPDXiSPzvD+q2upJjObeZJcfXaTj8a3a4LWvhd8PPEEn2jVPD9o1xnPnRx+RNn182La/wCtYX/CsNS0v5vCPjHV9L2/diuJF1G3A9NlyrOB9HFHs6Mvhk16r9V/kHPUW8b+j/z/AMzwv9ojwV4T+IHx0+EfhnxppcGsaXNp/id2guF3JvjGnsrDuCD3B9R0Jq5/wyT+zd/0T/Tf++H/APiqzvF1r42s/wBpH4UQeML+y1FF03xP9nmtYHt5G+Sx3+ajPIufu7dp9c9q+m6/mzxYzLE4fNFToVpJci+GTS3foe7l0Yzp3lH7z51/4ZJ/Zu/6J/pv/fD/APxVH/DJP7N3/RP9N/74f/4qui+NPjz4ieDdL0jT/hX4QbxZ4j8QXi2cHnNJDptiu0s91fzxJI0cKAYAC7nYgD1rwOz+M/7Sfwx+KfgnwT+0DpPhbUNF+IV7LpthqHhh72KS0vEiaZUuIb0vvRlQgOjDHdR3+Gw2JzSrT54YmWzaXtHdpb2V/wDh+lzrlGmnbl/A9a/4ZJ/Zu/6J/pv/AHw//wAVR/wyT+zd/wBE/wBN/wC+H/8Aiq4LxX8aPjb43+KPiL4V/s3aPoLnwUIE1rWvEktybNLu5TzEtLeCzxK8gjIZ2Z1Vc4wT1bJ+0t43+Hvwm8W+LPjn4Gk0fxL4SvItOit7B3ew124uiq2jabPMqkpK7hWDAtGc5z0rRTzdqNsRJydvd9o+b3ttL9br79bCtT7fgd//AMMk/s3f9E/03/vh/wD4qj/hkn9m7/on+m/98P8A/FV5dD8Rv20fCNxpHij4ieA/DuteGdTureC603wzLfT63pcdywUTP5y+TcrDnMojVMDJBIGa1fFXxo+Nfjn4m+Ivhd+zbo+hOfBXkR63rfiSS5+xJd3CCVbO3t7PEskioQzuzqq5xyer9pmt9MU2rXb9o7KzS1d+7XrfS4Wp/wAv4Hef8Mk/s3f9E/03/vh//iqP+GSf2bv+if6b/wB8P/8AFV5/oP7RvjhfCnxR0Hx7oNjovxL+GGmPqE1vbzSXWmXsMkDy211AT5c3kyMhVkbDqQRu715r4c+Pv7Yni/4WaX8evD/gLw0fCp05L+bR7m5u4tcv4UjDTTWrLvt4A2GaGKQyMUxuYE4rSKzd3viWkmld1Gk21dWd9brZ7d7A1T/l/A+gbr9lX9mOxjWa98DaTbxs6RhpAUBeRgqKCXHLMQAOpJwKs/8ADJP7N3/RP9N/74f/AOKr5K/aj8e/ED4reDfgN8Rvgnc6Ivh7xF4h0i8tf7YiumnGoS7jbCQQOqiBPnWZfv7sbSMHP6SeGx4jGgacPF5tG1vyI/tpsRILU3G0eZ5IlJcR7s7dxJx1rnxuMzGhRp1JYqV5NprmldWdtdRxhBtrlPEP+GSf2bv+if6b/wB8P/8AFVxviX4E/sh+EtY0Lw9rfgzTY9T8S3DW2n2scE0007opdyEj3FY0UZeRsIoxuYZFfXlfGfwe/wCLkftN/Fj4lanmWLwTLb+ENHVwCsKpEl1fSR+hllkVWOeQgHascDm2NqRqVJ4ifLBX+J7tpJb93r5JjlSgrJRR598TfDf7HXwt8XR+B9S+Et/ruryWI1JotD0S81Xy7Uu0fmSfZtxQblIywA96557r9hAaL4Q1m3+HVzff8JzZ3N/pdrY6FqF/dyW1nIsc0jwWqyugVnX7wHUVoftIa1r3h74r/ErVvDEMk2pQ/C5xF5SGRo/MvpEaXavzMIlJchfmIXA5rF1qHWPBXxm/Z5074DaTpvimKx8C6zBZRXOoNp1rJZj+zh5yzx29yckAEL5fOTyMV9RhqtadKm5Vql2m/wCI0tIOXXRa2/EwlFXei+41tOg/Yivtf0bw5dfCvVdHudeu47Gzk1Twvq+n28lzLkpH59zDHGCQCeW7V0nxG8P/ALAPwl8RR+E/iDoml6Vq0tut0tv9ivZ2MDsVV8wJIuCVI654rK+MPiP48ar4q+EVt8SfA+i+HdKHjXTWW50/XpdSmMojm2p5L6fbAKRnLb+MdDnj1f48eHPEmg+NrD4l/D2XxBa61qFidLu30DSbLVXe3hk86MTC+lRYwGY7dgyec9q5Xi6vPSU8RNKSe1W6unp7yTt9zK5FZ2ivuPlHxB8TP+CdmkeIfD2mab4Ss9W03VppYb2+hsL9RpwSMvHJJE8IZ0dhsyhJUkEjFde3i3/gmSg3SW2lovq2mamAM+pMGBXm/wAJPGvx9ZPGn2TVvHz48Q6gJPs/hnRrnEnyZEnnTDyn/vRp8i/w9aT4Hr8VviZ8KdE8C+JdS8aXXhvXZJbW7D+H9LksGhe6cOJLwzC5Cf32A3LyF4Ar269Jwi3LETSjZO1WV3e7v8G/RJaPy65Kz+yvu/4J9ieIPgb+x/4WvtAsNf8ABum2beJ5xa6fI9vP5Etwy70iaYZjjdwPkDspc8Lk8V23/DJP7N3/AET/AE3/AL4f/wCKro/jz8OLD4j/AAY8S+CWXypGsXksZV+/b3lqPNtZo2PIeOVFYH2o/Z2+IV18Vvgb4I+IV+pW91rS7eW5B4IuAuybI7fvFavh55tjXhlXhiJ6Oz959dU9+tn93np1eyhe3KjnP+GSf2bv+if6b/3w/wD8VR/wyT+zd/0T/Tf++H/+Kr6Korz/APWDH/8AQRP/AMCl/mX7GHZHxV8aP2YPgBoHwd8d69o3gfT7TUNN0HVLm2mRW3xTQ2sjxuvzdVYAivsH4LOZPg54EkPBfQdLP52sdeb/ALQH/JB/iR/2LWsf+kctd78CZ/tHwV8CnGDHolhEQDnDRQJGf1Wv3rwizCtXwlf29RyfMrXbbtbpc8jMKaU1ZdD1eiiiv1o4gooooA//1/38ooooAKKKKACvjP8AaHdn+JHhuA/dS0Zx65Lv/wDEivsyvjD9oT/kp3h3/ryP/oclfiv0gG1wzW/xQ/M+08P1/wAKcPR/kcTuo3Uyiv8APE/oflH7qN1MooDlH7qN1MooDlH7qN1MooDlH7qN1MooDlH7qN1MooDlH7qN1MooDlH7qN1MooDlH7qN1MooDlH7qN1MooDlH7qgul821mi/voy/mCKkooQuU+h/2aLv7T8M0hzn7LeTx/TO2T/2evoGvl79lufb4b13TO1vqG/HpvjVenX+CvqGv9N/CnFe24dwU/7iX/gN4/ofzLxVS5MxrLzv9+oUUUV+gnz4UUUUAFFFFABRRRQAUUUUAFFFFABRRRQAUUUUAFFFFABRRRQAUUUUAFFFFABRRRQAUUUUAFFFFABRRRQAUUUUAFFFFABRRRQAUUUUAFFFFABRRRQAUUUUAFFFFABRVa7vLSwt3u76dLaCMZaSRgiKPcnAFedyfE7TtQdrbwXp914mmB277VNlqrf7VzJtj/753fSvMx+c4XDNRrTSk9lvJ+kVeT+SZ00MHVq6wjp36L1ey+Z6bWJrniXw/wCGrf7Vr+oQWEZ6ea4Ut7KvVj7AE1xQ0f4keIudc1eHw9aN1t9MXzbgj0a5lGFP+5GPrW5ofw98J6Bcf2ha2QuNQPLXl0zXNyx9fNkLMPwwPavP/tHG1/8AdqPIv5qmnzUFeT9JODOj6tQp/wAWd32j/m9Pu5j5l8Z+KrXxR+0j8J5dPs7uG0h03xP5dxcwNAk+5bHJiD4chcckqOoxnnH0tXzh+0J4n0rwP8bfhP4u8QrdJpNpY+JYZp7azub3y5J1sRGGS1jlcbtpwduODVn/AIan+C3/AEENU/8ABBrH/wAh1+KeI/D+ZVsdCUacqvuK8owdr3lppe1u12+7OnDV6VnbRdmzxj9tjxz4q8H/APCB29xreseEPhtqeoTx+Kde0GORr6yhWLNuvmxRySQRSScPKilhgAYr411T/hRt78cfgT4z+DbeJfE+nw+KYYdQ8Xa5d6rdWjtNbyLBawy6mwV3djuJgTaMAFskCv0oX9rP4FvK8CavqDSR/eUaFq5ZfqPseRUv/DVnwR/6Cepf+CDWP/kOvGy2OYYeiqccFUulJOykk+a695ct21fTW2i0Lnyt35kfNuj/ABI8Nfsk/HL4sn42NcaJ4Y+ImqW+vaProtJ7ixkdrdIJrSSSBJPLmRkyoYDcDwegrK+LGs/Fn9p34LeKfFvhPws40Hw14i0jWPCtvJbzWupa3aaTKk9zIYpyCBKQwtxsQsAM9RX1P/w1Z8Ef+gnqX/gg1j/5Do/4as+CP/QT1L/wQax/8h1lHD4+M44hYGftFy6uMre7bZcqs2lZu762S6P3bW5tDxzUP22vDfjyDTPCP7O1pP4k+ImpXdrBPpd9pt9AmkQs6/apdRZkiEQhj3Y/efM2NuRXyf46+Ff7O3w0/aC+JWs/teaLqMWieMr6LV9C8RQ3Orw6dtkiVJ7OY6bMqpMki5XzFyVPDYwK/RP/AIas+CP/AEE9S/8ABBrH/wAh0f8ADVnwR/6Cepf+CDWP/kOrwdHHYZtYbBVYxkrO3Mpbp6SUFa1tuV6N3v0UuV7yR8X/AA98K/BOL4YfHLxp8C/hzqXhzw5P4bu7K28Ranf6lK2txpbySN9ntdSZ3SGNzgS8bz0HXGx8Mf2y/AOi/s3+GPAuo6Xqo+JJ8O29nZeGotNupLnUJTbrHBJbSLGYXglyreb5m1QSGwwIr3z4pftCfCHxv8NfFXg3StXvor3XNMvLKB59C1lYlkuIWjUuVsWYKCeSFJx0Bql8HPj38JPh78KPCPgXWtYvZr/QNLtLKd7fQtaaFpIIlRihexRipI4JUHHYV1VcJiqtGU8RhKsnzJpPnbso21bi7p9bJeVkJNJ6SR4F428F6h+zz+yf8BbLxwriL4feINDvNdmt43uFs4w0jTOwjVmKRNJtLAGv0w8KeKfD/jjw1pnjDwpepqOj6xbx3VpcoGCywyjcjgMAQCPUA14r/wANWfBH/oJ6l/4INY/+Q6P+GrPgj/0E9S/8EGsf/IdeJmGW5liYLnwlTn5pO/LK3vO+3L363+RpCUFtJH0VXxp+zdK/h74z/Hr4eakQl6viKHXrZSQGksdVtY9kgHcCWKRM+oxXoP8Aw1Z8Ef8AoJ6l/wCCDWP/AJDrxrxR8UvgjqfxU8O/F/w14m1LRtb0qGTT79T4b1iWHUtLlO828qi2Ta8cmHil52HcNpDEVngMhx8YVaVTDTSkt+SWjTTXTra3zHOpG6aZX+J3xAsPhz+1XqOt6n4f1jxJbTeB4bdrXRbCTUrk+ZfyYzBFlyp6FsEDPzYHNfN3gb4e/Fu28a/s9+EdO1mX4b+IYfC3iyWP7RYQ301pZPe2jw2klvM2xXWJkU8/JjAFfXifGT9nhPinL8Whretf2rLpKaMYf7C1X7P5CTmcOB9h379xxndjHbPNeGa54M/YI8ReJbjxfqyeKJNXuJJ5DOjeMIihuX3yrGI9ojRmx8iBV4AAwBX0mAoYmnBQlhai921/ZuWvLKOzsrLmv1v5GM7N3uvvOi+LngP40+GvFvwi1Dx/8Uv+Ey00+NdNQWX9iWmnYkMc22TzYGLcYI29Dmuw/aE8F3nxB8d3Xh/wV8NNQ1XxJ9jiMviPUNRvdP0G1iIOzZHa3UbXc68/uo0TnHmSKK8duvhz/wAE/b4wm+TxXcG3kEsXmT+M38uRejrknDDJwRzXsPijxl+yX4w03RNI1rUPFC23h63+y2Ysl8W6ewiwoxK1mIWmOEGGlLsOcHk5zlhcVGVKUKFW8U1pScN3daQkr+abXnfYd1rqvvPjJ/B2h/CuT4ceEZfgp45vrvxJrM8OrXOp6lBFdarI1ncXDraJaa2IY5d8asPMwoiVl3M+M934e+A2q/Du0u/ENv8ABnxF4m8D3F1M6aPNrctp4n0lSd5EUVtqMlpe25JPlgSpOOjButen3nh39hTUbizu9Ql8YXU+nSma1klvfHLvBKUaMvEzSkoxRmXK4OCR0JrptCv/ANjjw3rNlr2l6j4x+12EqzRfaLrxtdRb0ORvhneSKQZ6q6Mp7ivTr4nGyj7tCtd7+5PV3b6VNN+n5aEKMe6/D/I+uvGHi3SfBfwb1bxnqkEuj6fpGiy3TwXbKJbdI4CwjlId13rwp+due561wP7IfhnVvCP7NHw70TXU8rUV0mGe4Tptkuczlce2/FeRfGD4rfBX4wWWj+GNV8UanZ+F4b2K71ayj8OayZNSjtyJIrYy/Zh5cJkAaUbWLgbcqCc+wJ+1T8D40WOPUtSVVAAA0DWAAB0A/wBDr46eRY9YX2UcNO8pcz9yWlk0lt5tv5eZ0KpHmvc+jKK+df8Ahqz4I/8AQT1L/wAEGsf/ACHR/wANWfBH/oJ6l/4INY/+Q68v/VnMv+gaf/gEv8i/aw7nXftAf8kH+JH/AGLWsf8ApHLXZ/s/FW+C3g8qcj7BGOPUZzXyv8Yv2kfhJ4l+EXjjw5ot9qVxqGq6HqdpbRnQ9VjDzT2skcal3tFRcsQMsQB1JAr6g/Z1/wCSJeEf+vMf+htX7H4U4DEYecoYim4NqT1TX8nc48a06bafVfqe00UUV+2njhRRRQB//9D9/KKKKACiiigAr4z/AGi4xH8QfDNyOr2zp7cO3/xVfZlfIf7TaeXr/gy4zne9wmPTDQ8/+PfpX4749UebhfEvs4P/AMniv1PseAp2zSku9/yZ5juo3VFn3oz71/nSf0dYl3VyXirx/wCBfAyW8njbxHpvh5LssITqN5DaCQr94IZmXcRkZx0rfvZbmKzuJbNBLcJG7RoTgM4BKgntk8V+Dfgrxd8BfEfxG8R6h+25a69N4xurqWNluVnisNOhjAMcWy0kW7DA5VQIzGFI46tX6LwFwMs3VevNzcKSTcacVOpK97csW1orau/ZJXZ85n+efU3ThFK876ydoq3d2fy+/oftbqHxd+GWneB734lSeJrC48L2AYzahaTrdwAqdpVTb+ZvfJA2qC2eMZrstG1vSvEWk2evaFdx32nahEk9vPEwaOWKQblZSOoINfG3wW8B/sc+PvAXi7wp8EEt7rSNejW31aFZrw3K4DCJzHfMZo8EkxuFClhkElePBPgz8bLn9lOLxz8BvjJebf8AhEYJtQ8Ozysf9NtnyUgjyBksSCig8EuoHyV2S4Dp4mOJo5eqn1ilJfu6kVGbpysr8qbfNGT97W3K1LTUyWfSpOlPEcvs5p+9F3SkvPTRrbzTR+kOkfEjwPr/AIv1nwDo+sQ3XiDQEje+tEJ3wLKMrkkbT2yFJK5G7GRVnxV4/wDAvgZLeTxt4j03w8l2WEJ1G8htBIV+8EMzLuIyM46V8X/sQeBtasfh5r3xx8RQC58W/ESefUNznGYNzNEgPJVZHJbGThSvpivgrwV4u+AviP4jeI9Q/bctdem8Y3V1LGy3KzxWGnQxgGOLZaSLdhgcqoEZjCkcdWr2cB4YYbEY/GUaNSc6eGUVJU4qdSc7WlyRvFcqknq+llq2cVfiepToUZzjGMqt2uZtRS6cz11atp69j91PDvirwz4w0wa14S1ez1vT2ZkFzY3EdzCWThlEkRZcjuM8Vvbq+Tf2Xrb9liLT9Zuv2aJbcxzvGNQRZrxpwU3eWXivmMqKcttYKFYg4JIOPq3PvX5dxDl8MJjKmHpxmkntUjyTWn2o3dn89VrpsfUZdXdWjGpJxbf8rvH5OyJd1cZ4q+JPw88DTW9v428UaX4elu1ZoU1G+gtGkVThigmdSwBIyR0rS8T3mrWPhvVb3QIBd6nb2s8lrCekk6oTGvHq2BX4U/CrxN+zDr3iHWr39sWLX7zxzfXEzXk+oC6SytWjchYUSykF2rkHBV49iBQqhQPm+w4D4EWbUq+KqObhSteNKKnUk3faLa0VtX8krs8fPs9+qTp0oqKcr6ydoq3d2ev/AA5+5Y8e+DZPCVx47tNZtb3w9awy3D31pKtzB5UIJdlaHeG24OQuTkY618ceKf8Ago7+zf4fuYYNJm1bxKkqFml0+x8tIznG1hevbNnv8qke+an8Ix/s16d+zn8R779nB4W0e40+9e8SOa6kmEy27ovmR3rGaPIHyghQRyM9a+RP2aP2sf2dPgD8LtI0bUtBvb7xVdRznUrzTtPtjKQ07tHDNPNJA8gVSCoG9QMDOQRX1vDfh5hK1PFVlhK9eVOooRp6UpWcW26itPlta2j1utNbHk5lxDVhKlD21OClFty1ktGl7uqvf0P0J8Ifth/Abxh8P9S+JEWuyaZpeimFdQjvLeVbi1e4YrEjRxCQSFiOPJMg9+tfRGha9o/ifRrLxD4fu47/AE3UYknt54m3JJG4yrA+4/LvX5f/ABh8Y/B34s/sY+N/Ffwf8MjwrYjUbX7TEdOgsXluIZ4mLt9nLI5KtjeGYjkHniqP7L/xG8Sfs16zoPwg+Lt8reEPG1nDqPh3U3JWKCW4VWe3cscIu5gCOiuQc7XyObMvDOhWwFfF4GM4VoVJR9jNpycYxjKVrJXlHmbt1j5pt6YbiacK9OlXcZQlFPnjdK7bSvd6J2t6+p+lev8AxL8DeF/FeheCNf1aOy1vxL5o0+2dXJn8kZfDBSq4zxuIyeBk8V5zpn7VX7O2q6xqmgxeP9LtbzR5DFcC9m+wx7wzKRFLciOObBU5MTMBxngjPzN+1/H5fx9+Aeo2gIuxqzxB15PltLDkY7jr+taX7Vf7LPwLT4W+OfiVpHhG3sPEtnYSXcc9pJPbxrJFhmf7PE4gyQDuJj5PJ55rzMo4TyV0sC8fOqpYlaOHI1GaquGqdvdtbZ3Tu9VodWMzXGqVf2EYtUnre+q5U9Ldb36WPqj/AIaE+An/AEUnw1/4ObL/AOO16xb3Vvd28d1ayrNBMoeORGDI6MMqykcEEcgjrX5tfs6fshfs3fEH4I+D/GPibwiL3VtTsVkuphf38XmShmVm2JcKgzjooA9BX6OWNnaaZZQadYRLBbWsaxRRoMKiINqqB6ADFfMcZZblWDrywuXzqSnCUoy54xS0dvd5ZNvW+6XQ9TJsRiq1NVcRGKUkmuVt797pfhcv7qN1RZ96M+9fGHs2PXv2X3UTeMID99LmAkexMoH8jX1jXyJ+zGzDW/GsaruVpLYlvQhp+Pxyfyr67r/SDwOqc3C2D/7f/wDTkj+bOOI2zSt8v/SUFFFFfrB8mFFFFABRRRQAUUUUAFFFFABRRRQAUUUUAFFFFABRRRQAUUUUAFFFFABRRRQAUUUUAFFFFABRRRQAUUUUAFFFFABRRRQAUUUUAFFFFABRRRQAUUVyviDxt4V8MMsWtajHDcP9yBcyTv6bYkDOc+wrmxeNo4eDq15qMV1bSX3s1pUZ1JcsE2/I6qjpya8v/wCEn8deIPl8K+H/AOzrdul3rDGL8Vto8yn23FKUfDeTWP3njvW7rXc9bZT9ksv+/MRBb/gbNXi/27UraYKjKf8Ael7kPva5mvOMZLzOz6jGH8eaXktX+Gi+bRoan8TPCljdNptjNJrOor/y66dGbqUf72z5U/4Gy1nfaPij4j/49re18KWjfxzkXt4R6iNcQofqz49K9A0zSNL0W1Wx0ezisrdekcKLGv5KBWhR/ZeLr/73XaX8tP3V85azfrFw9A+tUYfwoXfeWv4bffc84tPhf4da4S/8RvP4kvUORJqMnnIp/wBiHAiQemE49a9EjjjhjWKJQiIMKqjAAHYAU+ivTwGVYbCprD01G+76vzb3b822zmr4qpV/iSv+nounyCiiivQOcKKKKAPnXQf+SneK/wDeH8xXp2RXl+h8fE7xUp4JIOPbIr0yvxHBy1q/45/+lM+yq/Z9F+SJMijIqOiuzmMSTIoyKjoo5gJMijIqOijmAkyKMio6KOYCTIoyKjoo5gJMijIqOijmAkyKMio6KOYCTIoyKjoo5gJMijIqOijmAkyKMio6KOYDnfGUgj8Kas2dubeQf99DGPxzXRfCyPyvAGjqV25jdsf70jHP45zXH+P5DH4P1Nh3jA/76YD+td98PIvJ8EaIgOc2sbf99Dd/WvS4W1zST7U/zkv8jnzP/dl/i/Q7Kiiiv1A+bCiiigD/0f38ooooAKKKKACvjv8AaVkD+LfCVuPvIkzn0wXX/wCJNfYlfGP7Ru8fEHw15n+q+ytt/wB7e2f6V+NePlRx4YxCXVw/9KTPs+AY3zSn8/yZ51k0ZNNyKMiv86uY/pGx5p8ZfFfi7wR8MPEXizwLpK63rmmWrTW1oyvIrspGSUjKu4VcsVUgnGAa+ObL/goN+zt4m+GJn+IdpPJqdzCsN/oH2E3azsQBII2k/wBGeEkkgSyK20crng/ojkVxVx8Nvhzd+JF8Z3fhXSpvEEbq66i9jA14roMKwnKeYCAMA7sgV9pw7nGUUqLpZjhpSkpc0Zwnyy2+F3jJcvW6tJdDxcywWMnPmw1VJNWalG69VqtfJ6M/Ob9jzQdQ8b/H/wAU/Hnwb4RPgb4e3tm9nZ2qoIYbptyKrRRoFj48su/lgorEqGJyS/8Aax0LTv2g/wBpXwR8CtG00G70iP7XrGpqDvhsZCHaLII4CgEE/wAcigd6/UvIrLj0TRItYm8QxafbpqtxClvJdrEguHhjJZI2lA3lFYkhScAkkCvo14oyWbyzeNHllGn7OkuZvl93li5Ses2k23fd26I8x8Kr6msG53TlzSdt9btJfZu7eiPOfijrPiD4X/B7V9U+GWiJqeoeH7ACwsNjum2EBQPLjKuwRMnapBOMA18kWX/BQb9nbxN8MTP8Q7SeTU7mFYb/AED7CbtZ2IAkEbSf6M8JJJAlkVto5XPB/RHIrirj4bfDm78SL4zu/CulTeII3V11F7GBrxXQYVhOU8wEAYB3ZAr57h/Ospp0pQzPDSnPm5lOE+WX+F3Ulyt63VpJ7HpZjgcZKalhaiirWalG69VZrXpbZn5zfseaDqHjf4/+Kfjz4N8InwN8Pb2zezs7VUEMN025FVoo0Cx8eWXfywUViVDE5J/VDJrzz4k+HvHfifw+unfDvxf/AMIVqazK5vv7Ph1LMQB3R+TOVUbjg7s5GPevBv8AhTv7Vf8A0cP/AOWlpv8A8cr1c/zGhn1dY2riadBJKEYS9tKSjFWV5RpT5m+7d/JHJl+GqYCn7CFKVS7bclyJXe9k5K3pY9U/aB8feNPhl8KdZ8beAtFTXtV0wRv9nkDsgh3jzZGWMq7BEySARjr0Br5Y1H9v/wDZi8S/DlZfGNjdancXoVLvw9Lpy3TEhuSTMRaPGCNy5l3YwdobIH0V8Pfh18ePDniWLVPHvxf/AOEw0hEdX0//AIR+y0/e7DCt58LlxtPOAOe9emJ8NPhvF4mPjWLwppKeIS5lOpCxgF75jKVLfaNnmbipIJ3Zxx0qMBjciwUFQxcPbyi+eNSjOcP+3Je0pp2TV+aKTV9GysRQx9eXtKL9mmrOM0pf9vLlk11tZs/KH4Q+A/FPjLwr8efix4c8Knwf4Q8Y6DdwaRpoTy45cIWVokVVGxQD8yrt3MVXODXdfstftBfsgfDD4Y+HG8RXGnaL43traSG+uo9HuZLxt8jEh7qG1YsGXbxvI6DtX6t5FeVXfwJ+B99dTX198PPDtxc3DtJLLJpNm7u7klmZjESWJ5JPJNfR4rxQweY06+HzOjUjTlKDiqU0mlCHIoyc1Ln0s23q2eZS4Wr4aVOphZxckmnzR0u3zXSTVtenY+Tv2rfi/wCBvin+yF4q8VfDfVE1jTTd2do8vlTQlX+0xbgUmSNwQGBBIwfevYH+DPhf45/s0+FvBPjS18mRtHsntrgANPZXIgULLGTjnsy9GUlT1r3a2+HvgCx8NTeDLLwzplv4fuCxl06OzgSzcsctugCCM5IBOV5NdbGkcSLFEoREAVVAwAB0AA6Cvka3GNOhhaeFyyMoOnWlUjJtOSTjFJOySuuV30trY9iGTSqVZVcU1LmgotJaaNt7t9z8Rn/4XdoH7QPwi+C3xcT+0ZfCWrqdK1P5ib2wdl2ne33wgTAJ+dfutkgGv1i+Ptn/AGl8EvHViYmn87Rr5di5Jb9y3Axz+VetZFGRW/EniC8xr4PELDqm6O6i7KUudzbSt7t29lez+4zyzh36vTrU/aOSn33StZLzsfK/7E/2gfsy+CxPC0J8ibaGBG5TPIVYZA4I5FfVWTTcijIr5HPs1+u46vjOXl9pKUrXvbmbdr21tc9jAYT2FCFG9+VJX9FYdk0ZNNyKiuHMcEjjqqk/kK8q512Pc/2W7bdpHiPV8f8AH1erHn18tS3/ALU9a+p6+ev2ZbZIPhqZV63F7O7fUBE/kor6Fr/TXwmwio8OYKC/kv8A+BNy/U/lziyrz5jWl52+7QKKKK/RD54KKKKACiiigAooooAKKKKACiiigAooooAKKKKACiiigAooooAKKKKACiiigAooooAKKKKACiiigAooooAKKKKACiiigAooooAKKa5cKSgBbsCcD88GuF1TSPHWszGKPW4dEsieRaQedcsPTzpjtX6iLPvXFjsXKlG8KcpvsrfnJpfib0KSm/ekorzv+ib/AAOo1fXNG0C1N7rd9DYwD+OaRUBx2GTyfYc1wf8AwsS91r5PAug3WrqeBdzj7FZ/UPKN7j/cQ59a1dJ+G/hPSroalLbNqeo97u/c3U+fUNJkL/wALXd15PsMyxH8SapR7R96X/gUlyrzXI/KR1c+Gp/DFzfnovuTv+K9Dy//AIRLxnr/AM3i7xE1rA3Wz0hTbpj0a4fMzD1xsrqtA8G+F/C6n+wtNitZH+9KBumfP96Vsu34sa6aiunCcP4WjNVuXmn/ADSblL5OV7LyVl5GdXMKs48l7R7LRfct/nqFFFFe0cQUUUUAFFFFABRRRQAUUUUAfPFwPsHxn1NOi31ojAe4WPn/AMdNei7q4Hxsot/i7oU6dZ7RkYev+tGf1H5V3lfidSPJisTDtOX42f6n2MXelTf91fhoO3UbqbRVcwh26jdTaKOYB26jdTaKOYB26jdTaKOYB26jdTaKOYB26jdTaKOYB26jdTaKOYB26jdTaKOYB26jdTaKOYB26jdTaKOYDg/idME8G3qcfvGiX/yIp/pXsPhSLyPC2jwHP7uzt1568RqK8P8AiuzDwphRkGeMH2HJ/nX0DpixpptosRyghjCn1G0Yr3eC1fH15doxX3uTOLN3ahBeb/QvUUUV+mnzgUUUUAf/0v38ooooAKKKKACvkn9qC28u78I6qvSOaeJj/vGJh/I19bV8w/tTrH/wh2juP9cNRUIe2DFJn36gV+YeM2GVXhnGRfZP7pRf6H0/BlVwzOi13f4pngmfejPvTKK/zSP6isPz70Z96ZRQFh+fejPvTKKAsPz70Z96ZRQFh+fejPvTKKAsPz70Z96ZRQFh+fejPvTKKAsPz70Z96ZRQFh+fejPvTKKAsPz70Z96ZRQFh+feo5sNDIp5BU/ypaZJ/q3z6GmgcT6Y/Zkkd/hqyschL6cD2G1D/MmvoevnP8AZg3/APCuJ92Mf2hNtx6bI+v45r6Mr/T/AML3fh7Bf4EfynxOv+FCv/iYUUUV94eEFFFFABRRRQAUUUUAFFFFABRRRQAUUUUAFFFFABRRRQBk61ruj+HbFtS1u7Szt043Oep64UDlj7AE1yuj/FLwFr2oRaVperLLdTnCI0Use4+gMiKM+gzk9q4f4k6RrqeMdJ8VHR38R6PYR7GtIzuZJWJ+fysNu6g8A/d5IGDXU6Z8T/Duqa9baDqOn3ukX8vzW41C3EJdmyuE+ZiCRkAnAPIzng/C1eJKyx0sPUnGlFSSSnGTc0+qlzRir7L4tVr2Ps6fD9L6nGvCEqknFtuMopQt0cbSk7bv4dNu503hzxho/iibULbTjIk+mTtBNHKuxwVOAwGT8pwcZ545Ap2s+LtJ0PV9K0O78x7vV5DHCsahtuP4n5BC9sgH8ga8v8ewHwL4v074j2CstpcsLXU1QcFG+7IQO/Hp1A7mjwLt8bfEDWfHsn7yysP9CsD1GB951/Dn/gVYf6y4pVllsrfWOdLbR0/i57f4Vy7/ABG3+r+GdJ5gr+w5G99ef4eS/wDifN/hPQ/Dvj3QfE2saloVgZI7zS3ZJFlAXeFbaWTDHKg+uDyOK2vEWu2nhnRbrXb9JJLe0UM6xAM5BIXgEgd/Wvl+y8N61J4k8WeLPDTk6voWps6RDOJ4mLmSMjuSOg78jqRXtV34k0zxz8NNW1LTuj2c4kiYjfFKqElG9x2Pcc1lknFeJr4atCulGslNwdtJKLavbvFq0l2s+prnHDWHo4ilOg3Kk3BTXWLkk7X7STun6rod/pOqWmt6Za6vYMWt7uNZEJ4OGGcH3HQ1o15x8I5Gk+HOiM3JETj8FkYD9BSfEP4h6Z4N0e6a3u7Z9YUL5Nq5LsSxBy6IQwXbk5OB719LRz+lDLaeYYqSinBSfzjey8+yPnauSVJ5hPA4aLk1JxXydrv9WekUVxHg3x74e8ZW6ppl6k19DEj3ESo6bGYfNtDgZUNxkZ7c8iu3r1sDj6OJpKth5qUX1TTX4Hm4zBVcPUdGvFxkujVvzMvWda0vw/p0uq6xcLa2sONztk9eAABkknsAM1asr211Gzg1CykEtvcoskbjOGVhkHnnp618y/ELWdO8d+Krjw1carBYaRoUUrO0syxefebSFVQ2C21uOM/xeor034R61FcfDWxurhsLp6SxyHPQQknP/fOK+RyzjFYnNKmEil7NJ2lfVuLSl8tbLvZu9j6jMeFHh8up4qTftG1ddEpJuPz0u+10dp4j8W+HPCVvHc+Ib1bRJm2oCGdmI64RAzEDucYHGeorn9F+J/hPxC2qf2RLLPFpMH2iSTyyqsmCTsDYbIxg5A9siuJ+HGlt421e6+J/iJBMzymPTom5WCKM4DAdN2eh9ct1IrvPE+g6Npuk+JfENraKl/e2EyTSAnLhYzjjOB7kDJ70qGbZliaX1+jyRoatJp8zik7Sveyu7NRtt9roOtlmAw9T6lV5pVtE2muVSbV42td2V03ffp1NrSvFWkat4ai8Vo5ttPkjaUtMApRVJB3YJHBB6E07wv4l0/xbpEet6Wsi28rOq+au1jsYqTjJ4OOOf14r5j8E2mq/E3SdM8Ioxs/DehqpvWUgSXEzFmCgDPHp2HLHnAr60s7O1060isbGJYbeBQiIowFUdAK04Sz3FZlCGIslS5Um7aznpzOPaMXdeb8kRxPk2GwEp0Lt1OZu19Iw1sn3lJWfkvUs0UUV9sfHhRRRQAUUUUAFFFFABRRRQAUUUUAFFFFABRRRQAUUUUAFFFFAHz94zO74yaIF52WJzjt/r+v6V3WTXA+Im874ywhf+XeyAb8VY/8Aswru81+H4mf+2Yl/33+SR9nTX7qn/hQ/JoyaZmjNTzjsPyaMmmZozRzhYfk0ZNMzRmjnCw/JoyaZmjNHOFh+TRk0zNGaOcLD8mjJpmaM0c4WH5NGTTM0Zo5wsPyaMmmZozRzhYfk0ZNMzRmjnCw/JoyaZmjNHOFjgfienmeELluf3bxN/wCPgf1r27w3L9o8O6VPkHzLWBsjpzGDxXjfxD2t4O1IPwMR/mJFx+teqeBmdvBmhmQYP2KAenAQAfpX0HBc/wDhQqrvCP4NnBnC/cRfm/yOqooor9SPmgooooA//9P9/KKKKACiiigAr5U/aklzpvhqy5xNeSNj+H5VUc/99fzr6rr5H/ajV/tng2T/AJZrNdBvTJMGP0Br8r8bKjhwvjGu0fxnFH1XBMFLNKKfd/8ApLPGM0ZqPJoya/zXP6k5STNGajyaMmgOUkzRmo8mjJoDlJM0ZqPJoyaA5STNGajyaMmgOUkzRmo8mjJoDlJM0ZqPJoyaA5STNGajyaMmgOUkzRmo8mjJoDlJM0ZqPJoyaA5STNMlP7p/oaTJpr5ZGX1BFCE4n05+zD/yTeX/AK/5/wD0COvomvnD9l2ZZPh1dRgYMWozKffMcTf1r6Pr/T7wtknw9grfyI/lDihf8KFf/Ewooor748EKKKKACiiigAooooAKKKKACiiigAooooAKKKKACiiigDxvWviZq/g3V9Ri8XaJO2ko6/Y7uzj3qyNwBKzuFDfiD/s9DXM6lfX3xf1TQf7F0i6sNJsJxdyX12gj3BT92LBYNnHUE89QAM19FUV8diuGcTiG6NfFOVFu/Lyq/wAXNbn7dNr26n1eG4hw9BKrRw6jVStzcztta/L3672v0PLvi7qtxY+En0yythdXWsypZRKyb1DSdyDxnj5ffB7V1HgvwzB4Q8N2ehQne0C5kf8AvyNy5/Pp7V1NFexTyeKx8sfOV3yqMVb4Ve79bu33JHlTzVvBRwUVZczk33drL0svzPE/hSJz4j8cSSBgjakQCwxyC+evtis3x94N1/QbjUPE/gOMzR6pE8OoWCKW8zzAV81FHVhnPHIPPILCvfqK8h8H0pYBYKc3eLk4zWjTk29N+9mtmtz1FxVVjjXi4QVmopxeqaSS127XT3T2OE+GVjd6b4D0eyvoHtp44jvjkUo6kux5U4IPPerHjXwTpfjPSZ7G5jhiu5ECRXbQrLLCAwb5ScHBxjAYda7OivahktD6lHAVVzQUVHXqkrfJ+m3Q8meb1vrksbTfLNyctOjbv/VzN0zTYdNtLaABXlt4I4DLtAZliGB6nGcnGeM1j+N73UbDwpqdxpNrJe3hiKRRRKXctJ8uQq5J25zx6V1VFdVfB81CVCm+W6aTXTS1/kc1HFcteNaouazTafXXY8V8A/CHwxpWi2N3r2lx3erPHum8/MiqX52+W2UyowM7c5zzUPgHw/qGmT+L/Bl3aTWunTzSPaz+WVjaOdSpCN90kDbwDxXuFFfPYbgzBUPYfV4qPs7rRL3k48r5u7ejvvdHuV+LMXW9t7eTlz2erfutSuuXtbVW7M+d/CniDxR8PNFm8Jap4W1DUZtPZ/s01lEZYJlclhucZ28nqAx55UEYPRvc+Or3wF4m1LxfDFZtc2srW1rGMvDH5ZyHPOSeuDyDnOPuj2WiowvCtSlSVD6zJ04xcYxskkmmlzWScuVbXttffU0xPEtOpUdb6vFTlJSk9dWnd2vdRu99+22h8r+G/B2vaV4U0Tx/4CyNT8j/AEu0P3LuMMex/iwOnfquG6/QfhXxDP4k0z7ddaXdaRMrbHhu4yjbsAkoSAWXnAOB9BXS0VtkPC8cu5VQqPlslKNvdckrcy6xb6pOz9dTHO+I3j+Z1qa5rtqV9VFu/K/5kujauvTQKKKK+qPmgooooAKKKKACiiigAooooAKKKKACiiigAooooAKKKKACiiigD5zdvtPxj1yX+GC2RB252Rf/AF69AzXndmDb/FbxNbScu6LID/skIf5MK9BzX4E5t167e/tJ/wDpTPuOX3If4V+Q/NGaZmjNVzE8o/NGaZmjNHMHKPzRmmZozRzByj80ZpmaM0cwco/NGaZmjNHMHKPzRmmZozRzByj80ZpmaM0cwco/NGaZmjNHMHKPzRmmZozRzByj80ZpmaM0cwcpxfxG/wCRM1H/ALY/+jUr17wZ/wAifoX/AF4Wv/opa8Z+JTsPCF4AeGaIH6bwa9t8KosfhjR40GFWztwB7CNa+m4H1x9Z/wByP5s8/OdKEPV/kjeooor9VPmQooooA//U/fyiiigAooooAK+Uv2pI8WXhi5zxHdyrj13BD/7LX1bXyj+1LKPsXhiz/ilupWH/AAEIOn/Aq/LvGm3+rGM5u0f/AEuJ9TwVf+1KNu7/ACZ4TmjNRbqN1f5oH9U8pLmjNRbqN1AcpLmjNRbqN1AcpLmjNRbqN1AcpLmjNRbqN1AcpLmjNRbqN1AcpLmjNRbqN1AcpLmjNRbqN1AcpLmjNRbqN1AcpLmjNRbqN1AcpLmjNRbqN1Acp9BfstTY0PxDY8ZhvVbHf50xz/3zX1PXyN+y47fbPGcOfkWa1IHoSZwf5Cvrmv8AS3wUrupwvg5PtJfdOS/Q/lfjany5pWXmvyQUUUV+pnyoUUUUAFFFFABRRRQAVx3jrxhaeCtAl1acCWdj5dvDnmSVug9cDqfb8K7Gvk7U/FGs+M/iLb6lpPh+51vTNEkaK3iDeVF9oHJkkkw6DkZGSOAufQ/I8Y8QPA4eMKT/AHlR8sdHK3eVkm3yrW1tXZdT6nhTI1jK8p1F+7prmlqlftG7aS5npe+iuz3f4c+K7nxl4Wg1q+jSK6LyRyrGCEDI3YMSRxjqa7qvBfgrPd2Nx4l8Oalb/Yp7S7E/kFw4jEw5AYHBxgciqfhXwvpvxTutU8ZeMozewPO1tYwea6LDDEf+mZU5JP55PevNyXiXETwWEhGHPWmpJ8zcV7mknJ8ra1srct7vod+b8P0IYzEzlLkowaaslL49YqK5knpfXmtZHY/GPUtT0nwd9s0m6ktJ1uoBviYoxUtyMjnB7+vSvR59QsrGCGbUbiK2ExVFMjhA0jdFBOMk9h1NeD/FjQ7Pwr8L7XR7KWaaC2vIdhmfe+MsdoOAMAcAAcCsbw9cTfEH4gpH4/jksDYRLPp+lyKVRwed7E43MAMkYGfYKVrz8RxLVw+azoOH7ypGklFv3Yt8/NeVrelleTtZdu6hw/Sr5bGspfu6cqjbS95r3LWje/rd2it2fT9fPXhT4p6kPH+q+F/FEwa0ku5ILOXYqrG6sQsZKgZ3DoTk5+tfQtfN3hzwppXjG78f6Pc/ITqW+GVR88Uil9rjPPBzkdxkV6/F1XGxxGEWBnaXNLS+krRb5X62tfo9Ty+F6WElQxTxkbxtHW2sbySuvS97dVoeyeO73VdN8IarqOiyiC9toTJG5VWxsILcMCD8ueop3gnXJvEHhTSdYvCv2i7hBfHG5xwxA+oJwK8usvFt7L4e17wH4zbytesLK4CuTxdxLExWRCepwMnuRz644jw2JPtPwuikz5YW7cDtnexz+WK8itxfbHQr0ruMoKLg3bll7WMHda2kuZ372XSzPUpcLXwc6NWylGTaklfmj7OUlZ6Xi+XTtd9bo+s6qWd/Y6gjyWFxHcpG5jYxOHCuvVSVJwR3HWvIPEG6T42+GYicLHYzuPqRJn+VeL6F4KbX/DnijV9QunksNIkvGtbdGKq1yFyZW7EAAYGefpwe3MuNq9KvKjQw/O1Kcfit8EYSb2dl7z6PZd9OTL+EKNSiqtavy3jB/Df4pSjbdX+FdVu+x9pUV8b3nhGy0f4d6N8RbS6nm1hZraVpnkJCoDsEajsEwoHU8enA+xIpFmiSZOVdQw+hGa9nhziKpjZShWpcjUYSXvc14zvborPTVa+p5Of5DTwajKlV505Si/d5bSja/V6a6PT0JKK8j8UeHPg/qOtT3Xiue0GpMFEgmv2icAKNo2eauBjGOBXV+C9M8G6Xp00PgmSGSzaQs/kXBuEEmBnku+DjHGa7cNmdaeJdGSp8qvtUblp3jyK3n72nmceIy+lDDqrFz5nbeCUde0ud38vd18jsaKK8u+K+sanY6JaaNosnk32u3KWaSZwUV/vEHsccZ7ZyOa7M2zGOEw08TNXUVst2+iXq9DlyzASxWIhh4Ozk93su7+S1PUa8k0HVtSufi34j0ua5kezt7SAxwliY0YhMlVJwCcnJHWrWjfCHwfoN5p2p6Wk9tfWBDGZJnBmO3BEikkbW6kLjPTpxWL4XxJ8ZfFsg/gtrdcfUJ/hXy+Y4vGSqYNYiCg3VWkZOSa9nN6vlj16W6bs+jwGFwqp4p0JuaVPdx5WnzxWi5pfffqek6DF4pjl1A+JJraWN5y1oLcMCkPZX3Ac9+/fnGMdFXzB4Y1698O/C/wAV6/bMVuW1CdY26hXkKLuH03ZrlbHwpaeLLC3h8F6Rc3WpErJca/dzSwxCXdudo1LfOc5H3dw6kE815FPjp06VGnQpOc5R5+VyblZyaSVoSbej3UYxVryR6tTgxTq1alaqoQjLluopRukm27ySS1Wzcm72TPr+a+sreeC1uLiOKa5LCJGcK0hUZYIDy2BycdKkiubed5Y4ZUkeBtsgVgSjYBwwHQ4IOD2r51+Lenalf6/4M0CxuWW/kEkZuBw4BCK759cZPWn2HhXSPBnxW0nw/oiOlpqOmTLdB3ZjMQHyWyeCdoPGB6AV6VXi/ERxk6CoLkjOEHLms7zSskrO7Teuq0ta7POpcLUJYSNZ1nzyhOajy9IN31urXS00et72PWLnxgLbx1aeCjabvtdq1yJ/M+7tLfLs2/7PXd+FdrXy9qvw28F23xU0bw5Dpu3Tbyzllkj86b5pE34O7fuGMDgHFfSOlaVYaJp0GlaXF5FrbLtjTJbaOvViSfxNd/DGZY+vVxMcXGKUJtK0m7aRdvgjda35m730t1OLiLAYKjToSwspXlBN3ja+slf45WenwpW636GhXO6pF4pfV9Mk0ea2j01GY3qShjK6kYAjIBHHXqOcdRkV0VeL+JfMl+MvhSEE7Y7W5fg+qvn+VenxBjPY0YOz96cI6Oz1klvrp3XVadTz8jwntas1daQm9VfaLe3fs+j1PXb6/sdMtmvNSuY7S3TG6SV1jQZOBlmIAyaqR6/oUtnHqEWo2z2sziJJhMhjaQnAVWzgsTxgHNfNnijSLmy8cajr/wAQPDl7r+kuzG1lt5C8dvBH8w3RpjHuHZV+8cN1pvjWy0Gx+FmkQ+C5pLm2vdSSa3aUgusjB8rwoAweMY/Ovj8Tx1iIPES9ikqSk+VuSm7NJOzilyyvpyuXS71sfVYfgyhP2Efatuo17yScFdNtXUm7xtrdLrpofUgubY3DWglQzqocx7hvCkkBivXBIIzU9fL+q+DbXwFrvgq+tJJJNXvb7Ze3LyMxmMm3eCCcAfMRxyR1JPNfTz7gpKAFscAnAJ9zz/KvqsizmtiZVaeIpck4NXSfNpKKktbLVXs91fZs+azrKaWHjSqUKnPGadm1bVNxfV6aXXlukOrifHmu+INC0YS+GtMbUr2dvLUj/VwjaT5knsMew9SO/imvah8Rb74paLnTLPTLyOOcWSTzNPC6bTvZ2iw3P8PyqemRXuM13ra+Cb288QQRW+ox2k7SpAxaPKo2CpPPIGcZOPWvLo8RfX4YqjSjOnyXSlytbJO/vLR66Jq9tV5ejVyH6lPDVajhU57Plunu2vsvVaatPfT1x/hRr2r+JPBtvq2t3H2m7kklVn2onCtgDCBRx9K9Iry34MQCD4caUR1l81z+Mjf4V6lXrcKTqTyzDTqybk4Rbbd220nqzzOJoQjmOIjTSUVOSSWiVm9gooor6A8MKKKKACiiigAooooAKKKKAPnbxEn2D4yo3T+0bIH67VI/9p12+a4vxm/2z4vaXCnAs7PLEdckSH8vmFdlmvwPH2WNxKW3O/0v+J9xQ1o079kOzRmm5ozWPOXYdmjNNzRmjnCw7NGabmjNHOFh2aM03NGaOcLDs0ZpuaM0c4WHZozTc0Zo5wsOzRmm5ozRzhYdmjNNzRmjnCw7NGabmjNHOFh2aM03NGaOcLHCfEtgPCVyCerxY/77Fe6eGlK+HNKVhgi0gBB7fuxXgnxP/wCRVk/66x/zNfQei/8AIGsP+veL/wBAFfW8Ba4yu/7sfzkeXnn8GC83+hp0UUV+qnzAUUUUAf/V/fyiiigAooooAK+OP2nLjzfEvhOxz/qVnlx2+dk/H+Cvsevjj9py0+z+JPCurAf65JoCf9xkI/8ARhr8e8eVP/VfFcv9y/pzx/Wx9lwDy/2rSv5/kzxndRuplFf5wH9S8o/dRuplFAco/dRuplFAco/dRuplFAco/dRuplFAco/dRuplFAco/dRuplFAco/dRuplFAco/dRuplFAco/dRuplFAco/dRuplFAcp7r+y3/AMhDxp/11tP/AEK4r67r5S/ZZt86f4m1DH+vu40zjrsVm69/v19W1/pX4I0nDhfBxfaT++cmfynxxNSzWs13X/pKCiiiv1U+UCiiigAooooAKKKKAKOp2k19pt1ZW85tZbiJ41lAyYywIDAZGcdeorA8E+ErXwV4fh0K2lM5RmeSUrtMkjHltuTjjAxk8CutorjlgKMq8cS4++k0n2Ts3ptrZa7nXHHVVReHT9xtNru1dLz6vTY4a38F/Y/Hdz41tb0ot7biGa28sYZlxh9+7j7o42n61xkngDxz4eu7iP4fa7DaabfStK9vcxB/s7ORlojtfd3wDtGOuTyPbK5+88WeFtOuXs9Q1mytbiPG6OW4jR1yMjKswI4rw8w4fy9RvNun7zkpKbi7y+Kzv9rqtutr6nsYHPMc5Wguf3UrOKkrR+G6t06Pfpexxmr/AA5vdb8J2fhzUtemuZ7e6F1JdSxh2kILHaF3DaPm4+Y4+nA1/GngaPxXJp+oWl2dM1TTZRJDdIm9gvdCNy5BPvxz6mu4hmiuIkngdZIpFDKykFWUjIII4II6GpK6nw3gZ05QcLqSinrJu0Ph1ve6ve6d+tzmXEGMjOM1Ozi5NaLeXxaWtZ9mrdLCDOBuOT3xxXnvgnwffeGdV8R6jezRyjWbszxiPPyoCxG7IGG+boCR716HRXoYjLqVWrSrzXvU7tfNWf4M4aGPqU6VSjF6Ttf5O6/E4Dx78PdK8d2SJO5s7+3/ANTdIu50B6qRkblPpkYPIPXPM6j8LL0eH9BtNC1YW+reG95t7l4gUkL8kMpLbRnHPzYHY16hrWt6X4d02XV9Zn+z2kON77WbG44HCgk8nsKt2N7aalZw39jKJre4QPG69GVhkGvFxnDuWYjEVHOK9rKK5rNqVk007Jq1nFWlvpa+lj18Jn2Y0KFNQk/Zxk7XScbtWa1XZu8dtb21PIdE8B+OI/GGk+LPFGt2+pyWkEsUirCIim8MAqFFUOMtnLBSPStzw14Eu/D/AIX1zw+9zHcNqct08TbSoVZ12qHPJz646ds12Nx4j0W01u28OXN0I9RvEMkURVvnVc5O7G3seCc1t1OXcN4CEpOk3KScrtycneUYqV229WktHt0Kx/EGNmkqiUU1GyUVFWjKTVkktE29jx1vh5rE3wnHgS4ngOoIuFkDN5IIl8wc7d2Mcfdr1LSLWax0qysrlg81vBHG7LnBZFAJGecZHetCivTy/I6GGlGdJO6hGG/2Y3t89dzz8dnFfERcKlrOUp7dZWv8tNjBvvC3hjVLlrzU9Is7u4fAaSa3jkcgDAyzKTwK0NP0vTNIgNrpVpDZQli2yCNY13HqcKAM8davUV3QwVGM3UjBKT62V/vOKeLqygqcptxXS7t9wVyHjTwjB4x0tLJrl7K5tpVnt7iMZaKVOhxkZHqMj6119FLG4KliKUqFZXjLRoMJi6lCrGtSdpLZnkuj+GPibNqVtP4q8TRmzspFdYrOII1ztLf61tqbQcgFRuUj0PzV0ei+Df7I8W614qa889tXCARbNvlBP9rcd2foMV29FeXheHMNS5G+aTjLmTlKUnezj1fZtW2676npYnP8RU5kuWKkuVqMYxVrp9F3V779NtDzPRvhnp1h4X1XwrqFy15b6pPJMzBfLZN+NuOW5UqDnv6VhReB/ijAF0qHxtjTFh2CQ2iG4B6BQT83T+PzNwPbvXtNFYVOEsE4wjBSjyqy5Zzi+W97NqSbV31vbW25tDijGKU5SalzO75oxlra10mmk7dvmeXyfDt01nwvf29+8sXh9ZVc3BMksoccHd65/IdOmKv654PvNS8daF4ttZo449NSWOZW3b2Vgdu3AweWOckfj0r0Git/9WsHyuCjZOUZbveHLy/+kox/1gxXMpOV2oyjstpXv/6UzgdT8I3eoeP9I8XCdFttNt5Ymj58xnfcAR2x83Pfj34i1X4reAdE1GfStT1Tybq2bZInkTNtPplUIP4GvQ6K0nllSlzywUlGU5c0nKLkm7JaJTjbZdfkRDMadTkWMi5RhHlXK1G2rercZX3fT5nln/C6vhn/ANBn/wAl7j/43V6LRdN8W+I9D+I2l6gXtbWCVI08ojzQ+4bssVK4JPBXn2r0WisoZZiKrSx84TimmlGEoNSi007+0le1trGksxoUk3goShJppuUoy0aaatyR373PDr3wV8Wop3sdJ8Xxy6XcMxc3UStOiyMdyrlHLYB4+dR2AUVeufhQF8KaJ4ZsL7nS72O6klkU/vPmJfCgnB54Gfqe9ex1lXOuaRZ6la6PdXccV7ehjDET8zheuB/LPXt3rzp8I5dBSlWcmpLl96cnZNr3Y3el2ltq9Ed8OKMfPlVJJOPve7CKu0nrKy1sm/Lqcl4+8HXfiv8AsaWwmjgm0u9juC0mceWPvAbQTu4GBwPcV6FRRX0dDL6VOtUrwXvTtf5Ky/A8GtjqlSlToyfuwvb5u7Kcun2E93DfzW0Ul1bgiKVkUyIG4IViMjPfFYXi3RNa1/Tf7P0fV/7I8zcszfZ0uPMjZSpXDEbevUHNdTRVYnA06tOVKSspb2bi384tP8diMPjKlKcakXrHa6TX3O6/A8/8A+DtV8F2B0q61r+07NBiCL7OsPlZJZjuDMzZJ7nivQKKKnLsvpYSjHD0E1GOiTbdl2u23btrotFoVj8dUxNaVes05S3skvwSS9e+4UUUV2nIFFFFABRRRQAUUUUAFFFFAHzYJP7Q+LWv3g5S2iWEexART+qtXeZrz/SB5PxF8Vw9d8u/82J/9mrvs1/OlSo3WrSlu5z/APSmffqK5IJdl+Q7NGabmjNHMHKOzRmm5ozRzByjs0ZpuaM0cwco7NGabmjNHMHKOzRmm5ozRzByjs0ZpuaM0cwco7NGabmjNHMHKOzRmm5ozRzByjs0ZpuaM0cwco7NGabmjNHMHKcB8Tj/AMUtJ/11j/ma+hdF/wCQNYf9e8X/AKAK8B+IsJm8J3bDkxNG/wD4+B/I17l4UuftnhfSLrvLaQMfqUGf1r7Lw/mvrldd4x/NnkZ6v3MPV/ob9FFFfrJ8uFFFFAH/1v38ooooAKKKKACvl/8Aams8+FNG1ZRlrS/CZHYSxsf5oO9fUFfL/wC1Nd48KaNpYbBur8Pj1EcbD+bjtX5v4vcn+reN9pty/jzK342PpOEOb+0qPLvf9GfNm4EZB60bqjzRmv8AMbmP63sSbqN1R5ozRzDsSbqN1R5ozRzBYk3UbqjzRmjmCxJuo3VHmjNHMFiTdRuqPNGaOYLEm6jdUeaM0cwWJN1G6o80Zo5gsSbqN1R5ozRzBYk3UbqjzRmjmCxJupGcKC3pzTM1FOT5En+6f5UJ6iex9U/suW/l/D++uTgtPqMpz7LFEAD+Oa+k68B/ZqVR8MYSBgtdXBPucgV79X+ovhfSUOHsEl/JF/fr+p/IXE8+bMK7f8zCiiivvDwQooooAKKKKACiiigAooooA5Dx62vr4Q1M+GA51Lyv3fl/6zGRu2f7W3OMc56c4rwvwfr/AMFNL0WHT9fso4dUiO26GoWTTTGYABzu2yYXdnAyMdwDXtvjfxi3gqztdTl0+S8spJhHcSRnm3Q/xkYOeeMZHPGea4vXvi98MdQ0e7sjc/2qZ0Ki1FtLmVj90DzEC5zg8njtzivzPiithI411pYmnGpCFuSrG611vH3ou72bjzbJWurH6Fw7SxTwapRw85U5yvzU3Z6aWlpJWW6Urbt3s7na3+veGPBPhBNVswn9lwIot0tiGEhc/KqYOCWPOc+pNcc3xQ1/TLnS/wDhKPCr6VaapKsUcv2yOaTLjj9yFD8ZG7OCPrwfNNQ8LeKdI+EujPdCWJ9PvvtssYjEslvCckExsQDsPzFSR15xg4v6N4g+FOk3Ca2dQvPF3iU7BEZopnmaQ4AWJXUImDyOSV/hJ6V42J4qxjq06bmsNFQhK0nBLXWSScXOVrcqjHlt1d7I9bD8N4RU6k1B4h881dczemid01GP8zlLmv0Vrs9Z8R/EGXTdfi8K+G9KfXdWKGSWJJVhSJMZBeRgQCeODjqOckAzeCfG974qv9W0zUtK/sq60h0SRPtC3GWfORlVUcY7E15rpniTTfAnxA8Q33jJJbCLXFintZ3iZ8oBzGfLDfMucHHAI5PTO38Hr2DWtU8X+IrUfuL++BjJGDsUMRkdshhXqZbxHXr5jSpvEaynUUqVo+7CKlyt6c920ne9nfRWPOzDIaFHAVKioaKEGql5e9KTXMlry2V2rWuras6L4yxl/hxq+BnaIj9MSrXDfD/VL34fXVh4U8RTFtJ1mKOfTrlvupLIoZ4WPbk8e+D/ABcdz8ZZCnw41fBxuEQ+uZVrQbwzp3jH4f6do+rJgS2duyuB80UgjGGX0I/UcVvm2Aq1M7lXwrtVp0otX2l707xflJdejs+hjlmNp08ojRxKvSnUkn3XuwtJea7dVddTjPiTEIPiH4Fv0X53uWhJx1BZeM/8CNd54O8Y/wDCWy6wq2v2ePTLtrZW37vMC/xEYG36c14HNeeKo/G3hDwh4viMtzpN7uhuxki5gbbtb3K7eT1/vcgk9B4M8ZeG/AGseKdG8U3RsZn1F5YwYpJN6NyD+7Vu2Dz1zXiZXxNGGZVK05eypTqWmp2jaSpR0bezuns9baXR7GZcPSnl8KMY+0qQhePLd3i6stUlvo100v0Zvaj8X7s+C7rxRpthHC9vqIsgsrmVSvUv8oQgkdsnHqaqTfHOdJ4Gt/DFzPZ37SJYyrJ+8uWTgbYthOCxAyCfYEgivLUkSX4K3gjYNHJrfJ54U7SD7fiK9h8dxQaX4q+H09sqpDHcNbqFGFCMEUAAY4x7VwUc/wA1rUvrEMTypQot+7F6zm4t6q1ku1rtLVWd+2rkeWUqvsJYe7cqqXvSWkIKSWjve/fZX07dT4O8e3fiPWdQ8Pazo76NqNhGkpiaUTbkfvkKuMZHr1rv7yWeC0mntYDdTRozJEGCF2A4Xc2AMnjJ6V47IxsPjrEAuBqelkZ9TGSf/ZK9ivPtn2Sf+z/LF1sbyvNz5e/Hy7tvO3PXHOK/TOHcZXqUK1OvNylTnON7JNparRJRvZrpY/PM+wtGnWpTowUYzhGVrtpN6PVtu10+tzzYeLPiXkZ8B4H/AGFLf/4mvUEZmRWZShIBKnGQfTjivMF/4XVuG/8A4R4LnnH2vOK9QGcDccnvjitshnVfP7SdSW38SMI99uWMb+d79DLO4U1y+zjTW/wSm/v5pS+VjzPxd4/vdH1uDwr4b0l9Z1i5iMuzeI44l5AZmPuOQSox/Fk1D4Z8W+LYoNan+ImnxaZFpSRyLLCjiN1KlnCszMHI4HynGePSuL+IV78JdV8Qz2Xiye60nV9O8oLdRJIrOuN42FVkUgZ+8yg/3TisDTp/EvjD4a+K9Ks7mfWLa0uAtlcyq3nXESOHZTu5YgAEA8849BXweK4jxEcxqqNfncfaOEISi17sX7s42U07re7TdkrXPtcNkFCWAp81HkUuRSnNST96S96Er8rVntZNK7d7Ha3Pxb1+00lfE9x4Ski0KRhsuXvIlkaNmwrCEruyRyBn8cc1u+K/ija+GL7SbQabPfLq8Bli8o/vdxxsQR45LEgHnj0PSvHdD1n4UiG31jxlrV1r2pW8f7u1uLeRYoSo4jjhUGIHgDlyhPPFd3e3/wDbXxK8D6lLZyWRntLl/InUCSMgNjI7HuP6VzYPiTG1KDdPGRc5Omkvcm4801GTlyRUVe+kW5PT4t7b4vh/B061p4VqMVUb+OKlaLcUuZuTtbWSUVr8PfYs/ihrUlxrGnal4aaz1DSrL7aIPtSyeYnHBZUwpwc9z2xmt+b4i6bF8Px49EW6NogwgDjPmk7fL3Y7NxnHTnHau5+wWBuJLw20fnzII3k2De6DorNjJHPQ8V8pWPh7UpvGX/CqJFJ0ayv31JzyM25UFEPtk4+pr3c5xuaZdyQ9r7V1OaEXyxVpt+43ZJaK99LabHjZVg8tx/NP2fs1T5ZyV27wS99K7b3tbW+u57LqPxHu7ZNHsNN0R9Q13VoFufsSTKghiIzl5WXA9BlR3zjjNrwr4+utb13UPDWtaQ2k6lYRLMyLOlypQ46ugADcjjn8K8p8fQto/wASZdQ1rV7rQdI1O2ijW6tYizMIsbohIuWjJIzlVPXkYrrvAmu/Dq0vE8O/D6zmvDPGz3V4In+TavBmklCt8xHAA25PA5xXDg+IcXLMnQrYhRUZ8vK+S8layagoud5P3ubmjFLaLWp2YvIsKsvValQcnKPNzLntF3u7yb5LRXu8tnJvdp6FS1+Neoapp1zqGjeF5rpdPWR7tjcLHFEiHjEjJ87EclQMgdM849i8OayniHQrHW44jAL2JZNhOSu4cjOBnHrjmvM/glbwTeAGhmjV45rm5EisAQ4JwQwPXI457V7DBBDbQpb20axRRKFREAVVUcAADgAelfR8HPH1sPSxmKr86nBPl5YqzfVWSe29766qy0PA4rWCpV6mFw1DlcJNX5m7rzu2t9rdN77ktefalrulp8RNJ8OT6VFcXkttJPHeNtMkAG7KrlSRu29Qw69DXoNeL6kp/wCF56SShIOlyYPpy/P9K9PiTFTpQo8nWpBPRPRyV9/z3XQ8/h/DQqTrc/SnNrW2qjpt+XUn1b4heJb/AFy/8NeANDGoXGnMqT3VxIEgjfdhhtypbHs4PBIUgc51/wDEfxbofga28Sa7pkVpfNfi2mieOSNfJ5O9FLFskDgkkd8GuC8Ran8IdUv7zXrTVL/w54gRpwTCsqO83K5YKrgAkdFZCcndg07xNqGr+Jfhf4Un8RKzSXWoxRuxG0yR/OqufQsO/frX5fieJsU3ipQxXNNRk48kouCXNFRuklKMle3vXvrrofo2H4ewy+rxlh+WLlFS5lJTb5W3ZtuMou32bW001PQNM+K+r3WtaUNS0FrDRddcw2dw8oMrMDw7J2VsrgceoZhXtteHfFpFsb7wXdImLe01KNMDgAHbtH5Ka9xr9F4br4lV8ThcTVc3Bxs2kviim9kla97dUtG2fB5/Rw7o4fE4enyKaldJt/DJpbt62tfp1sgooor60+XCiiigAooooAKKKKACiiigAooooA+bJB5Hxf8AEEXZ7eN8njqkR/rXcZrh5j5vxg8QTLwFt40565CQj+ldrmv5yxb/ANqxFv8An5P/ANKZ9/ST9nD/AAr8h+aM0zNGax5iuUfmjNMzRmjmDlH5ozTM0Zo5g5R+aM0zNGaOYOUfmjNMzRmjmDlH5ozTM0Zo5g5R+aM0zNGaOYOUfmjNMzRmjmDlH5ozTM0Zo5g5R+aM0zNGaOYOUwvFcP2nw3qUWMnyHYD3Ubh/Ku5+FV19r8AaQ+clEeM+3lyMo/QVxniBymg6k69VtpiPwQ11HweRU+HmlsOrmcn6+c4/pX1nAcn/AGnJL/n2/wD0qJ5mdr/Zl/iX5M9Nooor9nPkQooooA//1/38ooooAKKKKACvjr9qC6Mut+FNN/hjE8xHruaMD/0E/nX2LXxd+01/yOPhv/r3k/8AQ6/HfHqrKPC+JS6uH/paZ9n4fwTzalfz/Jni+RRkVHuo3V/m6f1dYkyKMio91G6gLEmRRkVHuo3UBYkyKMio91G6gLEmRRkVHuo3UBYkyKMio91G6gLEmRRkVHuo3UBYkyKMio91G6gLEmRRkVHuo3UBYkyKMio91G6gLEmRUVwf3En+6f5Uu6myHKMPUGmtyWtD7C/Zr/5JhB/19XH8xXvtfOv7MLh/hvKobOy/mBGenyRnH65r6Kr/AFJ8Mp83D+Bf/TuP5H8ecTK2YV/8TCiiivujwwooooAKKK4fWfiL4S0a6/s03ZvtRPSzska6uCfTZGDt/wCBYFceNzGhhoc+IqKK82l8vN+RtQw9So+WnFt+R3FRTTw20TT3EixRIMszkKoHqSeBXmn9p/EzxHxpWmweGbN/+W9+RcXWD3W3iIRT7PIfpUsPwv0i8lW88YXdz4muVOcXr/6Op/2LZAsQH1U/WvI/tqvW0wVBtfzT9yP3NOb/APALPudf1KnD+NUS8l7z/wAvxv5F+2+I3hvVNVj0fw+0usys4SSWzjaS3hHdpJ+I8D0DE+1d5UNvbW9pCltaRLDDGMKiKFVR6ADgVNXq4CliIxbxM1JvsrJeWrbfrf5I5a8qbf7uLS83f9EFZVloWh6bdS3unadb2txPnzJYoUR3ycncygE5PPPetWiuqdGEmpSSbW3l6EQqyinGLsnv5hVSGwsbe5nvLe3jinudplkVArybRgb2Ay2B0z0q3RVSgm02tiYzaTSe4V5h8KtC1fQ9G1Ea5bG1urvULibaWVsq2ADlSeMg459+len0Vw18thUxFLEybvBSSXT3rXv92nqdlHHzp0KmHSVptX7+7fb7yteWVnqFs9nfwR3NvJgPHKodGwcjKtkHmp0RY1CIAqqMADgADsKdRXdyK/NbU4+d25b6BVK40zTbu5gvbu0imuLUkwyPGrPGT1KMRlc+1XaKU6cZK0lcITlF3i7GfHpOlQ272kVnCkEr+a8axqEaTIbcVAwWyAc9c80+70zTb+SCa+tIrmS1bfE0kauY3/vISDtPHUVdoqPq9O3Lyq3p22L9vO/NzO/qU30+wkvY9Sktomu4VKJMUUyKp6qr4yAe4Bq5RRWkYRjey3IlNu13sFFFFUSZupaNo+sxpFrFjBfJGdyrPEsoUnjIDA4NX4oo4Y0hhQRxxgKqqMBQOAAB0Ap9FZxowUnNJXe76mjqzcVBvRdCp9gsTejUjbx/awnl+dsHmbM5278Z255xnFK9jZS3cV/LbxvcwBljlKAyIrfeCtjIB7461aoo9jDst7/Pv6h7WXfy+XYKKKK0MxksUc0bwzIJI5AVZWGQwPBBB6g1Fa2lrY28dpZQpbwRDakcahEUegUYAFWKKnkV+a2pXO7ct9CrZ2Nlp0AtdPt47aFSSEiQIoLHJOFwOTya4bVfDfj671Ge50zxj9gtZGzHB/Z8Mvlj03sct9TXodFcOMyylXgqcrpLbllKH/pDi7eWx2YXMKlGbqRs2/5oxl/6Unr57nln/CJ/Ez/ofP8Ayl2//wAVXoWk22oWenQW2qXn9oXcYxJP5axeYc9di5C8ccVo0Vngcno4aTnTlNt6e9UnJfdKTXz3NMZmtWvFRmor/DCEfxjFP5bGVd6Fod/eRahfadb3N1Bjy5pIUeRNpyNrMCRg8jB61fmt4LgKLiNZQjK67gGwynKsM9CD0PapqK744emrtRWu+m/qcTrzdk5PTby9CrdWNlfLGt7bx3CxOsiCRA4V1+6wz0YdiORVqiirUEm2lqyHJtJN6BRRRVEhRRRQAUUUUAFFFFABRRRQAUUUUAfM1oxk+J3ieR+WUhQfYYH9BXc5rir6P7B8X9Yi6JeW6SL7nbGT+oauyzX8141OOJrxe6nP/wBKZ+h0tacGuy/IfmjNMzRmsOcvlH5ozTM0Zo5w5R+aM0zNGaOcOUfmjNMzRmjnDlH5ozTM0Zo5w5R+aM0zNGaOcOUfmjNMzRmjnDlH5ozTM0Zo5w5R+aM0zNGaOcOUfmjNMzRmjnDlMTxQ7L4c1MqcH7PIPzUg13fwoRU+H2kKowCkh/EyuT+tef8AixwvhvUixwPIcfmMCvRfhcjR+AdHVupiY/gXYivsvD7XMpv+4/8A0pHk57/u6/xfozvqKKK/aT48KKKKAP/Q/fyiiigAooooAK+N/wBqEY1/wo3qtwM/8Cjr7Ir5K/aog/ceFr//AJ43E6f99iNun/AK/JfHOi58L4u3Tkf/AJPE+v4DqKOa0W/P8mfJPiHxS+h6jpGi2Wj3+u6lrkksVra6ekckrtBE0z8SSRjARWPXtUn9ofET/olnir/wGtP/AJKq/oBz+0J8Jv8Ar81f/wBNNzX6QV/H/DvDGWTy7D169HmnNSbfM1tOUdl5RR+p8WcZY/CY+ph6Ekoq3S+6T/U/ND+0PiJ/0SzxV/4DWn/yVR/aHxE/6JZ4q/8AAa0/+Sq/S+ivW/1Wyf8A6Bv/ACeX+Z85/wARDzT+df8AgKPzQ/tD4if9Es8Vf+A1p/8AJVH9ofET/olnir/wGtP/AJKr9L6KP9Vsn/6Bv/J5f5h/xEPNP51/4Cj80P7Q+In/AESzxV/4DWn/AMlUf2h8RP8Aolnir/wGtP8A5Kr9L6KP9Vsn/wCgb/yeX+Yf8RDzT+df+Ao/ND+0PiJ/0SzxV/4DWn/yVR/aHxE/6JZ4q/8AAa0/+Sq/S+ij/VbJ/wDoG/8AJ5f5h/xEPNP51/4Cj80P7Q+In/RLPFX/AIDWn/yVR/aHxE/6JZ4q/wDAa0/+Sq/S+ij/AFWyf/oG/wDJ5f5h/wARDzT+df8AgKPzQ/tD4if9Es8Vf+A1p/8AJVH9ofET/olnir/wGtP/AJKr7f8ACHxT0vxl4/8AGvgGws5oZ/BEllDczyFdk0t5CZx5agk7VXbycEkkYwMn0W/guLqxuLW0uWs55o3RJ0VWeJmBAdVcMpKnkBgQe4IrarwdlNOXLPC2ej+OWzV117MS8RM0e01/4Cj82/7Q+In/AESzxV/4DWn/AMlUf2h8RP8Aolnir/wGtP8A5Kr028+KXx98Bfs7eM7/AMcWUVt438E3a6dbaxcwK1hq8LzRLDfrDG0Zw0cg81BsAkDBTgcaNxon7TOpwpn9oDwrpRZRuNp4XjdgTgnBuNVcewJX8K9VeHeUK7nTildq/PUadkndcqelmuxn/wARHzT+Zf8AgKPIf7Q+In/RLPFX/gNaf/JVH9ofET/olnir/wABrT/5Kr6R0S0+Jfw5+GXjnxN4i+KJ+JGo2lhc3VpO+nWNnHZy28Mjqqx2YCspO0kPuPHXBxXk3w20/wDbA+IXw78NeP3+Mug6YviLT7e+Fu3hNZPK+0Rh9m/+0E3bc4ztGfQVMfD7JWpTcIqKdr81XV2vouW/3pD/AOIj5ptzL/wFHD/2h8RP+iWeKv8AwGtP/kqj+0PiJ/0SzxV/4DWn/wAlV7cnw+/a+kYInxz8Psx6AeEFJ/8ATlVr9mjx58VfEHjD4reAPirrln4ivPAerWVjb3lnYDTkljubNLpiYRJLggyY++envU1PD/JlTnUp04y5bNpTqXs2l1SW7XUP+IjZpezkv/AUeD/2h8RP+iWeKv8AwGtP/kqneGvEv/CRf2nFLpl3pF3pF21lc216sazRzLHHKQRFJIv3ZF/iyDkEDFfpbX5nWBx8RPin/wBjVc/+klrXxvE/DOW0strYjD0eWUeWz5m93bZn1fB/F+OxmOjh68k4tPpbY+0P2WHX/hA9Tg/jTU5CR7GGED+Rr6Zr5U/Zmv7LS/Auv6jqMy29tb3rPJI5wqqIkySa9v0Lxkb/AEu68Ta4kWjaLIwNjLcyCOSSDb/rZA2Agc8oM529QO/9leFmbUaeQYGlUlaTg36JN6vsul310PyPinCTlmFeUVopfi7aLuzvKK8wPxKXViYvA2j3XiFugnC/ZrIfW4lAB/4ArUn/AAjnj/xD83iXXl0i2bra6Qu18ejXUoL/AF2Kvsa+y/1kp1dMFCVXzj8P/gbtF+fK5PyPG/s2Uf40lD13+5Xf32Xmdbr/AIu8M+F41k1/UobMv91GbMj5/uRjLt+ANcl/wmPi3X/l8HeHJI4W6XmrE2sWD/EsIzM49MhfrXR6B4F8KeGpDc6Tp0a3T/fuZMy3DnuWlkLOc/XFdbR9UzGv/Hqqmu0NX/4HJflBNdGHtsPT+CPM+8tF9yf5yfoeX/8ACv8AVdc+fx14gudSQ9bS0zZWeP7rLGfMcf7z/hXc6N4f0Pw7aiy0KwhsIe6woEz7nAyT7nmteiuzA5FhcPP2tOF5/wAzblL/AMCleVvK9jGvjqtRcsnp2Wi+5aBRRRXrnIFFFFABRRRQAUUUUAFFFFABRRRQAUUUUAFFFFABRRRQAUUUUAFFFFABRRRQAUUUUAFFFFABRRRQAUUUUAFFFFABRRRQAUUUUAFFFFABRRRQAUUUUAFFFFABRRRQB87ePEFr8WdInT/l5s8MO+R5oz+g/KukzXMeNH+0fF6xA5+y2ODjtkSHn/vuulzX84Z/Jf2hibfzv9D9BwMX7Cn6Ds0ZpuaM15XMdPKOzRmvlH4i/twfssfCrxRceDPG/j62tdYtB+/gtra7v/JbJUpI9nDMiSAg7o2YOvGQMjLvF37aX7PXhHwP4V+JEviP+0/DXi+/TT7W9sYzLHDIy73a6DbGgES8yI6iRf7nBx6EcsxT5WqUve20evpoc7xFPX3lp5n1ZmjNU5L6zjsm1KSZFtVjMplLDYIwNxbPTGOc+lfE97/wUG+ANp8KLz4xxjVrrQbTXW0DEVmpmlnX5hNGGlWNoGj/AHgbfu28FA/y1lhsHWrfwot6pad3sXUqxh8TsfcmaM1z/hjxPoPjTw7p3izwvex6jpOrwR3NrcRHKSxSjcrD8D06joea8v1n9oDwFoXxx0T9n7UBdL4m1/T5dRtpBEv2Ty4i37tpN4YSMFYqAhXA5YHAOUKNSTcYrVXb8rb/AHFOSSTb3PcM0ZpuaqX99baZY3OpXr+Xb2kbyyNgnCICzHA5OAOgrJO5XKXc0Zr8zfDv/BWD9lfXPEa6FfLr2hWrs6jUr6wjNmNudpItp55wH7fueM/Nt5x+jGgeIdC8V6NaeI/DOoW+q6VqEYlt7q1lWaCaM9GR0JVh9DXdjctxGGt7eDjfujGjXhU+CSZtZozXh3xj/aQ+CXwAisJPi54qg0F9TYi2h8qa5uJAAcuILaOWURjGC5UIDgZyQD4Lb/8ABRT9mvUPCPjHxzpF9qWoaP4MuLG3uJYrFla5/tA7YpLeOVkfYGDKxlERypwCCpZ0MsxNSKnTptp9bO29t/UU8RTi+WUlc+680ZrL0nWNP1zSLPXtMmEtjfwR3MMnKhopVDq2DgjKnPNfNPhP9sb4NeNdC+JfijQZb+XSPhYZf7Tuja/urhYUd2e0IY+YPkYDdsJODjaQxwpYarNNwi3a1/K7svxNJVIxtd7n1VmjNfGvwS/b0/Zr+OssWmaB4j/sDXJ32JpeuBLG6kZn2IsTb3glZzyqRSu+OqivsjNGKwtWhLkrRcX5oVKpGavB3Q7NGabmjNc3Ma8pznjA/wDFM6j/ANcj/OvUvhr/AMiJo3/XAfzNeUeNH2eF9QI5ygH5sBXrvw8jEXgfRFBzm2jb/voZ/rX3Xhzrj6j/ALn/ALcjxeIP4EfX9DsqKKK/aj48KKKKAP/R/fyiiigAooooAK+Vf2omurmw8MaNbIpN5dyEMTgh1VUUfQ+Yc/QV9VV8s/tBkP4v+HsS8ut5KxHoPMt+f0NfPcVYSniMBUo1o3jKya7+8jDE4urQh7WjJxkrWa3Wtj5f07wt4m8P/tA/CObXliEct7rCp5bBjkaTck5xX6HV8meNjn46fBf/ALCGtf8Apoua+s6/nHxAyXDZfiKGFwkFGChol5zm2fQZdjq+Ig6uIm5yb3bu+nU+G/2kft/xM+OXwy/ZtutSvNL8K+I7TVNZ1sWFw9rNfQacI1jszNEVkWJ3kzJtZSQAM+nQaH+zZ4P/AGc9avfiX8GL268NeHtP0m+fU/DQmnu9P1CWOMywzr9omYwTIVOWQfODg45J7P47/BTxH4/1jwr8Sfhlrdv4d8f+B5Z2065vIGuLK5t7pQtxZ3aIVfypQFO5DuUgEA1x/hD4MfGXxp8RtO+Jv7Seq6FM3h6zu7PS9E8OJcmwVr5Qk9zcTXe2SSQoNioEVVBJ5NcNLHR+qwjCtywUWpR/mld9NndWSl9m3kr7uPvPQ8L+BP7L/wAPf2ivhDofxy+OEuo+JPHXjWBtVTUv7SvLd9KFwWaGHT1hlSOBYVwBheSDuyOK8R+Ivivx941/Y/tPC/iTXp7rxH4Q+J1h4bi1s7WuJfsOpCO2u2JBVplUqWJByyknPNfVfhn4J/tZfBjRZPhd8EfFnhW78CpLN/Zk+v214dV0e3nYv5MS258i5ERY+X5hj7ZyOKs+I/2P9Qs/gF4Z+EHgfWIb3U9O8Uad4k1TUtUZ4jfzxXgu72bESS7ZJDnYmNo4BYda9yGb0o4hTqVlKPOnBa+5FX6Ne6rWXL1+VzL2btZLpqeX/tA/ADwP+zzZ+EPjb8J5NS0vxpB4n0Oy1DUpdTvLmXVbbULtLe4jvRNK6Sh9+7GAFP3cDirviD4U6N8X/wBvPx14a8X3d43hmPwbo017pttcy2keoMLidYluHgZJGjTLN5YcKxI3AgYr6x/aT+FPiL4xeAtN8LeGbi1tbuz17RtUdrx3SMwadeR3EqgxpId5RCEGME4yQOaq+H/hF4k0r9qHxb8bLi5tG0PXvDum6RBCjyG7WezmkkdnQxiMIQ42kSE5zlRXl4bPX9Wc51f3vLNJt67wcVf/AMCt26Gjpe9a2n/Dnzn8ItH0/wDZ0/aE+K3wu8DyXMPgLTPCVh4ms9IluZrmGzuTJcRzLb+czuiSCIEoGIzjHpXxv8ONX+Fvxh8H2/xT+Ofwt+Kvjzx14iMt4mt6XpWqSWdgkjN5MekSW00cSRQrgKyp8xBLZ6V+q9h8INbj/aT8U/F3UJbSbw9r/haw0JbYM5ufOtrmeWUuhQJ5bJKACHJJzlQME+IeGvgt+1j8EdNn+HHwJ8S+E9Q8CLLM+mHxHb3q6jo8M7s/kR/ZMxXKRlj5e/yzjg5Fd+Fzmi+aXPapJU7y5nFu0WpLmSbveza+1bq0RKm+2mp4kvxP+Oeq/su+C/A/iiXXvCfiXxd4wi8JHVdTtpdP1k6O07FLorKFdLiW2UIZB/Flgc819NaR+xR8Nvh/4l0Dxn8FL/UPA+t6Xdxy6hOl3dX6aza4xNb30VxOUkMnUSY3IwyB0A0df/Zg1bxT8CbH4Z+JPHupar4w0u9i1m18T3WZZodWhl82ORIWchYFPyCENjZxnPNc3/wp79pj4q614dsf2hdf8MReE/DF/BqZtvDUV6tzq9zacwfamuiFgjD/ADtHHv3HjdiuSrmVOSl9XrKnHmm5JJ+8ntZW95dEntvpe5Sg+quec/s3/AD4QeHf2q/jL4m0Xw3Fa6n4a1Cx/s+dZZi0H9oWXmXOA0hDeYzEncDgnjFfe3jjwtceM/DV14dtde1LwzLc7MX+kyRRXkW1g37tpopkGcYOUPBNeBeHPhX8XvBX7SHinx/4fvdEvPAXjv7JNqcF19pj1a1uLO2MCfZditA6OdpbzGUgZwM17Z8T/Gl98PvA+peKtK0G88TX1qqJbadYqDPczzOsUSAnhVLsN7nhVy3avHzfFVMRiqU4VOduMEru9mkk077e9ffTr1NKcUotW7n5x3PibxF4o/Y71vwj4x1a58W6rrXjq58JWsupGOW4uoY9c+zRiQIqI22CMs+FAwCcY4pnj+x/Z8/Zy1DUrL9ob4E+EZNKvXnbw5rWi+HrZ7a/blotPuYWSR7e76KGLGKTlgyYK1z2h+G/GvwensV+M3h3V7fXdD1DXfEWh32kaZdeI/C/9qa+5mD3cVin2xJbJpJIlDbVZTvVieK6bw3dfs86xeXXi39oi78UfFnxXqFtJaPLqXgnXY9NsreYYkh0+wWwMcCkcGQlpWxkvX2riouTgpSpuUpfu73bdrcrj7qSSV7vq1y3WnNv6+Z7P8Lfg2fhB+yh48bUNKstD1rxdZavrmoWGnRpFaWcl1bN5VrCkYVAsEKpHkDkgnvXg/iq2+Fd38NP2SIPjQdKXwi1u/2s628Mdh/yCPk8xpyIx8+NuT1xjmvR/hZqGg6V8IPi18PvCGu+JtZ8MabpF9Po9v4h0O/05tMtGtnX7LHeX0UT3KBs+WpG5EGDxzXPfDTXdP8AGvwY+E8PjT9nbxT4yTwppVq+nzsNHksneS1WFpVhl1RBIrp90TRZHXaGripupGpUq1G/jevwv3qckrczVrXXe1tL9b0skv61MbVtL/Y/sP2h/gM/7OD+Dm1dvEN8L3/hG7iymn+zf2Td480WrswTfjk8Zx3r6N/Zw/5L/wDtJ/8AYyaV/wCmm3rjEPg638SaF4u079lDxJpmseGrh7qwubC30CyeOWSJ4GLfZ9VjEgMbsNsgZQTkDcAa0P2QtdvfE3xd/aG1zUdEvPDlzd+ItLZ9P1DyftUBGlwqBJ9nlmiyQNw2yNwRnByBy5hNzwtR3b5aaV5SjJ39qn0b0syoK0l6/ofeVfmdYab4kvPiJ8VJtH097qBPFN1ukCnaGFpakjOQMgYNfpjXyP8ACDB8SfFtW5B8Z3mR/wBuNlWHBHDeEzV18JjY80OVO3mpKwsXm2JwVq+Eqck9rq3X1uedeFoPHUvhbFjbOfDf25p55FjaRGnjVMCQKkp2pwRuQpk85wMfS/gaLT9bvbXVLrw23iSVnRH1GXVbfUjAGIG7yn8vYF64SIEDtwBU37MEpi8L63pLdbTUnP8A31Gi9en8Fex638PPCeu3P9oT2f2XUByt5aM1tcg+vmRlSf8AgWRX6jkHhth6UIYihN20918soqzdkuaMrJa2tZ6vXU5KPFWMrUIupaTa1esW+93Fq/zR2gAUBVGAOABS15h/ZPxJ8O86NqsPiO0Xpb6kvk3IA7LcxDax/wB+P8afH8TtMsJFtfGVjdeGZydu67Tdas3+xcx7oz/wIr9K/VVjIrSouX12+/b8TxvrCXx6ev8AnsemUVXtbu1voEurKZLiGQZV42Dqw9QRkGrFdad9TcKKKKYBRRRQAUUUUAFFFFABRRRQAUUUUAFFFFABRRRQAUUUUAFFFFABRRRQAUUUUAFFFFABRRRQAUUUUAFFFFABRRRQAUUUUAFFFFABRRRQAUUUUAFFFFABRRRQAUUUUAFFFFAHzXrTef8AGLUh1+zWiDntlIzx/wB9V1Wa5C8YSfF/X5V6LBGv4hIR/SutzX8xZvO+NxD/AL8//Smfo2FVqNP/AAr8h2a8f/aA0/4i6v8ABbxlpfwlcp4vutNnj00q6xOZmXGEkdlVHIyEZiAGwSRXr2a+UP2wfE37RPg74a2Pij9nHT/7W1bTdTt5tSs47cXVzcacu4yRQxFXLF22q+weYEJKYIzU5dFzrwjFq918W3z8h15JQbd/lufk38FPGnwi/Z08AvY/tO/so6yrRuFufEmpaQmqfbb52Ix/xNIoIrdCo+VYZnDEZwSSx/R/wvpn7Mf7aX7MGteCfhFptnoOg3RcfYobGGwl0jVMb45Xt4P3YcHDFkLK65G4814Cf+Cpt34ntIfC/wALfgv4i8QfEONJRqGkYLR2TxArIy/Z45riZY5MB1eCA46lTxXrf/BPj4DfFD4W6L41+Inxcs49D134iaj/AGh/ZMJG20jLO+XRSwjZmkbEe5iiBQxDblH2+cOpGlLFV4unVTTiue93fpF3aS3vt20PHwnK5KnB80ba6Wt8z4Q1D9rX4h/Dz9mzxL+x54wguk+L+mXieF7Lyt7NNp1zhRIs2PvBG8uPkFkeNl749g/bM+C2nfA3/gnj4V+HVuE+1aRqOnyXkkY2ie9nWQ3EhByeWYgc9AK7L4U+CNZ/aX/bu8X/AB08X+H20vwx8LZzpGmJPb+TLc31rlI3lz8zlAWlBPChogMYr0r/AIKpWGr6r+zTa6fo9vJdSXGv6fGUjTeSZN6Rg8cbpCqjpkkDvXR9dgsdhqFNKLclOdtuZrb5Lp5mfsZOjUnJ3sml6L+vwPHP2f8Axv4g/YS+JVp+zz8Xb9rn4X+MgL3wvrki7Y7Se4IZ7eYgYUFmxJyAr4kwFkO3vP2i0L/8FHP2e5bXG97O7JZSASircE89xtzX2r8U/gT4R+PnwYj+GHxItiqzWkBSeLieyvI4xtmhLdGRsgg8MuVYEEivyf8Ag78DP2qfCH7Zvwz8O/FOyvvEPhr4bpeQaf4iW2leyfTZLeYQo10FKhgzBRFI29Pu5K7CeLA4uhiJVMU5KNRQmpL+b3WlJefdfM2rU501GkleN1by12f6H7vZrl/HJ/4orxB/2D7v/wBFNXTZrmfGkVxceDtegtInuJ5LC6WOOMbndzEwCqO5J4A9a+EpS95HtS2PxP8A2TPi3+x54f8A2OdL8D/tM6lo14J9W1No9OubZ9Su4GkGBMsNvHNNbMUYhJsJ1+Vs16H/AME9vG6/Dr4a/G3xxp8d/H8HtCu59Q0CTUjsdhEshljXqM7ViDlWI3Hn5s58r+A3/BNLQPi/+zdaan45stX+HXxJF5ehZruGVPMiVwIRc2NztOzAO0xmJjncS4wK+mPgn4Y/aa8T+APH/wCxn+0J4f8As+n2mhSWWkeKrOHZYSxOvlQxCRY0jl2DDDCrKFUiVNxzX6ZmtfCSjiI0ql7zTmm9lzbwXX7726HzuGhVTg5RtZaW9Nmc1+xr8AY/2ir3Wf2vP2m9NtvFWpeLppU0bTdQjS6srWwQlFYW8imMgYKRAg7VG/77kj6G+Mf7FvwZh+DnxasPhn4Zg0HVPGVitxIlqZFtvtGmgz2yw2yt5USiQE7Y0XJY+wHyL8Mv2gf2xv2bPh7b/AG9/Z21bxVqXhRZLGx1ixW7k094zloHP2e1ljmVd3zFZ0JHytsYNX6DfssWn7TbeC9S1f8Aaj1C0m1vVrtp7TTraG3T+zbUjHkO9uNj88jLSMB96RiSF8jOKuLpVZYlVUoJrlipbxTurJX0Vk3e33nVhI0pRVPlbdtW1166/wCR8I+C/wBqoeH/APgmIfFL3H/FQ6bbSeFIArbn+0kmGB2yQeLciQ9+O5r03w18Hf8AhSn/AATL8V+HLuJY9W1LwvqWqagQPmM95A0gVjgE+XHsTn0/Gvh2w/Zj8Y3f7dN1+zy8dyPh5Z6+fGTxbFEP2Nl3o+/b0Y/6NjPZgORmv2n/AGptD13xH+zh8RvDvhWwk1LVNQ0O8t7a1gQvLK8kZXZGi8sxH3QOSeAD0rqzWtRo1aVOjLSpNVH5J/CvlqzPDRnOMpTWsVy/5/ofAnwP/Yd+AP7Q37IfgHUvEOiLoniefTWK63pYFvdmQzMd06geVc52hSZVZwuQjoTkd3+xR8Rfin8Pfit4t/Yy+NGpNr1/4Sthe6Hqbb3afTgVXaztltoWRDGGJK/MmSFWvnr4A/8ABR74Tfs+/Bbw/wDBzx34S8Tp4p8J28tndQraW0cYuEkc7GM1zHKnUBt0WVOeDjn6I/Yz8B/FT4j/ABm8Z/tj/GTQp/Cl34ktxpmiaTcKyTQ2AKEuwcI5XEahGeNS/wAzgBCuazOGJjTxP13+G23C+/NfTl62tv0sLDypuVP2PxdbdrdT9Pc0ZpuaM1+d8x7xzHjY/wDFL3/+6v8A6GK9l8A/8iVon/XpD/6CK8f8Wp5nhvUFxnERPP8As8/0r1T4Zy+d4D0Z8k4h28/7LFf6V9/4ay/2+qv7n/tyPD4hX7iL8/0O6ooor9sPjwooooA//9L9/KKKKACiiigAr5U+OrCX4jeBoE++jSOfpvT/AOJNfVdfJ3xqYSfFnwfAn30hdz9Nzf8AxJrxs+f+z284/mjzs0/g/NfmcV8SvCHjnWvEvg7xf4AvNNtNS8J3F5Oo1OOaaCT7XbPalSkLxscLIxzvGCBwRkUv9rftXf8AQS8Ff+C7Uv8A5Nr1jNGa8DH5Ng8VNTxNJSaVrvtq/wBWc9HH1aceWDsjyf8Atb9q7/oJeCv/AAXal/8AJtH9rftXf9BLwV/4LtS/+Ta9YzRmuH/VPK/+geP3G39rYj+Y8n/tb9q7/oJeCv8AwXal/wDJtH9rftXf9BLwV/4LtS/+Ta9YzRmj/VPK/wDoHj9wf2tiP5jyf+1v2rv+gl4K/wDBdqX/AMm0f2t+1d/0EvBX/gu1L/5Nr1jNGaP9U8r/AOgeP3B/a2I/mPJ/7W/au/6CXgr/AMF2pf8AybR/a37V3/QS8Ff+C7Uv/k2vWM0Zo/1Tyv8A6B4/cH9rYj+Y8n/tb9q7/oJeCv8AwXal/wDJtH9rftXf9BLwV/4LtS/+Ta9YzRmj/VPK/wDoHj9wf2tiP5jyf+1v2rv+gl4K/wDBdqX/AMm0f2t+1d/0EvBX/gu1L/5Nr1jNGaP9U8r/AOgeP3B/a2I/mPJ/7W/au/6CXgr/AMF2pf8AybR/a37V3/QS8Ff+C7Uv/k2vWM0Zo/1Tyv8A6B4/cH9rYj+Y8n/tb9q7/oJeCv8AwXal/wDJtH9rftXf9BLwV/4LtS/+Ta9YzRmj/VPK/wDoHj9wf2tiP5jyf+1v2rv+gl4K/wDBdqX/AMm0f2t+1d/0EvBX/gu1L/5Nr1jNGaP9U8r/AOgeP3B/a2I/mPJ/7W/au/6CXgr/AMF2pf8AybU/wo8HeK/CcPie+8aXtle6t4m1mbVpTp8ckVunmwQQ7FWVncY8nPLHrXqOaRnCgsxwB1JrvwGUYTCycsNSUW9HYxr46rUXLN3Rlfs5AnVvHMkf/Hu19H5fr96bPPToRX1HXzR+zBEZfCmtaqww13qTjnqQsaN9OrnpX0vX0GQr/ZIfN/e2zqyxfuI/11Co5Yop42hmQSRuMMrDIIPYg1JRXrneeb3Xwv8AD6TvfeGZbjw1eOcmTTpPKjc/7cBBiYfVPxqD7V8UPDv/AB92tt4qtF/5aW5FneAepjcmJz7Ky59K9PorkeCgtafu+n+W34GDw8fs6en+WxwOl/ErwpqF0NNu530jUT/y6aihtZs/7O/5X/4AzV31ZuqaPpOt2rWOsWcN7bt1SZFkX64YHn3rgj8OZ9G+fwLrd1ogHS1kP2uy+nlSksmf9h1xS5q0N0pLy0f3PT8V6BepHdX/AK/rqen0V5h/wlPjjw/8vivw99vgXrd6OxmH1a2fEo99peun0Dxr4W8TkpomoxTzJ9+AkpOmOu6J8Ov4rV08XTk+W9n2ej/Hf5FRrxbt1OoooorpNQooooAKKKKACiiigAooooAKKKKACiiigAooooAKKKKACiiigAooooAKKKKACiiigAooooAKKKKACiiigAooooAKKKKACiiigAooooAKKKKACiiigAooooA+Y5wU+LHiJW4JjQ49isf+NdbmuX11fs/xg1E9PtNrGfrhIx/7LXTZr+XM5XLjsRH+/L/0pn6ThHejTfkvyHZozTc0Zrzuc6LDs0ZpuaM0c4WHZozTc0Zo5wsOzXM+NPDX/CZ+FNV8K/2rf6H/AGpA8H27Sp/s19b7/wDlpbzYbZIOzYOK6TNGaqFVxakugnG6sz4e/wCGIf8Aqv3xb/8ACq/+5q1tB/Y2/sHXNO1z/heXxS1H+zrmG4+zXnibzrafyXD+VNH9nG+N8bXXIypIzX2XmjNem8+xTVnP8F/kcywVPsOzRmm5ozXlc51WHZozTc0Zo5wsOzRmm5ozRzhYdmjNNzRmjnCw7NGabmjNHOFjI8SFP+Ef1Lf0+zy/ntOP1r0L4SiQfD3SPN67Zvy858fpivM/Fknl+HNQOcZiI/PivWPhpF5PgTRkwRmDdz/tMW/rX6D4Zq+YVJf3H/6Uv8jwuIn/ALPFef6M7qiiiv3M+LCiiigD/9P9/KKKKACiiigAr5M+NCmD4u+EbpvuyW7Rj67nH/swr6zr5X/aHj+z+J/AmpDot1LG303wkYH0zXi5+v8AZnLs4v8AFHnZov3LfZr8zY3UbqgzRmvP5jybk+6jdUGaM0cwXJ91G6oM0Zo5guT7qN1QZozRzBcn3UbqgzRmjmC5Puo3VBmjNHMFyfdRuqDNGaOYLk+6jdUGaM0cwXJ91G6oM0Zo5guT7qN1QZozRzBcn3VUv9zWNwqNtYxvg+hwakzQT60m7qwrmn+zMyN8NiEXaVvZwx9ThDn8sD8K+hK+aP2XW2eDNXsuph1OQ59cxRDp/wABr6Xr1sjlfCU/Q9vLn+4h6BRRRXqnaFFFFABRRRQAVzGv+DPC/igA65psVzKv3ZsbJkx/dlTDr+DCunoqKlOM1yyV0TKKas0eYf8ACKeNdA+bwn4hN7AvSz1dTOv0W4TEq+27fR/wsW60X5PHWhXWjKOt1EPtln9TJECyZ/20GPWvT6K5vqrj/Ck15br8dfuaMvYtfA7fiv69DM0rWtI121F7ot7DfQN/HC6yL9CVJwfY81p1weq/DbwpqV0dSt7d9K1E8/a9Pc2s2fVjHgP/AMDDVmfY/if4c/48ry28VWi/8s7oCzvAPRZUBic+7IufX1Pb1I/xI/Na/hv91w9pJfEvu/y3/M9Porze2+J+gxTpY+KIbjw1eOdoTUE8uJj/ALE67oWH/Ax9K9EimiuIlmgdZI3GVZSCpHqCODW1LEQn8DuaQqxl8LJKKKK2LCiiigAooooAKKKKACiiigAooooAKKKKACiiigAooooAKKKKACiiigAooooAKKKKACiiigAooooAKKKKACiiigAooooAKKKKACiiigD5r8WMH+LxEfHl2ah8c5+Xv6dRXQ5rl9Wf7R8XtaccrDbxqCPXZFnP4k10ua/lniCrzZhiH/fl+dj9KwMbUKa8kPzRmmZozXk8x1D80ZpmaM0cwD80ZpmaM0cwD80ZpmaM0cwD80ZpmaM0cwD80ZpmaM0cwD80ZpmaM0cwD80ZpmaM0cwD80ZpmaM0cwD80ZpmaM0cwHNeND/xTF//ALq/+hivbfAP/IlaJ/16Q/8AoIrxTxcA3hu/B5Hl5/Ig17J8OHaTwNorOckW6j8BwP0FfpXhdL/baq/ufqj57iT+DH1/Q7Wiiiv3I+MCiiigD//U/fyiiigAooooAK+YP2mAPsfhZu4vzz+Ar6fr5l/af/5FjQ/+wkv/AKLevIz7/dKn9dUcOZ/wJDNxo3Go80ZrxeY8PmJNxo3Go80Zo5g5iTcaNxqPNGaOYOYk3GjcajzRmjmDmJNxo3Go80Zo5g5iTcaNxqPNGaOYOYk3GjcajzRmjmDmJNxo3Go80Zo5g5iTcaNxqPNGaOYOYk3GjcajzRmjmDmJNxo3Go81T1Kf7Np91cZx5UTt/wB8qTSc0lcHI0v2YYzL4c17VO1zqLAenyxq3Tr/AB19N18//s02n2f4ZpNjH2q8nk+uNqf+yV9AV7uRxthKfp+ep7uXRtQh6BRRRXqnaFFFFABRRRQAUUUUAFFFFABRRRQBBc2tteQPa3kSTwyDDJIoZWHoQeDXncvww0qyla78HXtz4ZuCd2LN82zN/t20m6I/gB9a9LorGrh4T+Jf5/fuZzpRlujzD+1PiV4c41fTIPEtonWfTj5Fzgd2t5W2sfZJPwrY0X4ieE9buv7OjvPsWojhrO8Rra5B9PLkCk/8ByK7esbWvD2heI7b7Hr1hDfw9lmQPj3UnkH3HNY+xqQ+CV/J/wCe/wB9yPZzXwv7/wDP/hzZorzA+AtY0P5/A3iC4sEXpZ3ub20x/dUOfNjH+7J+FH/CZ+KtA+Xxn4dkMK9bzSibuH/eaLAmQf8AAW+vofW+X+LFrz3X3r9Ug9tb41b8v69T0+iue0HxZ4b8TxGXQNRhvdn3lRv3if76HDL+IFdDXVCcZLmi7o2jJNXQUUUVQwooooAKKKKACiiigAooooAKKKKACiiigAooooAKKKKACiiigAooooAKKKKACiiigAooooAKKKKACiiigAooooA+YL0GP4seIY34ZokYfQpEf6109c74iXyPi/qB+79otYz/AL2EQf8Asv6Vv5Nfyjn65cfiI/35fmz9PwLvQpvyX5D6KZk0ZNeTznSPopmTRk0c4D6KZk0ZNHOA+imZNGTRzgPopmTRk0c4D6KZk0ZNHOA+imZNGTRzgPopmTRk0c4D6KZk0ZNHOA+imZNGTRzgYfild/h7UFBx+6Y/lzXrfwxkEvgLRmAxiEr/AN8sw/pXkviQn+wNQ/64v/KvVfhX/wAiBo//AFzf/wBGNX6V4WS/2+p/g/8AbkfPcSr9xH1/RnoNFFFfvR8QFFFFAH//1f38ooooAKKKKACvmX9qD/kWND/7CS/+i3r6ar5f/aa/48fC/wD1/n+QryM+/wBzqf11Rw5n/AkQbjRuNQ76N9fPcx4FybcaNxqHfRvo5guTbjRuNQ76N9HMFybcaNxqHfRvo5guTbjRuNQ76N9HMFybcaNxqHfRvo5guTbjRuNQ76N9HMFybcaNxqHfRvo5guTbjRuNQ76N9HMFybcaNxqHfRvo5guTbjVPUITd2FzaD/ltE6f99KRU2+jfSburA2jq/wBmi++1/DUW3exvJ4fzCyf+z19BV8s/s1z/AGa48YeHzx9kvEkUeofehI/74H6V9TV9HkU+bCU/JW+7Q9/LZXoR/rYKKKK9Y7gooooAKKKKACiiigAooooAKKKKACiiigAooooAKKKKAMibQNBubwajcabbS3a9JnhRpB/wIjP61r0UVKilshJJbBRRRVDCiiigAornfFnifSvBnhy/8T60+y00+IyPj7zHoqL/ALTHAHua+ef2ffiz4y+IHiLxLp3jJRAUSC9srfy1j8m2nyQoIAZgVKEFiTz71hPERjNQe7Pmcy4tweFzDD5ZUb9rWva2ysm7y7Xs1He7T7O31RRXivxg+KN34HgsPD3ha1Gp+LNffybC2PRcnBlkGR8oPTJAJzkgA159N4K/aOg1TwlqN/4xGtQx30UmpWtvFDYxwxZG/LoENwmMgqVznBCnqJnibScYpu3Y4cz40hRxE8LhsPUrShy8/Ik1Dmasm3JNuz5moqTS1dlqfVdFfMFn8QJvD/xm+IU/ijWHi8O6Lp9pIsMkhMUbsqf6tOm9ySMDliQOeKu/B7WfiB8R/E1/8T9Zlm0rwvNEbbS9MJO2VN2ftDjoW44bGTkgHaOVHFxbUUtbv8OpjhOPMPXxEMJSg3UlOcbK2kacnGVSXaN1ZdW3ZJu59JUUUV1H3QUUUUAFFFFABRRRQAUUUUAFFFFABRRRQAUUUUAFFFFABRRRQAUUUUAFFFFAHzV41Hk/FuIjnzrNT9MBh/7LWvurM+IK+V8WNMI586xyfbHnD+laNfypxcuXM8Qv7zP0zK9cNT9B26jdTaK+d5jv5R26jdTaKOYOUduo3U2ijmDlHbqN1Noo5g5R26jdTaKOYOUduo3U2ijmDlHbqN1Noo5g5R26jdTaKOYOUduo3U2ijmDlHbqN1Noo5g5TC8Uy+X4evz0zGR/31x/WvZPhpD5HgTRkORmDfz/tsW/rXh3jWTy/DV36tsH5uv8ASvoXwZD9n8IaJERgrZW+R15MYJ/Wv1XwmhfF1p9o2+9/8A+a4ndqUF5/odLRRRX7wfEhRRRQB//W/fyiiigAooooAK+W/wBpVi0vg6A8xveuWHrgxj+pr6kr5W/aSfdq3ga2PCyXcxLemGgH9a8XiF/7HP5fmjz80/gS+X5orZozUW+jfXzXMfPkuaM1Fvo30cwEuaM1Fvo30cwEuaM1Fvo30cwEuaM1Fvo30cwEuaM1Fvo30cwEuaM1Fvo30cwEuaM1Fvo30cwEuaM1Fvo30cwEuaM1Fvo30cwEuaM1Fvo30cwFn9nlTJ4x8dXC/dSaFD65Lzf/ABJr6ur5U/Zx/wCRj8f/APX3B/6Mua+q6+k4d/3SPq//AEpnv5V/Aj8/zYUUUV7Z6IUUUUAFFFFABRRRQAUUUUAFFFFABRRRQAUUUUAFFFFABRRRQAUUUUAFFFFAHw18fNW8bfE3x3H8KvAmkpq0Hh7yr69jaZVinchdqSlmj2qm7G0PuJJ6YGLnh5PHHhL9orRL3x/FpdrP4o017RU0vzFgUQKNikSjO8FFXAJGMYPavpjwb8NfD3gjVte1zTHnuL7xFcm5uZbhldgSS2xCqrhAWPByfUnApfGnw40LxzqOhatqc1zbXfh25F1ayWzqh3ZUlX3K2VJUZxg+h615jwc2/aN+9e9umn/APxKt4e4+pVlm9Sq3iXVhNQ5lyKEJtRj8Kd/Zt63tzN9W2/FPCoh1X9qbxZcayP8AStJ06GOwR+qxuqb3QZ7hjnH9419D6h4w8L6Vrth4Y1DU4INV1PP2e2Z/3kgUE5wOgOCATgEjAyeK4rx58GvCvj7V7LxHc3F7o+tWA2x32mz/AGe42c4UsVYcZOCAG7ZxxVfwL8D/AAV4E1i48S25utY1y5Zi2oanMLi5G8ANtYKqgnu2N5BI3YOK2pQqQbikrN3ufR5Nl2cYGtVw9KlBwnVlN1HJ/DKXM1ypXc0vdWvLon5HxP8AFDT7i9+OHivXJNNl1zQNCuLK51WyikZC8KxhdxA6hDnJ7AnopJH6IeC/E/hnxf4bs9a8IzRzaY6BI1jGzytgx5bJ/AV6be3GOMGuT8NfDCHw98Q/E/jw6h9pHiRIkNsYgoiCAZ+fcd+cf3Rj3qn4a+CXhPwb4xn8X+Fbq/0sXRLTadDOBp8jFSuWhKknBYso3YU/dAHFZYbDzpycrbt3+/8ArQ8Tg3hTM8qxtbFqnFxr1JuabSlFc8nCcZK94uL1g3dN3Vm5I9hooor0j9lCiiigAooooAKKKKACiiigAooooAKKKKACiiigAooooAKKKKACiiigAooooA+bfiE3m/FfTR08mxA+ufNP/s1X8msvxs3m/FlAePJs1A98hj/7NWlkV/J/GNS+aYj/ABM/T8pj/s1P0HZNGTTcijIr5rmPQsOyaMmm5FGRRzBYdk0ZNNyKMijmCw7JoyabkUZFHMFh2TRk03IoyKOYLDsmjJpuRRkUcwWHZNGTTcijIo5gsOyaMmm5FGRRzBYdk0ZNNyKMijmCw7JoyabkUZFHMFjm/GEfneHL1fQK3/fLA1754DuftfgvRJjyfskKH6ooU/yrxPW0EujX0frBJ+e016d8IJzP8PtMz1j85PylbH6V+q+Ete2Oqw7xv9zX+Z81xRD9zGXn+jPS6KKK/oA+FCiiigD/1/38ooooAKKKKACvl79puPy7DwxqX/Ptflf++lDdP+AV9Q184/tQQrJ8PLWU8NDqMLD8Y5R/WvIz6N8HU9PyOHMlehI5DdRuqrFIZIkkPBZQfzFSZr4/mPmbk26jdUOaM0+YLk26jdUOaM0cwXJt1G6oc0Zo5guTbqN1Q5ozRzBcm3UbqhzRmjmC5Nuo3VDmjNHMFybdRuqHNGaOYLk26jdUOaM0cwXJt1G6oc0Zo5guTbqN1Q5ozRzBc3/2aFLjxdd/wy3yADuMbz/7NX1JXzH+y+oPhvXZiPnfUSCe5xGpH8zX05X12QK2Dp/P82fS5Yv3Ef66hRRRXsHeFFFFABRRRQAUUUUAFFFYfiXxDpnhPQL/AMSaxJ5Vnp8TSyHjJA6KM/xMcADuSBSbSV2ZV68KUJVajtGKbbeyS3Zbl1jSIdTh0Sa+gj1G4RpIrZpVE0iL95ljJ3FR3IGBWjX5waZN4sj+Ingr46eLnaEeK9Ukt4rc8eRZsojhwCc7SGYj2G7q1fcnxG8f6R8NvC9x4l1ZWmKkRwQJ9+ed/uRrwcZ7nHAycHoeShi1JSlLRL8j8/4X8QKeNw+KxWKh7GFJ397d03FSjN9uZO9vlud3XEeGvH+heK9f8QeG9MWZbvw3MkFyZECozOCcxkEkgYIOQOfbmuL8M/Eb4j6jr2naX4q+HN1odnqSuUu472K8SIqu798qIpiBHHzEHPAUnOPJ/BPjPw74K+IHxg8UeJbhbS0tr63TJwXkYLIFjjHBZmxwo+p4BNE8Urxa2vrfTpfqPMOOaMauElSly0pTlGbnCUGlGlKd/fUWtk72s0fYdcn4v8ceFfAdjBqXi2/XT7a5mWCN2R3BkYEgfIrEDAOSeB3Ncp8JPGHjHx3odz4l8TaRHo9ldzFtMjBbzntD915QxIyexGAw5CgYJ8t/a4sP7Q8AaRAR8smr20ZbjK+Yki8df5VVbEWpOpA6+IOLZU8iq5vgI3ajzRU01fXqtHZrVbaWZ9TRyJKiyxMHRwCrA5BB6EEdq5q38aeGLvxXdeCIL5W1uyhW4lttrgrE+MMGKhT94cAkjPIrw34R+J9U8Da9L8DvH05a8shv0W8cYW8sudqAn+NAMAc9Cv8ACM4/iJotF/as0jUgm1bvQ53lIGNwiSU5z34QCoeK92Mkutn5HDX46k8JhsTSgk5VYUqkZbwbfLJaPdOzT1Tjqt0z6yoryLwF8Uz4y+Gt18RLjThZJbLdv5Al37kttxzvKrjcB6cV5brn7SNxp3g/wT43/syKzsfEV3LHeRyO07w28DbWMbKI8uRyMrjtg9a0li6aipN+Z6mL8QMqoYeGKqVfclBVFo/gcox5tVprOO9nre2jPq+ivkKH9qDxFcapb6JD8Ob57/VIVuNNgW6BkuIXfCySL5X7pdgZt3zAY5+U7q9k+FPxQk+I8Oswaho76FquhXRtbq0eUT7Djg7wqdSGGMdupzRTxlOb5Yv8GTk/iHlGPrxw2Fqtzd7XhOOqV2ryile2tr3trax6zRWF4l1DWdL0W5vvD+knW9QjA8q0WaO38wkgHMsnyqAMnPPTgV5dpvjv4y3OoW1vqXwuNlaSyKss41q0lMSE4Z9gUFto5wCM1pOsouzv9zPbzDP6GGqxo1Izbf8ALSqTXbWUISivm1bd6Ht1FFfO/jD4x+LG8Xah8PPhX4XPiDWNOiVri5nmWG1t2fBAYErv4PTzEOemcGirWjBXkGeZ/hsupRq4lv3nyxUYuUpSs3aMYptvR9PN2R9EUV4DoPxX8R6F8P8AWvFvxg0oaTdaReSWyxW0Mka3IG0RmFZmJfexIDZ2kc9jWDP8fPF+hPot344+H8uh6Vrc8cEU/wDaUM84Moyv+jBFk443A4I784ByeMppK/5P8ex4dXxByunCE60pR5kpWcJtxTfKnO0WoJu6Tk0nZ66H05RXz342+PD+E/Hsvw80/wAM3Ot6m9tFLaLbSDM0sh+44K/u0VQS0mWx3XGSOdb9o7VrTQfEOqat4Ne0vPC99bWl9bLfLKI0uNwMnmrFtOxlA2gHOQd3WiWNpptN7eTJxPiRk1GrUo1KzvByUvcm0nBNyV1G10k3a97K60PqaivJPiL8WLLwPomianp1l/bVx4iuIYLKBJfK80TAHfv2vwAR25yOnWsvxV8XdVsfF7+BPAXheTxZrFpCJ71Vuo7SG2V8bFMsilSxznBx2xk5AuWJgtG/6Z6WN4xy7DznTqVLyi4ppRlJtzTcUlFNybSbtG7S1aS1Pb6K8I8J/Gz/AISHw94u1HUdDfTdU8HCX7VZi5S4jZkRmCrcRrtJJQg/Kce9edN+1FrFx4XbxppPgK5uNEtREt3dy3iQRxzyNtMcOY2aYKcAsoGD1AGCYeNpJJt/gzy8R4lZLSpQqzrO0oykrQm3yxbUm0otrlafNdK1tbH15RVWxukvrK3vYwVS4jSQBuCA4BAPvzVquo+4hJSSktmYC+KvDr+I38IpqEJ1mOEXDWob94IicBiP1x1xg4wc1v149o/ivQtS+M+u+FItAgj1TSbCGR9VGwzSJJsPkkhAwA3DguRx0Fea3Xxt+JnjF9Tb4OeD0vtN0mZ4n1G/kPlzeUhLLFAjRuzEgbdrOeRuVdwxyvFRS111ey7HxFXjnC0ISlWlzyc5xjGnCcpPkdpK1m7x+1LSPmfVdFfLPiz48eJvAnh3wJr3inRktX14THU7cxSJPEYlGFhjZsqSWHDk+hx1ra8D/GjxVrHjm08H+OPCp8NnXLVrzTSZxLIY0XJWUADDHax5CEcKV7kWNp83L1/zFS8RsqliY4PnkqjcFZwlp7SKlDmdrR5uZJczXvXXR2+jKKK8St/jp4PPxF1jwLqF7Y2NvpUMbLfTX0SpNM2A8Kq2AGQkgjeTkEECtp1YxtzPc+lzPO8JgnTWKqKPO+WN+rs3by0T1dl56o9trk/GHjrwn4B01dW8XakmnW0jiNCwZ3dj2REDO2OpwDgcniurBDAEHIPevjj9rHwF4dl8Oy/EG5M8urqbWxt1aU+TGDIWJWP+8QSDyR3255rPFVZQpuUVseNx1neLy7Kq+NwUIynBN+82lZK7emr8ldX7o+wra4iu7eK6tzuimRXQkEZVhkHBwRx61NWdo8TQaRYwv96OCJT9QoFaNbo+qoycoJy3sFFFFM0CiiigAooooAKKKKAPmLxSxk+Ll6G58q1jC+3yKf6mtWsTXf8Akruun/p3i/8ARcNa9fyDxXUvmeJ/xy/Nn6rlkf8AZ6fovyJKKjorwOY7rElFR0UcwWJKKjoo5gsSUVHRRzBYkoqOijmCxJRUdFHMFiSio6KOYLElFR0UcwWJKKjoo5gsSUVHRRzBYqar/wAgy8/64yf+gmvRPgz/AMiBY/8AXSf/ANGNXnGqH/iWXn/XGT/0E16P8Gf+RAsf+uk//oxq/UfCV3zKf+B/nE+b4oX+zr1X5M9Tooor+jD4AKKKKAP/0P38ooooAKKKKACvnb9p0gfDiEE9b+HH/fElfRNfNX7UpH/CAacvc6pFgf8AbCavJz12wdT0OLMf4E/Q4e3OLeMHso/lU24V+ZfxG/bV+Nc3xU8S/BL4GfCf+3/EGgXqWxvpp5bm1CEj95PDEkCwq2cB3uVVTySeldr8Gvjz+11ffFO3+HHx1+EC6baXy7/7X0pZBY2ahGfMs3m3UEpYgLtWZHUn7rE4r5V4Coo8zttfdXsfPPCzUbu33o+/9wo3Cvlr48/te/Bj9nieHS/Gt9cX+tThZF0zTY1nu1ibpJIHeOONfTe6sw5UMAcYvwO/bU+EXx/vtU0bwVa6vbatpds939jvLNRLPDHjcYmgkmizkhQrurEngEZIyWFqcntOV2IVCfLz8uh9f7hRuFflpZ/8FRvA+jalqmifFL4d+IfDGp2E5iW1iENxMFAz/pCXBs2hk6fJh/8AeroNO/4Kj/ALVNQtdMtPDvilp7uVIYx9jszl5GCrwt6SeT2BPoK3eW119g0eCq/yn6V7hRuFVo5BJGsgBXcAcMMEZ9R2NeGeBf2jfhl8SPih4m+E/hG7lvdW8KRq91OqqbR237JEhkDku0TYV/lC54BPOOKMW02lsc8YtptLY983CjcK+Jf2kv2udY+BXj3w78OvC/w9u/Hmr+IrWS5jhtLl4ZfkYjZHHHbXDSnCszYxtA/Kh8Ef217D4kfED/hU/wATPBOo/DLxhcr5ljZaiXcXKbd2N0sNu6OQGKqY9rAcPn5a6Fg6rh7RLT5fluarDVOXntofdO4UbhXzZpf7RGn6p+0rq37OcejSLPpekrqZ1HzgVZiU3ReTsBGFkUh95ycjaOp9d+IHjSy+HfgvWfHGpWV3qNpolu91NBYxia5eOPlvLRmQEgcnLAYBOaxlTkmk1v8AqZuEk0mtzttwo3Cvys03/gq78HpdS1GLV/CGvW1hE6iymg+yzzToR8xmiaaJYSDwAskoI5yOlfe3w0+M3g74ofC+0+LumGfSPD91FNMW1RUtnhjgdkd5PnZAo2k7g5UjnNbV8HVpq842NKuGqQV5I9d3CjcK/OLxF/wVA/Zw0LW7vSLK017XIbV9i3tjaW/2abgEmP7RcwyEA8ZaNckZGRgn3H4uftUeGPh78Abb9oDwrp7+KdJ1B7ZbSEu9gZVuHKbmaSJ2Tbg/8szkj0OabwVZNJxeuwPDVFZOO59WbhRuFZGkaiuraTZaqiGNb2COYKTkqJFDYJ9s1862H7Sun6t8ZvHnwh0vQ5Lk+A9KGoXF8LhVWWfaHNuIigI4YfvAzDOQVGMnCFOUr2WxnGEney2PqHcKNwr8l/Dn7a/7Wvxz8m6/Z7+C9qLGFZftFzqdxJc2sjqVAWK6ZtOhV1z8ybnY5yAADn6B+Df7SXxr1PwX431n48/C658KXfgmzmuzcRpLbWuotEZCYrdLjcflVR+8SWVGzuBUEA9VTAVILW1+11c3nhJxWtvvR9z7hRuFfm38If8Agpn8E/HksemfEG1uPAOpTPsRrhje2DFnCoPtMaIyE5yxkiSNACS9fopY39lqdnBqOm3Ed3aXSLLFNE4kjkRxlWRlJDKRyCDgisK+HqUnapGxlVozg7TVjvP2Xv8AkV9b/wCwi3/otK+m6+ZP2Xv+RW1v/sIt/wCi0r6br6/IP9zp+h9Jlv8AAiFFFFeudwUUUUAFFFFABRRRQAV8kfHmC8+I/wAQPCvwYsJbiC1nDX+pvE21fs4OBkH5SV2sRnI3FeM19b0VjXo+0jyt6HznFPD6zTCPBTnywk482nxRTTcd1bmtZvXS+h8M/Fb9nXwV8PvhldeIvB1vczazo00V19rnnd5jEsg3DYm2L5Qc5CAgDOa634va5b6ppvwx+KN5bPdeGbK6jvL8Ihk8oTImx3UdQjAg8dcDnIFfXNIQGBBGQe1c7wMVdQ0Tt+B8nX8MMLBV6eXtUYVI01yqCtz05uUZPVc19pJ6yX2jxzSPj18NfEfiLTfC/hm/l1e91PJH2e3lKQoEL7pWdV2jscZKn7wHWvlzTfg1p/xf8efFO7uryazvdO1F47Er8sKzszkPICCTjYAcYwCT1xX3bo3hvw74cjli8PaXa6Wk7b5FtYEgDt03MEAyfc1tU54V1Evau9v8jbM+BaubworPJwmoSlJxjFxi04OKV3Nu6b5r99LK1zw/4H/EHUvFui3nhzxTGYPE/heQWeoKcYcgkJKMf3gvOOMjI4IrjP2r55IfBGhpGcs2tWpC9dxVXI9/yr6jrP1HSdK1iOKHVrKG9jgkWaNZ41kCSp911DA4Zc8EcirnQk6Xs29e56WY8LYnEZHPKamI5puPLztatX0ur6u1k31etlex598VvhnZfEnQUtkm+wazp7efp16uQ9vOvI5HO1iBuA9iOQK+VvCmteMfF3x40jRfH2nmz8QaLo97Y3Drwk+Uk2TrjgB1fqMqTyMZwPvqilWwinJSTt387HPxFwFTx2MpY2nVdNqUHNJXVRQd43V1aS2UlqldNNWt+f8A8PPiv4E8HfBjWvhx4o1FtO1+NdTtvsz287nfIGVcskbKMk45PHesxYLXUfhn8DtPvVSS0n1Z1mDjcn+vI2sCCMEE5BHNffk2gaDcan/bU+m20moeUYPtLQoZvKbrH5hG7acnK5xTrfQtEs7S0sLTT7eC2sG328SRIscLjI3RqAAp+Y8gDqfWudYCVuVy0Stt5p9/I+Rp+F2NlSjhsRiYOEKapRtBp8qqU5rmvNptqFnZJa3PnnXmXTP2pfDLj5U1PRJ4eneNpGA9vuio/ho50v8AaD+JWh7Nq3kdrfDjGflGT+PmV9Fz6Hot1qlvrdzp9vLqNopSG5eJGniVs5VJCNyg5OQDT4tH0iHU5tbhsYI9RuEWOW5WJRNIi/dVpANxUdgTgVv9WfNe/W/4WPqocF1Y4pYhVFpXdVafZlT5HH1bdyn4l/4Sb+xLn/hDzZjV8L5H28SG2zuG7f5Xz/dzjHfHavMNJH7Rh1S0Gunwounean2g2wvzP5Wfm8sOQu7HTJxnrXtlFdE6d3e7Pqcfk31irGr7acbdIysnrfVW/pBXwl4/1f8AZv8AEPi3UdZ1PWdU8GeLdNupYZLi1juI5nlhURrJhElQLxxgxued2Mg1921z+r+E/C3iC5gvNe0ay1Ke1/1UlzbxzPHzn5GdSV554rLFUXNWVvmeNxrw5WzLDxo0fZuzvapByXk04yjKMlrZp+R8N6te/ELx3+zjpHiLUnnu5NE1YTtc+SJZprG2yq3Jjc4kKEnOTyFJY9TV/wAN+MP2f9EuU8W32taj8RPGpCeR9qtrh5jMxG2O2idBDHhjlQWYr/AegP3rWfb6TpVpfXOqWtlDDe3u0TzpGqyyhBhd7gbm2jgZJx2rm+otNNO781fbrufIPwwxEK1LEU8RGc1CEW6sJT1gmlOK9ooqWunMpNb33T+bPD0ov/2nb+/ltmt5JPDlvII5lAliLshKtjOGGcHBr3bxD4L0HXtC1zRGs4YBr0TpcyJEoaSQrtWRyACzJwQTkjAreTStLj1KTWI7OFb+WMRPcCNRM0anIQvjcVB5AJxV+uunQsmpa3b/ABPuMm4ZjQo16OItNVJzlt0nuvu0Z8FfAnS/EXjTxvp1p4rjP2P4WwSWUYJOHvGldUY9sqgH/fK+tYnia00vw78VvGOlfFDxVqXhbRNduDeItlA2NRgYMqIbiJZHCoGKtGUKnnJDAV+iFUtQ03T9XspdN1a1ivbScbZIZ0WSNxnOGRgQRn1Fcn9n+4op6r/hvyPhZeEqjl9PDQr81WE3PmmpWn7vIoyUZxdlDlj8XTVNNo+UtM8XfC+98A+MfCPwi0eZNGstHuppdQSB47dpmjP7t5J8SvJg5G7JwOOBXqHwU0rTNT+CPhjTdRs4bq0mskLwyxq8bneW+ZGBB+bnkdeetewPZWclm2nSQRvaPGYjCUBjMZG0oV6bccYxjHFLZ2dpp9rFY2ECW1tAoSOKJQiIq8BVVcAAdgK6KWHakm+1trH1OTcI1cPiYYivOEkqcqfLGHJFJyUrRjeVopK1m22WAAoAAwB2pa8Lu/APxrmu5prT4qfZ4Hdmji/sO0fy0JyF3FsnA4yetV/+Fe/HL/orX/lBs/8A4uq9vL+R/h/mdsuI8YnZZbWf/b1D/wCXnKeGbuPSv2iPiTqVzDI6WulW0x2KWYqkaMQq/wARYDgd8V89+Jte+AdrZXvjf4U+JdV8KeKZId8djAtwsckpfe0cuUZMMeCom8sYHB6H9IbGK5gsreC8n+1XEcaLJNtCeY4ADPtHC7jzgcDpWUfCfhZtaHiVtGsjq46Xn2eP7T93b/rdu/7vHXpxXNVwUmrJrd7ra/bU+Nzjw4xGIw/saNSnrOpO86bcoe0k5XhKNSLUo3tvaW7tZHyT43bUPF3ir4IyeMLXZPfFp7mErtHmhY35HbJAJXt0rsviIzWP7SPw6v5V/c3FtdW6nOPnIf8A+KFfTctnaTzwXM8KSTWxZonZQWjLAqxUnlSVJBx1HFQXOl6ZeXdrf3lpDPc2JY28skatJCXGGMbEEqWHBxjI61o8I9dd2n91j1KnAE2qsvbXnOrRqczWv7pU1Z978sn5OQ3V9I0zX9MudG1m2S8srxDHLFIMq6nsf5gjkHkc185eHP2avCOieOtcv5tIsLnwtf2ccFraTGS4nhm48xw0wYrnnDLJuGeMV9PUVvUw8JtOS2Pq854Uy/MKtKvi6MZSpu6bSb2as9NY63a2vZ9CC1tbaxtYbKzjWGC3RY40UYVEQYVQOwAGBXx/+1p438LxeHbXwY99jWYr20vWtvLk+aAbwSX27Pw3Z9q+x6KWIpOcHBO1zHi3IKmZZdUy+hUVPnVm3HmsvJKUde2tvJnNeEvFegeNdCt/EPhm4+06fPuVH8t4wSh2sAsiq3BGM4xXS0UVtG9tT6DDRqRpxVaScratKyb6tJt2Xld27sKKKKZuFFFFABRRRQAUUUUAfLevHHxd13/r3i/9Fw1rbqyNf/5K7rn/AF7xf+ioa1a/jrit/wDCnif8cv8A0pn6xlq/2en6L8h26jdTaK+f5jt5R26jdTaKOYOUduo3U2ijmDlHbqN1Noo5g5R26jdTaKOYOUduo3U2ijmDlHbqN1Noo5g5R26jdTaKOYOUduo3U2ijmDlHbqN1Noo5g5TN1yQLo1+f+mEg/NSK9b+EcZi+Hukg4yRM3H+1M5H6V4z4mfy9BvWzjMZH5nFe6/DWLyfAmjJt25gDf99Etn8c1+u+D0L46rL+5+sT5fit2oRXn+jO4ooor+iD4IKKKKAP/9H9/KKKKACiiigAr5g/agcNoHh+17y6hkH0whH/ALNX0/Xyv+00xLeEISfke8kJHY48sD+ZrxuIXbB1Pl+aODNHahL+up+Adv8AGD4zfD39qf4233wO8CP411jV9ShtZJBa3N1BZpHIwzKlvsIEhGAzSoo2k8jp+hXwI8cftoa/40ew+Pnw/wBF8OeGjayOt5YXMbTC4UrsTYt7dFgwJ/hUDGd3QH5U/t747fstftC/FPWtC+EWsfEPRPHV3Fe2k+neb5SKC7Es9vbXWGy5Uo+wjbnBBBP018I/2g/jN8a9S1nwhrvwg1r4YA6bcPb6xqDTNDHckbI1Cz2ltubLbhtLH5eRjmvFxt5Q5oxVrLW+uy8+noeVibuN1FWstb67ep82v8JP2rvgv+0d4w+LHgn4f6P8TLTxDdtdpqN3cwR31vaszZt7ZpZ4WglEZCErDICoUDdyK9/+DX7a8/jz4l23wn+KPw51T4Z+INViMumx6g0jLc7QxZSJoLZ0JCnYQjK2CCQQAfAfCvxo/bm+AuiSfDXx18KtQ+JN/F5i6brlvNPehlLsqvdTQJP5q5wVErQShPv4JyO0+FfwN/aQ+Kvx50j4/wD7TsVl4c/4RIFNL0iwaJ9zFDhsxSz7YwzljvlaQsMbQmKK8YuLdbl0WjT1fbS/6IKsU03Vtto09/lc9p/b+0xNV/ZW8YLJx9lNncA98xXMZ44P0+nevbvgBqqaz8D/AAFqkTFluNEsGBJJJ/cKM8gH86wf2nPBPiT4j/Afxl4K8IWwvNY1SzMdtC0iReY4dW275CqKSBwWYD1Irb+AfhPXvAXwW8F+C/FKpHq2i6VbWtykbh1SSNACoZeDt6ZHBxwT1ry3Vj9XUb6836HC5r2KV9b/AKHgH7b37SVt8F/h1L4W8M30I8beKVNpZxieNJLOGYFXu5NzDYq8hGbC7+ScK2Pzp/ZZ1H4cfC39rvwVpHgTxKnieHW9Jk0zVbxBKkX9qyh3lEbTIu+PfGgRkLK2cg819y2f7MfiL4nfta+Kvi78ddBtb3wlpUKWfh+0uGguoLtApUPJAC3ypudtsqD52Bwduan/AGlv2VQ8fg/x9+zV4P0jSvFvhLVobv7NY29ppq3cG4FhI48pDsKg/MSdpYLzgV6eHxFGEPYX1ktX0u1+h3UatOMfZX3Wr6a/5Hkv7ZXjPXfh9+178JPGPhnw3c+L9T03Trt4dKsy4nui/nIVTy45myoYscRtwD9R5NbfGbxN8Wv2z/hzrvx+0Gb4TWeibzo9ne2tzHPcSSnbHHLPMkWRJNnEgjVABsxklq9//a98LfH+1+PXws+L/wAH/B//AAkl/pFtLaBCpmtYrqcOCtxskiaOPa5xKzogIGW7HMuPgx+19+1D4r8Pv+0nbaT4F8JeF7yK9FlphiluLqZN3zRuk10ykg7GLTKoGCsbMMjajUpqlGUmvhavfXrsjSlOCpxbts1e+vXodL4HjN1/wUt8cXsLApa+G0jccg7mW26cdsV+lm6vyF8T+Ifjb8Bf2vviN8SNE+EGuePtO8RW1rb2UtityYFhWKLkTQ21ypO5CChAKnnvk+x+Afit/wAFAfFQvPEus/C/RtL0kaddTWNjPIbS7uLlsC2ikWa7MkbK3LeYkIK7ujFccWLwzmozUlay6rscuIoOSjJNWsupkWJ+1f8ABTu+aTg2vhb5cd/3aDn/AL6NfSX7Xvwr8cfGf4Gaz4F+H13Hb6tcSQTCKWUwx3UcL72gL4OC+PlzhSwAYhSSPz4t/CP/AAUMtvjrc/tBx/C/Rj4iubD+zmtze2n2IQ4UZCf2n5m/5Rz5mPavpL4p237cur+Cvh78S/C1tZ6d4x0CW6l1vwxZXIFndrIcRF8z7ZlWMHdF5zEM2Y2LAY1rQtUpyjOOiS36o0qQtODUlol16nnHg34y/tV/s1fD+08O+K/2cYJ9Js1It28NXCpHEkSZllu0tf7RO9yN7SsYwTnOTzVP9r344eF/jz+xJF498IpJBbXmsWcFxb3AAmt7iIsXjbaSDg4IYcFSDweBf1b9oD9ur4yadP4X+GvwXk8EGS28m9vtZDxOpmO3zbU3wtIxtG7KeXcMAQeuM5fjD9jX4h+D/wBlXw98HvCkCeKdcufEVtqes/Z5EigVWyrCP7Q8e6OMbQSQC3LlVHA2j7OM4zqWUr9H+ersaxUVKMp2Ur9H+Z0Whf8ABQXXdc0qztvgl8EfE3jrS9Lt4bW5uwHjMdwiAFCtpb3q/dwQWdSc/dHWvNP2YPGGteL/AIx/tG/EXxLoM3hfUrjRmln0283tcWjFHxG++OJ+AnOUU4xxX7CWUItbKC2AwIY1THptGO1fA/gP4H/EWy+Pn7QGu6ppjWXh7x3YiDTbtpYWWeWSMjhVYuoUsfvKP5Vy0cVRcZqMeXTvvqjnp16bjJJW+fmj4d/ZP+NH7WXhz4baT8PvgF8LYtdsHub24k1XUbe4+xzyMwJVbnzrW3jMYUqQ0rFjgDB4P6Ct4k/aI8R/s3fFGf8AaK8K6b4W1SHTb1bKPTZlkSW3NsSWcLcXQBD5GfMGf7oxk/J3wK+M/wC0b+zN8Pofg3d/s9eIfE0miXV3m+tvtIgk86VpCIzDYzxuoLHDrIwPX2r7F03xv8WP2jv2fPiFY3/w4vvh54hu7O70/TrPVJWDXLyW/wArgzwW5Qb225ZNvfcecdGOb5+blio33vrv6/obYpvm5uVWvvfz9Thf2avgr8LvjR+yB4F0f4keHrXWFSzuUhndAt1bB7lyTBcLiSPJUE7WAbADAjiuI/ZQTxR+z3+0V4s/ZLvtTl1vwx9kbWdFklYb7eNyrFSOilw/zhQFLqXCrvIrz34RfH39pL9n/wCHOnfB64/Z08Qa3deGxNb/AG6A3LQSM0jOCvkWU8bqC2MpMwbGQa+hf2Vfgv8AFU+P/En7Sf7QkMdl408TRi2tNPjYMtjZ4XjAaTy9wVQse8soB3/OSBNfmgqvtGuV3srp630aJq3ip870e2p+m37Lqk+EtZmA+R9RcA9jiJCf5ivpqvmj9lpwPA2qWx+/HqchPpzDEP8A2U19L17uQ/7nT9D18t/gQCiiivXO4KKKKACiiigAooooAKKKKACiiigAooooAKKKKACiiigAooooAKKKKACiiigAooooAKKKKACiiigAooooAKKKKACiiigAooooAKKKKACiiigAooooAKK43xDrfifRb1JrDQjrGl+WDIbeZVukfJ3Yik2q64xjDg5zxUWi/ETwnrd1/Z0d59i1EcNZ3iNbXIPp5cgUn/gORXO8VTUuRuz89Pu7/Iy9tG/K3qdvRRRXQahRRRQAUUUUAFFFFAHyz4g/5K7rn/XCL/0VDWnk1l+Ijj4ua5/1wi/9FQ1482s/Gbxd8T/FPgr4e3OgWFj4YtdMnd9UtbueWVtRE5wDBPGoC+Sf4e/Wv5C4gwUq+a4tKSSjKTbe1ue35tH6jhsVCjhKU59l+R7rk0ZNeXf8IZ+1L/0HPBn/AILtR/8Akuj/AIQz9qX/AKDngz/wXaj/APJdeR/ZS/5/w+9/5C/tyj2f3HqOTRk15d/whn7Uv/Qc8Gf+C7Uf/kuj/hDP2pf+g54M/wDBdqP/AMl0f2Uv+f8AD73/AJB/blHs/uPUcmjJry7/AIQz9qX/AKDngz/wXaj/APJdH/CGftS/9BzwZ/4LtR/+S6P7KX/P+H3v/IP7co9n9x6jk0ZNeXf8IZ+1L/0HPBn/AILtR/8Akuj/AIQz9qX/AKDngz/wXaj/APJdH9lL/n/D73/kH9uUez+49RyaMmvLv+EM/al/6Dngz/wXaj/8l0f8IZ+1L/0HPBn/AILtR/8Akuj+yl/z/h97/wAg/tyj2f3HqOTRk15d/wAIZ+1L/wBBzwZ/4LtR/wDkuj/hDP2pf+g54M/8F2o//JdH9lL/AJ/w+9/5B/blHs/uPUcmjJry7/hDP2pf+g54M/8ABdqP/wAl0f8ACGftS/8AQc8Gf+C7Uf8A5Lo/spf8/wCH3v8AyD+3KPZ/ceo5NGTXl3/CGftS/wDQc8Gf+C7Uf/kuj/hDP2pf+g54M/8ABdqP/wAl0f2Uv+f8Pvf+Qf25R7P7j1HJoya8u/4Qz9qX/oOeDP8AwXaj/wDJdH/CGftS/wDQc8Gf+C7Uf/kuj+yl/wA/4fe/8g/tyj2f3HqOTRk15d/whn7Uv/Qc8Gf+C7Uf/kus3WPD/wC09omkX2s3WteD3gsIJbiQJp2oFykSlyFBvAM4HGSPrTjlCbsq0Pvf+Qf25R7P7jvvF8mzw9dc4LbB+bj+lfSfgyH7P4Q0SIjBWyt8jryYwT+tfGGneI7/AMX/AAg8OeK9RSOK71rTtPvZ0hBEayXMKSsEDFiFDNwCxOOpNfbvh8RjQdNEX3BbQ7fpsGK/WvB7DuGIxKlvGy/F/wCR4vFc706bWzNeiiiv3k+JCiiigD//0v38ooooAKKKKACvlz9p7/kG+GT/ANPzf+givqOvlz9p51bTvDNqMeZJfMVP8WAoBx2/iFeNxD/udT5fmjgzT+BL+upwmaM1Huo3V+e8x8hzEmaM1Huo3UcwcxJmjNR7qN1HMHMSZozUe6jdRzBzEmaM1Huo3UcwcxJmjNR7qN1HMHMSZozUe6jdRzBzEmaM1Huo3UcwcxJmjNR7qN1HMHMSZozUe6jdRzBzEmaM1Huo3Ucwcx6B+zDJt0zxLZZwIb4Nt9Nykfrt/SvqKvlf9mRWZfFtyPuSXkYHrkbyf5ivqiv0Lh5/7HT+f5s+uyv+BH+uoUUUV7J6AUUUUAFFFFABRRRQAUUUUAFFFFABRRRQAUUUUAFFFFABRRRQAUUUUAFFFFABRRRQAUUUUAFFFFABRRRQAUUUUAFFFFABRRRQAUUUUAFFFFABRRRQAVja14e0LxHa/Y9esIb+HssyB8e6k8g+45rZoqZQUlaSuhNJqzPMD4C1jQ/n8DeILiwRelne5vbTH91Q582Mf7sn4Uf8Jn4q0D5fGfh2Qwr1vNKJu4cf3miwJkH/AAFvrXp9Fcv1Tl/hNx/Ffc/0sY+wt8Dt+X3f5WOe0HxZ4b8TxGXQNRhvdn3lRv3if76HDL+IFdDXI694E8KeJJRdapp6G7TlLmImG4Q9iJYyr8fXHtXPf8I98QfD3zeHNdXWbZelrq65kx6LdRANn03o3uaPa1YfHG/mv8n+jYc84/Er+n+X/Dnp9FeYj4lxaUwh8caRdeHXzjznX7RZk9sXEWQP+Bha9B0/UtP1W1S90u6ivLd/uyQusiH6MpIrWliYTdovXt1+7cuFWMtEy7RRRW5ofK/iP/krmuf9cIv/AEVDXD/B7/kv3xZ/7B/hn/0G/rufFaGD4taox/5eLeIjPHSOMcev3a4X4O/8l++LP/YP8M/+g31fyVnqax+ZJ+f/AKdgfoOJ/wBxo/L/ANJZ9U0UUV8QeMFFfkd4r8O/sea/4t8UWfxh1TX/AI6ePxf3Dv8A2NZa1d/2YCx8qztE05ntLdoB8uRIH3DL4NZngj41/EXQf2BtT1DStW1GHWv+Epn8J6be6iS2pWFrc6mtpE0pfcTPbxOQM5IYAZ4zX1/+qkpQi6cndyjH3ouK969mm3drTrFHP7fufsJRXw9F+wj8NfDS6X4j+Fur6r4S8fadcW9xL4k+3Xd9dX/lsDOl7FPP5c6TjcGUgBc/LgDB4e1+Hfh39rP9oD4q6Z8Z/tOseEvhrdWOjaZoS3c9tYNPLbLcT3k0du8fmyMX2pvLBVHAz08+nleGnzThWfJFXl7uq1SVlzWd29PeWzulpe3OS0aP0Zor81fjnpXib9jT9nXxn/wrbxRqt5p2u6pp9joFo6ve3egpqEiwzR2c0rySTcbnhR+VcgAnOa+XvEmneAvCPhabxP8AAL4QfGHRfi1p6JcWuvXWi6xJJqN1GdzJqJkmkSWKfkOpjIGflA6V6GB4WVePtIVLxbtF8vkviu1ypXs7c3W11ZuJV7aWP3Lor8w/il4Lu/jd+1n8I9J8SXF/4fs9U8Bahd61ZW8klncTQm4t2ksXkTbLGplZBJtZWwpXIya6a3+Gnhr9mz9ozwP8P/hn9psfAHxVstVsdS8PyXU9xaRXVpCJUurcTSO0TOpZJArANkHqK5f7Bp8kV7X33Fyty6WV7rmvvaLa0s+6K9q+2h9jfDP4paX8T5PFQ0mzmtI/C2tXOiSGYrmaa0VDJIoUnCFmIXJyQMnGcDqvGel6/rfhPVtJ8K6u+gaxdW0kdpfpHHMbacr8kmyVXRgD1BU8dOea+DP2GfgX8KPAuv8AxQ8U+E/D0WnappvirVtEt50kmYx6dE0TJBtd2Uqp5BILe9fZ/wAVvBt/418Jzafp3irWPCE9sTci80SaCG5by0b92xuIZ0KNnkbc8DBFc+ZYShRxvs6MvdVtZLyXS8rr+rDhJuN2fNPiX4w/HjS/gP4Y1bVdPtPBnxAv/ENl4dvZNTt/tNjuedreS9iiSaJjDLt8yPLqcH0wToXnhz9pXUmAP7Q/hrS4/lz9h8LQF8Drg3OpzAE+pU/SvCrvVLr4u/s6fs8eDvHcqeKNW8ca/ZSXf9pRLdLdQ6f9ouJ3uIsKroEjAYEBeQOpAriPGkvwP+C6Xfw8+MH7PnhJviHqIaLwtNpeg2raT4imlcRQqjPGzWkiM6meOZsKuWV2BFfU0cBq6dOKU+aWihCWidrrn1srP0Wr0vbFz6v+vuPq74j+I/il8Bv2WPHnjyT4gj4g+JdEtZL201O5sLS3jVlKL5ZgtAsRQHJ9eeSetOsPBH7YF5p1pfyfG/QIPtcKShW8ILxvUNjJ1IZxmvIviz8HofgV/wAE3vGvw8xD9tttEuLm+NsgjgN7dzCa48pBwkYdiqKOAoAqh8cLP4GX37SHwkh/aDbQl8Mf8IRqpQ+IZbeKy+1iex8vDXLKnmbd+0ZzjOO9YYWjGcX7KzvKpr7ODbUYxatF6K+uituNu2/l1PeE+Hv7X8rbY/jn4fc+g8IKT+mpV0n7K/j3x/488G+JG+JOpW+r6x4f8Rano5urW1FnFLHYuEVhCHk2k8kjc3XrXy54C0/9mOw/bO+H6/s2P4Xa3fwx4i/tL/hGZrSZN4lsvJ8/7KzAHG/Zu98d69//AGOP+Rd+JH/Y9+If/R4rlzWhbCyc0totfu4wau5Jp8vp3HB+9/wbn2BXI/ED/kQ/En/YNvP/AES9ddXI/ED/AJEPxJ/2Dbz/ANEvXyWE/iw9V+Z0S2PlfwAu79nfwSc/d0DRz/5Lwivu3wlJ5vhTRZcY32Vs2PrGpr4V+HQB/Z58GA/9C9pH/pNDX294CYt4K0Mscn7HCOfZQBX7h4Vz/wCFHGx83/6Ud3E0f9nov+tjraKKK/dD4oKKKKAP/9P9/KKKKACiiigAr5L/AGlJTL4g8FWI6CWeRhng5aED+R/OvrSvkT9o6I2/i/wdfnpN50X/AHy6f/F14PErf1Ofy/NHm5v/ALvL5fmclmjNQ7qN1fnXMfIXJs0ZqHdRuo5guTZozUO6jdRzBcmzRmod1G6jmC5NmjNQ7qN1HMFybNGah3UbqOYLk2aM1Duo3UcwXJs0ZqHdRuo5guTZozUO6jdRzBcmzRmod1G6jmC5NmkZwqlm4AGTUW6oLr5raVc4yjDP4GjmC56/+y7bkeB9SvXGGuNRk/ELFH/Umvpavnr9mZw/w2KhQuy9nBI7/Khyfzx+FfQtfp2Rq2Ep+h9plytQh6BRRRXqnaFFFFABRRRQAUUUUAFFFFABRRRQAUUUUAFFFFABRRRQAUUUUAFFFFABRRRQAUUUUAFFFFABRRRQAUUUUAFFFFABRRRQAUUUUAFFFFABRRRQAUUUUAFFFFABRRRQAUUUUAIyq6lWAIIwQehFefah8MvDFxdNqWkLLoOoN1uNNkNszf76L+7f33Ia9CorKrQhNWmrkTpxl8SPMMfFHw50Nr4stF7HFje4+vML4/4BmvPNT+Ilr4a8RN4ghW7sWvSg1LSNRRopGCgKJ7RmzGzqBgojkOMYAbBr6E1O0lv7CazgupLKSVdomh2+Ynuu4MM/UGvObv4TaVqsJtdf1vWNWgf70U96yxt9UiWNT+X9c+Zi8LW0VF+l3t89/vujkrUam1N/f/V/zPKfGV/Yaj8RNP1bS51uLTUrBJY5EOVdfnGR6fdwQeQRXD/Bz/kvvxZ/7B/hn/0G/rA8R/D3QJvi3qvg7TGmsNO062jlVUkZ2DMkbHDSFiQTJk+/Sp/2f/D1v4Y+N3xY0q1mknjWx8NPukILZZb70Ar8J4o4dqxWOzGTVno0u/tIX/LsfRYLiSVeEMG6duXrfsmtrfqfYVRzRLPC8LEgSKVJBwQCMcH1qSivyE9Q/Pz4Y/Av9rL4LaTdfCr4d+J/B/8Awg7Xl3cWmrX1ley65bpeTNKwe2jdLaaRNxCyNKM4BZT0rT8Afsd31l+zt4v/AGfviLri366xrV9qlhrFqxa7R5p1ube6lR440W4jmXcypuQ9m54+8KK9+rxJiZNtWTbUm0km5LZ3/peRkqMT4N1L4K/tX/FHTbD4afGnxd4YHga0ntpL680S2vI9Y1iK0dZFimSc+RbCVlBlMZcnkLtzXVeLfgj8Y/BPxR1v4s/s1atoVvL4thto9a0TxFHciwmntE8uK7hntMyxyiPCMpRlYAcivsiis/7frXslFR1vHlXK72buvVL0srWD2SPiO3/ZHv8Axn4B8f2Xxp8RpqXjP4jT213dahpkJhtdLlsAv2FLCOUs2y3ZQ26Q7nOc44xRuPhv+3L4q0qH4eeKviB4Y0TQVMcdx4h0KC/i8Q3METAnZE7C3tpZAMM6O+MkqO1fdVFNcQYj7Si9bq8U+V2S0XTRJW20WgexR+afxy8N+Prv9tP4WWfwu16LStf0nwbq0tvLqcb3dtdiKeJGgvMMspSUHLOjbwwDDPIPu/w7+DXxa1n4qWXxs/aH1jSLvW9Bs57HRdJ8Px3A02xW6x9ouGlusSzTyBQvKqqLwM5r329+HHgzUPiBpvxTvNO8zxRpFjPp1reedKPLtbl1eWPyg4ibcyg7mQsMcECtKHxn4TurXWL2z1e1uYPD7yx6i0Mqy/ZZIU3yJLsJKui8lTyB2revnU50YUqMdo8rdlfVu6T3s7277rZ6pU1dtnz38G/hX8X/AIWfFHxyLi80PUfhz4r1O81yBlNyms297d+XmFk2G3aEbW+bfu6cdcel/G7xl4p8HeCWPgfw1P4q8Q61OmmWFrGfLhSe5BAmupf+WVvEAWkYAnAwBk1zHgr9rH9nH4i+I7Xwj4H8f6ZrWs3u8w2tvIzSOI1LsQNo6KCTVOb9sT9le2mkt7j4reHI5YmKOjajCGVlOCCC3BBpVcPjJ4hVK2HbkrXXK1e2ibt3t5XBOKVkz4U8O2Xi34H2GlaV410zW9F+IHgnRpdC0PV49BvvEvhUx3NwZZr62XTU85Z5oyEMc+Cm0DDKTnodIsf2T9R0zWJ/jOvi74oeKvEkAg1DWtY8H68JkQHcqWEcWnhLGNGG5FhwwIBLMa/Rvwb8V/hn8Q/D134s8D+J9P1vRbBnS4vbW4SS3iaNQ7h5Adq7VOTk8DrWR/wvr4G/9FE8Of8Ag3s//jtepPOq05SvSmp315XZ97fA5JX1te19SFSXc/PjxxrYuP2CfjF4Xi8Q+IPFFroNjNFZ3niLRrrSbxLN3UwQM10kb3TRKMGbaCeAea9bvtZ0fxxeeHPF3jX9mPxX4j1TRdMNjaTXi6JcQLBceW8m2CXVTESzRqQ7R71HAIBIPvfgj9q/9n/x1pl1qVl420vTTZ3lzYywajfW1rMJLaQozBWlO6N8bkdSVZSCD2HrPhn4h+APGs09v4N8TaZr0tqoeVLC9gumjVjgFxE7FQT0JrLE5lWpKSlh2nzSd22rcySa93lWtvnf72oJ9T430e+8NeHPGdj8QfDX7K/ijRde062uLOG40+LQrMeRdFDKrxQaqkUhJjXDOrMuDtIyc9J+w7qNxq/gbx3ql1YT6VNdeNteke0uvL8+BmmUmOTynkTcvQ7XYZ6E19daD4k8PeKbJ9S8M6nbaraRyy27S2sqTIs0LFJIyyEgOjAqynkHgitqvMxecOdKdGVOzdtbybVr6e8338i409b3CuR+IH/Ih+JP+wbef+iXrrq5H4gf8iH4k/7Bt5/6JevJwn8WHqvzNJbHyz8Of+TevBn/AGL2k/8ApNFX294B/wCRK0T/AK9If/QRX51/DL4X2UvwS8K67LqVwWbw7Y3IiGAob7Ijgd+B0r7Y/Z8uJ7j4V6WZ5GkKPcIpY5IUStgfQdq/o7gnhupl+Y15VJX57tf+BLzPFxnE31zlw/s+XlW973tp2PaqKKK/VjiCiiigD//U/fyiiigAooooAK+W/wBqCDZpPhzVf+fW+ZM/767v/ZK+pK+a/wBqb/kn2n/9hSL/ANET14+fxvg6np+pw5mr0JnkOaM1BmjNflvMfEk+aM1BmjNHMBPmjNQZozRzAT5ozUGaM0cwE+aM1BmjNHMBPmjNQZozRzAT5ozUGaM0cwE+aM1BmjNHMBPmjNQZozRzAT5ozUGaM0cwE+aRsMpU8g8VDmjNHMB7R+y5I7/D29VjkR6nMq+w8mE/zJr6Rr5g/Zdkx4c1605zFqG72+aNRx/3zX0/X6nkLvg6fofbZa70IBRRRXrncFFFFABRRRQAUUUUAFFFFABRRRQAUUUUAFFFFABRRRQAUUUUAFFFFABRRRQAUUUUAFFFFABRRRQAUUUUAFFFFABRRRQAUUUUAFFFFABRRRQAUUUUAFFFFABRRRQAUUUUAFFFFABRRRQB8Y30nnfHzxXcfd2W0UeOvSOAZ/8AHaz/AIQnd+0B8WT/ANQ/wz/6Df1c1lfsXx88SxHIW4tonXPUkxwk9O2c1n/Bs7vj58WT/wBQ/wAM/wDoN/X4/wAZS/4SsYv73/uSJ5uRv/a2vOR9G+Kdb/4Rrwxq/iPyftP9lWdxd+Vu2eZ5EbSbd2DjOMZwcehr5U+Bv7UHjb40aJo3xAk+GUvhv4fahpzXlxrt5q1uRBLDGWmRLXy1mkhVwyLMQm7BbYFwT9G/FL/kmXi7/sD3/wD6TvXx58HPCms+M/8Agm/oXg/wwTFqmseB3trXZgEzTW7hQO2WY/ma/Fcuw9B4WU6kVdzjG7b91NO70a1Vut15H2k2+bQ1rX9rn4k+IdIf4keBPgjq+vfDJA8ya1/aVnbX9zaxn5rm10uT97LFgFkzIjOvIXmvVfGH7Tng/R/h34R8deCdOvPG1x8QZIofD2nacESe9llQyYZ5mSOFI1B813YBMY5PFfnV8KbT4H/8KL03XfFP7UPjjwhc6HYLbaroL+I7C0n0+6tk8uW0Syls/N4YFY0G7cMAE16fcfEZ/gh8GPgh8N/hPr1/8PPDHj24ul/4Sjxpb2015psDB7lFli+S1Wadm/d+aAoXqCa+lxeQYf2qhTp6qTX20mkm3du7bVk/cWqvZK6MY1Xa7f8AX9dz6R8O/tOfELTPiR4b+HXx2+FFx8Pm8ZzyWujX8Gr22s2k9zHGZfImMCRNDIVUkZVgex643fH/AO0b4nsfiNe/Cj4LfDy6+JHiDQ4YbjWWF/BpVjpyXHMUb3NwHDzuo3CJV6YJYc4+FPHF/wCHJP2kvgNaWvxs1P4u6vb+J1a9/e2D6TYK1tKE+TToI4Yp5SflV3ZygOBjmvpH4WeNvB/wQ/aP+NfhP4r61Z+Grnxnqlr4i0e61KZLSC+sWtUgdIppiqM8DxlWQMSAc4xmsMVk1CCVaNJN8nNyrnSb5+W9m+eyWu/nsONR7X6+RB+yx41Hj39p347a9LpV3oN4IvD8F3p98qrcWlzDbuskTlCyPg/ddGZHUhlJBr9DK/Pz9mL4i+EPij+1D8dvFXgW4S+0cxaFbxXkXMN2YIZUaWJhw6FshXGQ2MgkYr9A68DieLjiknHl92Gnb3I6G1H4fvPA/wBp74kap8Kfgd4n8W+Hyg1vyY7LTN5wv2++kW2tyfpJID+FUtN+G+mfCX9mjUvAmmDcbDQL43MzcyXN3LbySXE8h6s8srMzE8kmuA/butZT+z/NroANv4b1vQtXut3QW1lqEMkzH0CoCT9K+h/iTcQ3fwq8U3duweKbRb50YdCrWzkH8RRS93CUeX7U3f5KNvuu/vB/E/Q+DP2ffK8ZeNvhVYXjlIPh38NLW+t4ZMATXesqsJljB5byYYSpZeFMmDyRVz9lz4weJ/D/AMC/DOj2XwZ8VeIoLVbpV1CxGjm2uB9plO6P7RqEUuO3zIp46V5l8NfiR4M8TeIP2ZvDfw3vl1Lxp4c0mWz8RQQRSCSz0eXSt7i5YqFVTcLAyAn5icrxzXo/7L3/AA1t/wAKM8Nf8IF/wg/9gYuvsn9p/wBp/bNn2mX/AFvk/u92c/d4xX12aYe1OftYpJuNlJuNtauulnr8S8mc9N66f1segfs0W5+JGi/Hew1jSbzw4PEPijUbeayuzCt3aieygjKuYHmiDAHPyuw/lXwt8R9U0TwB4T0Dwjpdp4DabRdW0rTpJo/B+qfapY4bhIZPtE8sHlzKwB83Z80gzs5Ir7W/Z+1LUtH8JfH3VPi1q0WhXdr4n1CTVb/RPO8u1xZ2++W18xJJRsHILIxz2NfOPi+G88cav4d1DX/FnxM0j4Xx3aX1ve31jc6hqWrXFmVlhe1sbLTpJLOFHKuJ7pVZ+iRYy1bZa+XGVHL4Pd0V7XUVotHd22W9tXpqKfwo4Xxz470OHxn4DisdN+HkdvPf3K3K2/grVooZEFpKyi4jlh3yoGAKrF8wbBPyg193fsp+F9DvPE3in4o6Wmg28l5bWmkmHw9pF5o1qBbNJOWkgvY0ZpD5o+dcjHB5FfE11rifF9LXUfA/j34gf8Jr4V8SXUGjQanY6i1ncxrm2IkvV0hUsZpo3ILS5EJ/1i4zj7f/AGbfGNpfeMNR8K+IL/x9Z+MLW0L3Wi+LoxNbRRq6gz215bW62sqlvlR1mywJ+UHOI4gjJYRximmlZrrbmvtyrTbXZbDpP3i9EH+FH7X8Ok6dmPw98YNKubuaEYEUeuaRs3SquM7ri2f5z3MYJ55r7Hr47+LrrrX7WXwQ8O2fzXOk2+vaxcYBOy2FulspY9AGkkAGepHHSvsSvhc21hQqPdw1+UpRX4JHTT6oK5H4gf8AIh+JP+wbef8Aol666uR+IH/Ih+JP+wbef+iXrz8J/Fh6r8y5bHzN8N5jH+zf4XZThl8J2JH1FglfTP7PsaJ8JtFZRzIbpj9ftEg/kBXyp4An8r9m/wALk9/CtgvX+9ZIP619a/AmE2/wn0CM85Sd+Rj788jf1r+vsFK+Pf8Ahf8A6Uj87wTviH6P80euUUUV9Me6FFFFAH//1f38ooooAKKKKACvmv8Aam/5J9p//YUi/wDRE9fSlfM/7UsgPgfS7b+KTUoyD2+WGUf+zV5Gff7nU9DhzL+BP0PGd1G6os0Zr8l5j4Ul3UbqizRmjmAl3UbqizRmjmAl3UbqizRmjmAl3UbqizRmjmAl3UbqizRmjmAl3UbqizRmjmAl3UbqizRmjmAl3UbqizRmjmAl3UbqizRmjmAl3UbqizRmjmA9U/ZikxceMbPn91cwNj+H5jMOP++f5V9X18pfswxbm8XX+P8AX3UK7vXb5rdP+BV9W1+q8N3+pU7+f5s+3yn/AHePz/NhRRRXuHohRRRQAUUUUAFFFFABRRRQAUUUUAFFFFABRRRQAUUUUAFFFFABRRRQAUUUUAFFFFABRRRQAUUUUAFFFFABRRRQAUUUUAFFFFABRRRQAUUUUAFFFFABRRRQAUUUUAFFFFABRRRQAUUUUAfGvxFT7H8eVccfbNPRjjjOFYc+v3K80+H/AMQfAfgf49fE8+N/Emm+H/t1h4c+z/2jeQ2nneUt7v8AL8513bdy7sZxkZ6ivRPi9dW9j8a7a8u5Vggg0vfJI7BURFEpZmY4AAHJJ6V8reOv2rv2NfDd/FL4o8YaDqV1fKWEtlCdYOEwv7ySyiuAhxgAOQSBxwK/Nc1y1YyOJwjvaT6b6NS/Q8HC4mVHEynGN9Wfb918df2fb61msr34heF7i3uEaOWKTVrJ0dHGGVlMpBBBwQeCKpaJ8Y/2bPDOkWmgeG/HHhLStLsIxFb2lpqdhBbwxr0SOOORVRR2AAFfO3wy8afs+/GTSX1r4ZS6Nr1vFjzVht40nhySB50EiLNFuwdu9FyORkV6Z/wh/g3/AKANh/4Cxf8AxNfCy8OMLH3HVmvLQ9eXE7Ts6Zf1TxJ+xjrfiWLxnrWqeAL/AMQQENHqNxPpUt4hXoVncmQEY4w1dL4j+LH7MXjDSZtA8XeMvB+t6ZcY8y1vtR0+5gfHTdHK7KfxFeba5pnwy8M6Vc654jsdI0rTbNd811dx28EES5xl5JAqqMnqTTtG0r4aeI9Lt9c8PWGkappt4nmQXNrFbzwSof4kkQFWHuCa0fh/h3ZuvPTbbT0F/rPpf2Z1Fj4s/Y40zSbDQdN1nwFaaZpVwl5Z2sVxpUcFtcx/cmhjVgsci/wuoDDsav8Ai74hfsm/ECyi07x54l8EeJLSBxJHDqV5pl5GjjoyrM7gN7gZrm/+EP8ABv8A0AbD/wABYv8A4mj/AIQ/wb/0AbD/AMBYv/iaX+oOH5lP28799Bf60f3DsNI+KX7LmgXtxqWg+LvBum3d3FDDNNbX+nQySxW42wo7o4LLGCQik4UcDFdD/wANAfAf/opHhr/wcWf/AMdry7/hD/Bv/QBsP/AWL/4mvLtc+IP7MfhnVbnQvEniLwfpOp2bbJ7W7vNPgniYjOHjkdWU4IOCOlT/AMQ4ws3f2s2/kVHidvamfQnin4tfs3eMvDeqeEvEXxA8M3emaxbS2lzE2sWWHimUow/1voa8e+G/jfwDofwbv/hB42+LvhO/NpbXWk6bqkWs2ryzac8bR20lzE0ihZ40IVwrsrbdwYbsDd0jR/hv4g0y21vQdP0nUtOvUEsFzbRW80MsbdHjkQFWU9iCRVXQrX4U+KILi58M2+i6vDaTyW0z2aW1wsU8Rw8TmPcFdTwynkdxW9PgLDwg6aqytdPZaNf18/kS+Jne/J+Jkw3fwTi+DPhn4TWHx9sPDs/h61tLZ9V0PWNMtbm4FrF5RDLcG5QI/UrgkYGDXlPhj4Z/BXwXodr4a8Lftca1pul2QYQ28XiPw+EQMxc4zaE8sSfxr6Dn8K+B7aGS4uNF06KKJS7u1tCqqqjJJJXAAHUmszQtP+F/inSoNe8MWej6vpl0CYbqzjt7iCQAkEpJGGVgCCOCea66fCUIqSVeVm7v3YPX5on/AFkW/s/xOK+Dmi/AL4OeKNZ8TWn7Rj+JP7feae9tNW1/RpLaW7mCKbkrBDC3mhYwoO7bjOVJ5q3MfhtLNJKn7XOrRK7Fgia34W2qCc4G7TScDoMkn1Neg/8ACH+Df+gDYf8AgLF/8TR/wh/g3/oA2H/gLF/8TUT4QpSm6kqzbdt4w6fIFxKrW5PxPGPDnhH4L+Eob638O/tYarZR6leT39wF1zwu3mXVy26WQ7tOOCx5IHHoBXvfw/8AiX8G/A+mXOn6r8d7PxlJPN5q3Otazo5miXaF8tPsUdqmzI3fMpbJPzYwBxmox/CTSNa07w3qsWh2Wr6x5n2GzmW2jubryhuk8iJsPJsHLbQcDrW//wAIf4N/6ANh/wCAsX/xNRiuCqNZWqVZa/3Yr8UrjXEtvsficj8NfFvwn074k+LvjF8Q/id4Sn8Ra/s0+wgtdbtpYNP0a1ZjDCryMhMsrMZZmCgbiFGQoJ9//wCGgPgP/wBFI8Nf+Diz/wDjtfO1zrvwEs9CuvFN5feGoNFsrhrSe+eWyW1huVbY0LzE7FkDfKUJDA8YzXgGvfte/sOeHNWudF1DxJo8txakB2s9LnvoCSob5Li1tpYXGDyUcgHIPIIqK3h1Rrz5nObtZaJaJaJbGtPiKb0jTufoR/w0B8B/+ikeGv8AwcWf/wAdrl/HHx4+B134K8QWtr8Q/Ds082n3aRxpq9mzu7RMAqgS5JJ4AHWvFx4o/Z9PhGLx+dR8Mp4Znfy01R5bNLIuWK7PPYiPduBUruyCCMZFdzb+GPAt5bx3dpo2mzwTqskckdvCyOjDKsrBSCCOQR1rnp+HOEhJS9pLR+X+RMuJ31gef+Ep/K/Zs8KnOM+HdJXn/at4R/Wvuv4U2/2X4beG48EbrGF+f+mi7/68V8leOYoovBd5aWsaxRRLCqIgCqqJIuAAOAABwK+wPhtIkvw88MshyBptov4rCoP6iv1XJqnPi5y/u/qePlcr1pPy/U7WiiivrT3wooooA//W/fyiiigAooooAK+W/wBqKQnRvDtrn5ZL1iV7namPrxu/WvqSvkv9p6XdfeDbQY+ee4Y+owYQP5n8q8PiSVsFU+X5o87NXbDy/rqeV7qN1RZozX5Hc+FuS7qN1RZozRcLku6jdUWaM0XC5Luo3VFmjNFwuS7qN1RZozRcLku6jdUWaM0XC5Luo3VFmjNFwuS7qN1RZozRcLku6jdUWaM0XC5Luo3VFmjNFwuS7qN1RZozRcLnuH7LcO7wnrN9j/X6gy7vXZEh6f8AAq+na+a/2Wf+Sfah/wBhSX/0RBX0pX7DkCtg6fofe5av3EAooor1zuCiiigAooooAKKKKACiiigAooooAKKKKACiiigAooooAKKKKACiiigAooooAKKKKACiiigAooooAKKKKACiiigAooooAKKKKACiiigAooooAKKKKACiiigAooooAKKKKACiiigAooooA/PX9p2aJvFfig3WPKt/Dd0OmRg28pORzn7xr8YP2Sde/YX8A/CzT9f+OqaTeeM9UlvFkjvrK51fy7eOXbGGt0juIYWIGVYojsp4JFfsL+1cLi71nx7BZBvPj8NXSqAcEsbViMf99V+Wf7G/g79iRfhToPjH4nz+GT4zY3cd1Hr+pwk4851QtY3M/kgbANjGHOMNnJzXxdOok8Q3f4/s79fwPnlJL2t7/F0+Z9efB7Vv2XPB3w1+IXxb/ZS0qHUHtIJ5r2OAXiSSz28bzRwiO9KtHGd2QECpjp04/O74baX8B/2q7m68ZftUfG+7tPGFyZJItN85NLs9Otw5AiinvoXtjuG1hHCVI5J3tuav0n8bfGz4Kfs9/Bq/+JPwb0LRtb0GPUbeC6h8MPaQ2wmmZY2klktVaMOqYxuGWO1SVByPJPGnjT/gm34v8Df8JR4qh8Lm21qQSyrZ2n2fWvOLFz5iWKLfRksDvY4Vs/MSrcrD15Lmkoy1dr7vTp/VjOjUkrySevXd+h7X4C/Zo+BurfAeb4T2HiLUPH/gTU5vtFvPPqwu1haIgItrNaeXGiRuu4IoK787gckV+aPx7/Yn+F3wp+MXwp8D6Lqms3GheObyS0v5rq4tTcRFXjVfJdLdFGQ5+8jDivon/gnNBK/iz4o674EsL3TPhbf3Uf8AY8V4WP75WYEKWZtzLHgOdzEfKCSQa7H9veb7J45+A+qK7q8HimEfIcHaZYC35gY61dGvUp4p0lO97/fb8yqdScK7p839WPV/gv8AsGfBr4F+PrP4jeFdV12+1OwjljiS+ubdoB5ylGJWG3hYkAnGWx6g8Vo/tlfHrWvhh4Q0/wAB/DljN8QfHcw0/SoovmlgSQ7HuQvP3SQqHH3jnopx9X6pq1po+m3erahIIrWyieaVz0VI1LMfwAr8W/hP8KPjH+2P498T/tHDx5L4KihuJ9N0S8SwS4uVtPnGyArJB5BijcL5qN5hZn5ByTyYSr7WTrV5aR7/AII56E+eTqVXov6R9Mf8E1PEetxeAfG3wz8Tzb9V8I69cJIpcu4M3+tySST++SQ7u+fWvnDwv4J/Zl8XftSfHYftIXGnQWtlqEb6d/aOrSabud2k87yylxCZTgJlfmxxgDNd9+zR4W1n9mX9sHxB8J/GniCbX38daWl3a6pcRtE1/cRM0pLb5JWMg/eg/O2cZJ5FeISH9lE/tR/Gk/tSf8ex1JP7L/5CX+sy/n/8g7nps+/x6d69JP8Ae1JQbs0muXfdbHav4k3G+qT036H0T/wT+vLW2+IHxc0P4W31/qPwktZI5NJmuxIqLcPkkJ5iIQxT7wIDbQhcZINdr/wTOlY+APiK7sSzeK7oknkkmCLrXgn7KmoaNY/tCeMH/ZoOrn4OLplzJqX9olltEvFVjE0BfL9Avl+ZibZu38AV2f7Cfxz+D/ww+Amt6t8QfGOm6Nd3OsXd5JZy3SyXojYIqlLVMzyZP91Gz19cZ41Saqcqvfl9fn5k4mLanZb8vr8/M+9f2g/2dvh/+0h4csPDvj6e+tYtKuDdQT6fKkUyMVKsP3scqFWHXKE8cEc1+Sv7If7GXwu+Nx8a6p4o1TWrVfCmutY2RsbiCHzIossDKXgdt/TlCnXgA9P0lh/bl/ZivPD1/wCJV8ZCPTbK5jszK9jeq0ks0ZkXy4vJ81hgNk7PlI5wCpPwl+xF+0/8DvhPpnjyw8f+JhpM2veIZbyzDWl3KJIHUKrlooXVBn++VI7jFZYSWJhQmkmrWto/mZ4d140pJJ9D379vX42eJvAt/wCCfg/pPiWbwHoXilZG1PxFHHNcTwW0DKhSMQnziecvsIZsqMgFs+b/AAZ/Ze/Ynm1/wz4n+Gnxr1KXxEZI5bKK31qwsr6WUAhkFqbZLuPeNwaM4bYSD1zX0T4x/ag+A2sfGHV/gB8cNDsbXTLBbW4sb/Xo4p9OvJpYvM3bZojFCqq2Eld9rHcMqcBvg39sK9/Yt1Gzk0v4B6Zb3fxMuL20t7Z/Dcc6WSbWXhFhK2crSA7VNuruZMZIINaYNzcY0kpRv1Vmnfq/+HLw/NyqnZq/VbfM+wf2hHE/7d3wCgiO54re9Yj0ULKc5PsDX1X4+/aD+DWg6L4h0+T4heH7bWbG2uk+ytq1olytwkbYjMZk3B93G3Gc9q/Nj42fCyb42/tC/BX4S/E+6ube7bwqG1aa1dBc+aiO7bXlR13b0+YlWzzxnmvpTWP+Cf8A+y74d8A6j9n8Kz6jqen6dcNHe3OpXgmlmjiYrI6xTRQbtwBIWNV/2cVz1XRUaaqSd7dF5vXcxqezShzvp09WfB9tHCn/AATG1S9nIe51DxQrs5XLvIJ0GWbkk7QeT9K+hPDHiX/gmH4R8Cw+BfEkejXV/c2kB1Gf+z9Q1Cf7RLChl8nUI4pnjwe0EwCNkDBzXztdvLP/AMExLJYA2y28SsJcdMG4cgn2ywH1r7m+HHg7/gnX4S0OB7WfwLPPfQQPP/a2qWepSLIE5wL6ebyjkncqbRnqOBXfiaySlfm+J/D8tzqrTSTvf4nt8jx/9r3w38ILX9kvwBpfwVhS38E6rr1rNaGBpiXS5WTe5Nzul35JyJPmBGCBjAfr37NX7RH7JNpP8Q/2YPGt34j8NWCtdXXhnUQZcxbUaVhChWG4c7SS0aQTBcKhYk56z9v/AFHwXp3wI+Ha+EPsUfh2TXrFrFtO8oWK2yRSSBovK/d+XtGV2cenFfU/iv8Aa1/Z48G+DrnxFP490XVPskAK2mn30F7dTORhY0ggd3yxIBJG1erEAEjjjiqqpQ5FzJt3T1vtv5nOq01CPKr3b8yz8L/jpof7QfwIHxA0eH7HNKogvbQvvNtdRsvmR7uNy85RiBlSDgHgfpV8LP8AknHhv/rwg/8AQBX4ffsL+Etd0z4DeLfGusWQ06Hxzqdxq1nbY+5bEAKR0ypIO3gZAB6EV+2PwZmFx8L/AA7ICTi22c/7DMv9OK3yiMY46pCO1v1N8vio4mcY9j06iiivrj3gooooA//X/fyiiigAooooAK+O/wBpN2bxf4UiYYRY5WDepLrx+g/OvsSvk39qC22P4T1VRjybiaNj67vLYD/x014HE8W8DO3l+aPMzhXw8vl+Z49uo3VFuo3V+Qcx8JzEu6jdUW6jdRzBzEu6jdUW6jdRzBzEu6jdUW6jdRzBzEu6jdUW6jdRzBzEu6jdUW6jdRzBzEu6jdUW6jdRzBzEu6jdUW6jdRzBzEu6jdUW6jdRzBzEu6jdUW6jdRzBzEu6jdUW6jdRzBzH0J+yz/yT7UP+wpL/AOiIK+lK+YP2W3H/AAi+tw5+ZNQJI9MxqP6V9P1+z5A74On6H6Blj/cQCiiivXO4KKKKACiiigAooooAKKKKACiiigAooooAKKKKACiiigAooooAKKKKACiiigAooooAKKKKACiiigAooooAKKKKACiiigAooooAKKKKACiiigAooooAKKKKACiiigAooooAKKKKACiiigD4W+JqxyfG7V45VDo9nErKwyCDEgIIPUV8iaj+wr+yfql/cajc+AYkluXaR1gvr+3iBY5ISKG4SNF9FRQo6AV9d/FMGD43X7P0mtISv4RqP/ZTWb5vvX5RjMXUpYmrySa957PzPiMTXnCtPldtWeZ+AvgZ8Ivhn4S1HwJ4N8M21roOru73tpOZLyO5MihGEv2p5S6lRjaxK47V5/Zfscfsv6f4lk8WQfDzTmvZWdzHL5s1mDICDiykka1UD+ECIBf4QK+jPN96PN965VmFVNtTeu+r1OdYmer5nqGl6dpeh6bbaNolnDp9hZRrFBb28axQxRoMKiIgCqoHAAGBVTV/D3hzxBNYXOvaVa6lNpcwubR7mCOZracDAliLglHA43Lg+9W/N96PN96x9u73uZ873uWbiO3vLeW0u4lngnVkkjcBkdGGGVlPBBHBB61m6DoXh/wrpUOheF9MtdH023z5VrZwpbwR7iSdscYVRkkk4HWrPm+9Hm+9L2+lg5+lyle+HPDOo61Y+JdQ0i0utX0xXS0vJYI3ubdZOHEUrAugb+IKRnvXmOq/s6/AjXvGV94/17wLpWqa5qUYjuJru2W4jk2nO8wS7ofM9ZNm8jgsRxXrfm+9Hm+9aQxc4/C2io1pLZlXR9B8PeHdHi8O+H9LtdM0qBWSO0tYUht0ViSyrEgCAEk5AHPNfMH/AAwr+yf/AGh/af8AwgMXneb5237df+Vu3bseT9o8vZn+DbtxxjHFfVPm+9Hm+9VTx1SF3CTV+zY4Yicb8smjz9/gr8F5NIj8PyeAPD7aXDM1wlodKtDbpM6hWkWLy9gcqACwGSBjNUYPgD8BLWeO5tvhr4aimiYOjpo9krKynIIIiyCDyCK9O833o833pfXZ/wAzD28v5jzj4m/BH4SfGO0S0+JXhe01oxBVjndWiuo1Vt22O5hZJkUnqquAe4NU/hz8Afgp8JRDJ8PvB2n6VdW/mBLzyvPvQJfvr9rnMk5U9NpkwBwBjivU/N96PN96PrtTl5OZ27dA+sSty82hkXHg/wAIXfii18b3Wi2c3iCyhe3g1B4EN1HE/wB5FlI3AHnv3I7nPRTLDcQyW9wiyxSqVdGAZWVhggg8EEdRVTzfejzfes3Xb3ZHO+5xLfCb4XnwPdfDVPC2nw+Fr0P5unQ26RW7GQ5ZgqBcPnkOMMCAQQQMfP8A/wAMD/sk/wDQif8AlU1P/wCSq+tvN96PN963p5jVhflm1fzZpHFTj8MmjhLz4QfC7UfAFr8LtS8M2d54WsIVgt7GePzUhVVKqyM5LrIATiQNvBJO7PNeL6P+w5+ynoWp2+r2XgCCSe1bei3V3e3cJP8AtwXE8kUg9nQj2r6j833o833pQzCrFNRm1fzYRxM1tJlXV44IfD95awRrHFFbOqIo2qoVDtAA4AGOBX1L8BJHl+Eugs5yQLlfwW4lA/QV8r6nJnTbsZ/5ZSf+gmvpn9nb/klWm/8AXW5/9GtXu8KVL4t/4X+aPUyOX75+n6o9vooor9EPqwooooA//9D9/KKKKACiiigAr5p/akSL/hBNOlJxKmpRhPfMUuf5Dn/GvpavlH9qO6JtfC+k9rm6lkI/65hF/wDaleNxDNRwVRvt+pwZpK2Hm2eHgnHPBozUO6jdX4lzH53cmzRmod1G6jmC5NmjNQ7qN1HMFybNGah3UbqOYLk2aM1Duo3UcwXJs0ZqHdRuo5guTZozUO6jdRzBcmzRmod1G6jmC5NmjNQ7qN1HMFybNGah3UbqOYLk2aM1Duo3UcwXPfP2XCf7K8R8cfbE5/4Ca+qK+Wf2W1b+xPEMuPka9UA9iQnP8xX1NX7Zw7/uVP0/Vn6Hlf8Au8Aooor2j0AooooAKKKKACiiigAooooAKKKKACiiigAooooAKKKKACiiigAooooAKKKKACiiigAooooAKKKKACiiigAooooAKKKKACiiigAooooAKKKKACiiigAooooAKKKKACiiigAooooAKKKKAPhn4yhovjOWcYEljEV9xgj+hrnPNrpfjodvxgtT/wBQ+P8AnJXFebX4znkuXF1V5s+AzJ2rz9TQ82jzaz/No82vJ9qcPOaHm0ebWf5tHm0e1DnNDzaPNrP82jzaPahzmh5tHm1n+bR5tHtQ5zQ82jzaz/No82j2oc5oebR5tZ/m0ebR7UOc0PNo82s/zaPNo9qHOaHm0ebWf5tHm0e1DnNDzaPNrP8ANo82j2oc5oebR5tZ/m0ebR7UOcfqMn/Evuuf+WT/APoJr6n/AGdv+SVab/11uf8A0a1fImrzbdLu/eJh+YxX2h8C7c23wp0CM5GY5n5/6aTSP/Xivr+DHfEyf91/mj3uH9arfl/ketUUUV+mn14UUUUAf//R/fyiiigAooooAK+a/jv8PfEXjDUtG1PRrm2hSxSRNs7ODvZg2RtRsjA719KVyfiz/j3g/wB4/wAq8jPKUZ4aUZbafmcOYwUqLTPkOz+A3xTv4BdQ6tpio2eC0meOP+eBrQj/AGdfia4zPrmno3ohkIx/35X+VfXnh3/kFRfVv5mtyvjKOUYZ7w/M8CGBpPeJ8Vf8M5/Ef/oP2P8A5E/+N1I/7N/j5VDReIrRmP3gyuAPp8p/kK+0aK7I5HhLP3Pxf+ZvHLqNn7p8LX/wI+KGmxGeTVtNkj3bR80meehI8j+tcZceC/G9pO9tJd2TNGcEgvj/ANAFffXij/kGj/rov8jXzZrH/IUuf98142Ky2hF6ROCthKaeiPnF08Rxu0bPbEqSD97t+FM0k+ItcdUtHt4y5YDduH3Rk/3q6G5/4+Zf99v51W+H/wDr4P8Afl/9BNeQsNDmSscKpRvax2mkfB74k68A1nqWnRbl3/O0g4Bxj/Ut610g/Zz+JBGW16xB748z/wCN19C/Dz/Vxf8AXA/+hCvUa+iwuUYeSvKH5nq0cDSa1ifFX/DOfxH/AOg/Y/8AkT/43R/wzn8R/wDoP2P/AJE/+N19q0V1/wBiYX+T8/8AM2/s+j/KfFX/AAzn8R/+g/Y/+RP/AI3R/wAM5/Ef/oP2P/kT/wCN19q0Uf2Jhf5Pz/zD+z6P8p8UP+zr8S1UtFrtgz9g3mAfn5R/lXK6t8JviNofm/bNR0+TyNu7a0hzuxjH7pfWv0Brxv4gf8v/AP2y/wDZK48XlOHivdh+ZhWwVJLSJ8TXdp4nsbh7WaW2Z0xkjdjkZ9B6+lV/+Ki/v23/AI9/hXZeIP8AkL3H/Af/AEEVjV8/LDU7vQ8uVGN9ihZ2XifUJxbQy2qu2Tk78cc+hrprHwB471ORore9sUKDcSxfp0/55mpvDn/IVj+jfyr3Dwp/x+Tf9c/6iujD4KlLeJtSw8HujxS8+GfxBsIGupr+wdFIyAXzzx/zyFefavPr+hFlvGt5Nr7Dt3HnGf8AZr7L8Rf8gqX6r/MV8hfEH/WS/wDXcf8AoJoxuDpRXuxDEYeEVoj6i/ZZjb/hC9VnOMSagw/ERR5/nX03XzV+y1/yIN//ANhKT/0VFX0rX6bkH+50/Q+vyz+BAKKKK9g7gooooAKKKKACiiigAooooAKKKKACiiigAooooAKKKKACiiigAooooAKKKKACiiigAooooAKKKKACiiigAooooAKKKKACiiigAooooAKKKKACiiigAooooAKKKKACiiigAooooAKKKKAPkv4y/Dbxb4k8cx+INJurOGJLWOKMSF1fClt24BGB5Y4OemPSvNP+FUfEf/oI6f8A99Sf/Gq+xPFf/H5D/wBc/wCprlq/N8zwNKWInKUdbnyeMw8JVZNrqfLNl8NviFqO/wAi/sE2NsOWfr6/6o12Mf7PHxRfP2jXNOTHTYZD/wC0Vr1bwx0uP+u5/pX0HXNhMrw8t4/mY0MHSe8T4xb9nDx6E3R+JLUyehVwvvztP8qh/wCGdPiR/wBB+x/8if8AxuvtSivUqZHhU9Ifi/8AM7J5dRv8P5nw7e/AP4oWET3A1nTpIo8HlpAxzx08g/zrgdX8JeNtBEhvLuzl8raTsLnO7GP4F9a/QrXP+QVcfQfzFfKPxD+7efSL+a14uOy2hC/LE4MRhKa2R5ZpHgbx3ryh7O8sogyhhvLjhun/ACzavQI/2dvidICbnXdPjPbYZG/9orXXfDr/AFMf/XKP+dfVNa4DK6E0uaP5l4bB0pbxPgzWvgx8SvD0Xn3Gq6fNFgkYaTdhcZyPJHr615Fq2o67odx9lvDBK+SMqGI+Xr/dr9C/iN/yC1/3ZP8A2Wvz1+IH/IWP+9J/MV52Z4KlTfuRscuLw8Iv3UVLPX9X1CcW8KwoxBOSGxx+JrW3eI/79v8A+Pf4Vyvhz/kJr/utXoVefSoQa1Ryxpxtscvf6vrWmbPtHkP5ucbQ3GMe49ar2niDV76dbaFYVZs4JDY4GfU0eLP+XX/gf/stZXh7/kKxfRv5GodGPPaxLhG+x7joXwo+I3iUZsdR0+Ecn52kHTHpE3rXUzfs7/EqKPzINesHfqQ/mAfgfKb+Qr3H4Wf6v8H/APZa9jk/1bfQ19ThMpw8qbco/mezRwVJxu4n5p+ItF8XeE939pXFpPs6+XvPYHuq+tcZ/wAJbfd4o/1/xr3P4yf8t/p/7ItfMVfN4vDwjNqKPJr0oqVkjp/+Es1L/nnF+Tf/ABVdl4b0vxZ4v2/2ZPa2+7geZvHr6K/9015NX0h8FukX1/rJSwlCEppSQUKUXKzRty/s7fEW506Wa91ux/1ZYIpkKtxnBPlLj8jX1x4I0KXwz4Q0jQJ2V5bG2jjkZCSpcD5ipODjOcZA+g6Vsyf8gpv+uJ/9Bq7H/q1+gr9KyHA0qU26cbXR9bluGhCTcV0H0UUV9QewFFFFAH//2Q==;" vertex="1" parent="1">
          <mxGeometry x="140" y="140" width="887" height="678" as="geometry" />
        </mxCell>
        <mxCell id="5DiekUgnv8NCwvmtXaS6-3" value="&lt;span style=&quot;font-weight: 700; font-size: 20px;&quot;&gt;SYN_SENT&lt;/span&gt;" style="rounded=0;whiteSpace=wrap;html=1;fontSize=20;fillColor=#ffcd28;gradientColor=#ffa500;strokeColor=none;fontFamily=Comic Sans MS;" vertex="1" parent="1">
          <mxGeometry x="200" y="390" width="150" height="60" as="geometry" />
        </mxCell>
      </root>
    </mxGraphModel>
  </diagram>
</mxfile>
